<?xml version="1.0" standalone="no"?>
<!DOCTYPE svg PUBLIC "-//W3C//DTD SVG 20010904//EN"
 "http://www.w3.org/TR/2001/REC-SVG-20010904/DTD/svg10.dtd">
<svg version="1.0" xmlns="http://www.w3.org/2000/svg"
 width="1080.000000pt" height="1080.000000pt" viewBox="0 0 1080.000000 1080.000000"
 preserveAspectRatio="xMidYMid meet">

<g transform="translate(0.000000,1080.000000) scale(0.100000,-0.100000)"
fill="#000000" stroke="none">
<path d="M4862 9254 c-92 -185 -112 -321 -60 -419 57 -109 151 -170 408 -265
163 -60 315 -140 384 -202 133 -118 183 -263 140 -409 -43 -148 -126 -230
-399 -394 -188 -113 -242 -151 -319 -224 -152 -145 -222 -318 -195 -478 13
-76 60 -186 110 -259 64 -93 239 -261 239 -229 0 3 -18 34 -40 68 -21 35 -56
112 -77 172 -35 101 -38 119 -38 220 0 102 2 115 31 175 17 36 46 83 64 103
42 48 164 129 315 207 243 127 340 191 447 296 182 178 267 372 255 579 -13
219 -150 428 -371 570 -126 80 -214 109 -470 155 -187 34 -262 57 -312 95 -67
51 -97 153 -75 255 6 29 9 55 7 57 -3 3 -22 -30 -44 -73z"/>
<path d="M4676 8830 c-9 -29 -12 -80 -5 -80 4 0 10 -10 14 -22 13 -46 50 -111
89 -156 57 -63 134 -111 291 -177 74 -32 135 -61 135 -66 0 -16 -43 -27 -158
-43 -481 -67 -936 -241 -1350 -515 -173 -115 -260 -187 -433 -360 -335 -336
-570 -732 -714 -1206 -20 -66 -38 -131 -40 -145 -2 -14 -13 -80 -25 -147 -65
-385 -49 -753 51 -1163 134 -547 408 -1055 779 -1444 254 -266 625 -524 966
-670 214 -93 490 -169 734 -203 154 -21 593 -24 740 -5 877 116 1639 596 2136
1344 79 119 208 364 267 508 159 384 257 883 243 1230 -8 198 -27 343 -66 508
-101 433 -303 846 -580 1191 -98 122 -323 345 -450 447 -295 235 -713 458
-1017 542 l-73 20 0 -51 c0 -29 -3 -62 -6 -73 -5 -19 2 -24 63 -44 327 -108
652 -289 944 -523 321 -259 637 -681 810 -1082 182 -424 249 -820 208 -1231
-15 -151 -29 -215 -24 -109 5 102 0 84 -25 -90 -39 -269 -61 -352 -157 -595
-119 -300 -265 -553 -462 -799 -84 -106 -292 -319 -421 -430 -241 -208 -650
-425 -980 -520 -663 -190 -1374 -126 -1978 178 -287 145 -567 351 -748 551
-33 36 -62 67 -66 68 -5 2 -8 10 -8 18 0 8 -7 17 -15 20 -8 4 -15 11 -15 16 0
16 -71 98 -80 93 -5 -3 -12 0 -16 6 -4 8 -3 9 4 5 7 -4 12 -2 12 3 0 6 -6 11
-14 11 -28 0 -174 214 -286 420 -208 381 -320 758 -351 1180 -45 612 132 1215
514 1755 262 368 570 627 1014 849 294 147 569 238 898 297 136 24 508 38 535
20 31 -21 12 -24 -235 -36 -308 -15 -632 -86 -930 -202 -124 -49 -376 -172
-458 -225 -153 -97 -332 -228 -312 -228 2 0 51 33 107 73 94 66 223 147 234
147 15 0 -13 -22 -75 -59 -101 -60 -255 -177 -341 -260 -65 -63 -70 -70 -35
-50 22 12 44 26 50 31 5 4 16 8 25 8 9 0 25 8 36 18 58 53 393 256 542 328
413 200 839 305 1250 308 l154 1 23 -40 c14 -26 21 -54 20 -75 l-3 -35 21 40
c29 54 28 144 -1 205 -28 57 -101 141 -156 180 -66 45 -208 113 -346 165 -267
100 -377 187 -430 338 -11 30 -21 46 -24 37z m31 -826 c-3 -3 -12 -4 -19 -1
-8 3 -5 6 6 6 11 1 17 -2 13 -5z m-52 -14 c-11 -5 -27 -9 -35 -9 -9 0 -8 4 5
9 11 5 27 9 35 9 9 0 8 -4 -5 -9z m-55 -14 c0 -6 -123 -47 -127 -42 -2 2 22
13 54 24 62 22 73 24 73 18z m-245 -96 c-3 -5 -12 -10 -18 -10 -7 0 -6 4 3 10
19 12 23 12 15 0z m-145 -64 c0 -2 -7 -7 -16 -10 -8 -3 -12 -2 -9 4 6 10 25
14 25 6z m-54 -31 c-11 -8 -24 -15 -30 -15 -5 0 -1 7 10 15 10 8 24 14 29 14
6 0 1 -6 -9 -14z"/>
<path d="M6171 7950 c-7 -27 -10 -54 -6 -60 3 -5 22 -10 40 -10 96 0 456 -152
650 -275 227 -143 487 -370 615 -536 30 -39 69 -88 85 -108 17 -20 38 -48 47
-62 9 -13 17 -19 17 -13 1 6 -15 31 -34 55 -19 24 -35 48 -35 52 0 4 -5 13
-10 20 -48 56 -61 75 -66 92 -4 11 -19 32 -34 47 -16 14 -26 28 -24 31 6 5
-180 193 -224 227 -18 14 -79 61 -135 106 -105 83 -290 214 -303 214 -4 0 -37
19 -73 43 -36 23 -90 53 -118 66 -53 24 -75 49 -28 31 14 -5 25 -7 25 -4 0 17
-310 134 -355 134 -17 0 -24 -10 -34 -50z"/>
<path d="M5722 7389 c-24 -17 -120 -72 -215 -121 -186 -98 -279 -159 -322
-210 -32 -37 -19 -49 22 -20 16 11 102 63 193 117 173 102 255 158 330 224 54
48 51 51 -8 10z"/>
<path d="M5899 7116 c-14 -12 -89 -58 -165 -102 -99 -56 -159 -98 -208 -146
l-69 -67 5 -63 c12 -148 109 -251 281 -298 48 -13 63 -30 27 -30 -11 0 -20 -6
-20 -14 0 -13 33 -26 195 -73 11 -3 75 -32 142 -64 86 -41 135 -59 162 -59
105 0 32 55 -139 105 -76 22 -117 42 -205 100 -134 87 -178 135 -201 211 -34
117 -7 199 111 338 73 85 120 158 113 176 -2 5 -15 -2 -29 -14z m-29 -706 c20
-6 21 -8 5 -8 -11 0 -33 4 -50 8 -27 7 -27 8 -5 8 14 0 36 -4 50 -8z"/>
<path d="M2375 7019 c-4 -6 -5 -12 -2 -15 2 -3 7 2 10 11 7 17 1 20 -8 4z"/>
<path d="M2336 6943 c-6 -14 -5 -15 5 -6 7 7 10 15 7 18 -3 3 -9 -2 -12 -12z"/>
<path d="M2312 6895 c-17 -37 -14 -45 4 -12 9 16 14 31 11 33 -2 2 -9 -7 -15
-21z"/>
<path d="M7630 6861 c0 -6 4 -13 10 -16 6 -3 7 1 4 9 -7 18 -14 21 -14 7z"/>
<path d="M2285 6839 c-4 -6 -5 -12 -2 -15 2 -3 7 2 10 11 7 17 1 20 -8 4z"/>
<path d="M2232 6718 c-17 -40 -49 -125 -73 -188 -23 -63 -46 -116 -50 -118 -4
-2 -5 -10 -2 -19 3 -8 2 -18 -4 -22 -12 -8 -47 -115 -72 -221 -11 -47 -24
-103 -30 -125 -5 -22 -12 -61 -15 -87 -3 -26 -8 -58 -11 -70 -14 -57 -53 -495
-54 -610 -3 -209 33 -520 83 -733 75 -312 133 -487 244 -725 24 -52 48 -105
53 -117 4 -13 35 -67 67 -120 33 -54 61 -102 63 -108 5 -14 80 -141 102 -173
9 -15 20 -35 23 -44 4 -10 10 -18 15 -18 4 0 23 -25 41 -55 17 -30 34 -52 37
-50 2 3 15 -13 27 -35 25 -43 128 -184 157 -212 9 -10 17 -22 17 -27 0 -5 52
-62 115 -127 63 -65 115 -119 115 -121 0 -10 37 -43 47 -43 7 0 13 -4 13 -10
0 -5 7 -10 15 -10 8 0 19 -9 25 -20 6 -11 16 -20 22 -20 6 0 23 -12 37 -27 15
-16 38 -33 51 -39 25 -12 115 -76 159 -114 13 -11 44 -32 70 -47 65 -36 125
-77 129 -85 2 -5 10 -8 19 -8 8 0 27 -8 41 -19 15 -10 54 -31 87 -46 33 -15
67 -31 75 -36 8 -5 31 -16 50 -25 19 -8 44 -19 55 -24 11 -5 41 -16 67 -24 26
-9 56 -20 65 -25 33 -16 68 -29 108 -39 22 -6 79 -24 126 -41 143 -50 352 -93
609 -125 307 -40 822 -23 1100 35 198 42 527 144 657 205 18 8 50 21 70 28 21
8 61 26 88 41 28 15 88 48 135 73 96 50 399 249 445 291 17 15 68 57 115 93
110 85 324 297 425 421 100 123 137 183 60 97 -434 -483 -922 -809 -1490 -995
-43 -14 -80 -23 -82 -21 -2 2 33 16 79 31 135 44 228 83 240 100 4 5 8 7 8 3
0 -8 86 36 110 56 8 7 32 21 53 31 26 12 36 22 32 33 -4 12 -3 13 10 2 13 -11
14 -10 10 3 -4 8 -1 18 6 23 8 5 10 3 4 -7 -7 -11 -6 -12 7 -2 8 7 19 9 23 5
5 -4 5 -2 1 5 -4 7 13 24 44 44 27 18 50 34 50 36 0 2 -5 1 -12 -3 -7 -4 -8
-3 -4 4 4 7 16 12 27 12 10 0 19 4 19 9 0 12 68 54 86 54 8 0 12 2 9 5 -2 3
32 32 78 65 375 273 596 500 829 852 212 320 334 577 438 925 74 247 138 575
154 786 l6 81 -46 7 c-26 3 -102 6 -170 6 -143 0 -125 17 -144 -140 -61 -492
-269 -1027 -560 -1434 -154 -217 -363 -437 -576 -609 -118 -94 -143 -111 -128
-85 4 8 3 10 -2 5 -5 -5 -9 -14 -9 -20 0 -7 -10 -13 -23 -13 -13 -1 -31 -9
-40 -19 -16 -17 -16 -17 11 0 15 9 27 15 27 12 0 -7 -132 -95 -156 -103 -15
-6 -13 -2 6 15 l25 23 -25 -16 c-14 -9 -25 -21 -25 -27 0 -12 -175 -112 -182
-105 -3 3 13 14 36 26 23 11 41 23 41 25 0 3 -30 -10 -67 -29 -321 -160 -589
-243 -943 -290 -330 -43 -579 -42 -889 4 -284 42 -602 142 -830 261 -90 47
-123 65 -212 116 -84 49 -267 174 -304 208 -22 21 -66 62 -97 92 -32 30 -61
52 -66 49 -5 -3 -20 7 -33 22 l-24 27 30 -25 30 -25 -29 32 c-16 18 -33 30
-38 27 -5 -3 -7 -1 -6 4 2 5 -27 41 -64 81 -38 39 -68 67 -68 63 0 -4 18 -25
40 -47 46 -44 46 -54 1 -27 -17 10 -29 21 -26 24 3 3 -2 11 -12 19 -15 12 -16
12 -9 -1 4 -8 -13 8 -39 35 -98 105 -126 144 -64 90 122 -107 129 -106 31 4
-111 124 -176 211 -245 327 -56 94 -194 368 -267 529 -32 71 -97 258 -106 305
-18 96 -75 305 -83 308 -6 2 -11 16 -11 30 0 19 -3 23 -9 13 -8 -13 -27 97
-33 194 l-3 40 -194 2 c-106 1 -196 4 -199 7 -3 3 85 6 196 6 l202 0 0 30 0
30 -215 0 -215 0 0 83 c0 162 33 458 79 722 31 172 106 424 187 623 18 47 32
87 30 89 -2 2 -17 -29 -34 -69z m-243 -1599 c2 -90 13 -181 21 -168 4 6 6 -17
4 -52 -2 -35 2 -93 10 -129 8 -36 15 -58 15 -50 1 13 2 13 11 0 13 -20 13 -63
0 -55 -6 3 -7 -1 -4 -9 3 -9 10 -14 14 -11 5 3 11 1 15 -5 3 -5 0 -10 -8 -10
-13 0 -12 -13 4 -87 29 -133 68 -279 84 -316 7 -17 35 -88 60 -157 26 -69 55
-143 65 -165 29 -66 33 -94 5 -42 -50 92 -138 330 -205 552 -20 68 -63 278
-81 400 -20 132 -36 447 -20 390 5 -16 9 -55 10 -86z m88 -531 c-3 -7 -5 -2
-5 12 0 14 2 19 5 13 2 -7 2 -19 0 -25z m1258 -1348 c16 -17 16 -20 3 -15 -9
4 -19 13 -22 21 -7 19 -2 18 19 -6z m-30 -656 c176 -132 337 -235 480 -307
443 -222 810 -331 1266 -377 111 -11 220 -21 243 -21 22 -1 32 -4 22 -6 -26
-7 -313 14 -438 32 -361 51 -673 149 -1023 320 -196 96 -338 183 -502 306
-119 89 -369 309 -389 341 -4 7 53 -42 127 -108 74 -66 170 -147 214 -180z
m3420 76 c-3 -5 -12 -10 -18 -10 -7 0 -6 4 3 10 19 12 23 12 15 0z m-60 -30
c-3 -5 -12 -10 -18 -10 -7 0 -6 4 3 10 19 12 23 12 15 0z m-428 -666 c-3 -3
-12 -4 -19 -1 -8 3 -5 6 6 6 11 1 17 -2 13 -5z m-40 -10 c-3 -3 -12 -4 -19 -1
-8 3 -5 6 6 6 11 1 17 -2 13 -5z m-154 -31 c-7 -2 -19 -2 -25 0 -7 3 -2 5 12
5 14 0 19 -2 13 -5z m-216 -29 c-3 -3 -12 -4 -19 -1 -8 3 -5 6 6 6 11 1 17 -2
13 -5z"/>
<path d="M4754 6713 c33 -134 66 -201 99 -204 31 -2 -50 -17 -125 -24 -105 -8
-374 -41 -498 -61 -361 -58 -592 -155 -550 -233 6 -12 7 -21 1 -21 -5 0 -12 6
-14 13 -3 7 -6 5 -6 -5 -1 -10 -6 -18 -12 -18 -16 0 -3 -59 17 -81 28 -32 229
-90 424 -123 322 -55 376 -56 1285 -37 445 9 624 20 950 57 456 51 765 148
765 239 0 108 -487 230 -1085 271 l-100 6 24 -25 c13 -15 28 -24 32 -21 5 3 9
-1 9 -9 0 -30 117 -66 485 -148 194 -43 250 -63 252 -88 2 -22 -52 -41 -140
-49 -50 -4 -57 -3 -51 11 5 14 -5 13 -63 -7 -145 -51 -436 -71 -1023 -70 -551
1 -961 29 -1165 81 -39 9 -78 12 -112 8 -93 -11 -127 31 -50 65 137 60 756
141 832 110 28 -12 18 -15 -130 -36 -174 -24 -437 -73 -445 -81 -6 -7 186 4
220 12 41 11 335 16 361 7 13 -4 40 -6 59 -3 33 6 35 8 38 48 3 38 -1 47 -35
80 -102 101 -153 174 -219 311 -28 57 -40 67 -30 25z"/>
<path d="M5398 6639 c-14 -84 33 -200 106 -261 62 -53 127 -82 291 -132 81
-25 153 -50 161 -57 19 -15 18 1 -2 29 -20 28 -88 63 -209 106 -180 65 -305
182 -333 313 l-8 38 -6 -36z"/>
<path d="M7771 6645 c0 -5 6 -21 14 -35 8 -14 14 -20 14 -15 0 6 -6 21 -14 35
-8 14 -14 21 -14 15z"/>
<path d="M7806 6567 c3 -10 9 -15 12 -12 3 3 0 11 -7 18 -10 9 -11 8 -5 -6z"/>
<path d="M5310 6500 c-4 -80 3 -146 16 -172 25 -48 101 -95 218 -133 120 -39
193 -48 121 -16 -22 10 -73 34 -114 52 -116 53 -174 119 -222 254 l-18 50 -1
-35z"/>
<path d="M5127 6253 c-13 -12 -7 -19 19 -21 15 -1 32 -5 38 -10 7 -4 0 3 -14
15 -27 25 -33 27 -43 16z"/>
<path d="M3598 5878 c-4 -57 15 -222 40 -368 13 -71 55 -229 82 -305 12 -33
24 -69 26 -80 3 -11 12 -33 19 -50 35 -77 125 -289 125 -295 0 -10 97 -172
107 -179 9 -7 65 -89 73 -108 3 -6 36 -46 73 -87 61 -67 72 -76 104 -76 49 0
38 -20 -20 -37 -26 -7 -47 -15 -47 -18 0 -2 24 -2 53 0 l52 4 -55 -10 c-313
-57 -466 -97 -568 -147 -55 -27 -99 -70 -85 -83 8 -7 102 21 202 60 30 12 70
24 90 26 20 3 56 9 80 15 146 35 460 75 440 56 -2 -2 -62 -14 -133 -26 -127
-22 -253 -53 -265 -66 -3 -4 3 -4 14 -1 11 4 54 9 95 13 41 3 81 10 88 13 17
9 137 -6 177 -22 17 -6 36 -12 44 -14 20 -2 103 -45 119 -60 36 -34 180 -128
249 -162 55 -27 97 -41 143 -45 l65 -7 -59 25 c-216 91 -551 364 -764 621
-180 218 -363 573 -456 885 -52 176 -84 354 -88 493 -2 104 -15 124 -20 35z"/>
<path d="M3641 5833 c4 -60 11 -126 17 -148 6 -22 23 -98 37 -170 66 -324 217
-665 426 -959 67 -95 217 -256 237 -256 7 0 11 -3 10 -8 -4 -10 27 -41 97 -97
33 -26 65 -53 70 -60 6 -6 12 -12 15 -12 3 0 50 -29 105 -64 55 -36 114 -71
130 -79 17 -8 32 -18 35 -21 11 -14 68 -38 74 -31 4 4 12 -1 17 -10 5 -9 17
-14 28 -11 10 3 22 0 25 -6 4 -6 12 -11 17 -11 6 0 7 5 3 11 -4 7 -1 10 7 7 8
-3 13 -11 11 -17 -1 -7 2 -10 8 -6 6 4 38 -3 73 -14 106 -35 189 -44 350 -38
183 6 231 18 393 97 297 146 579 408 804 748 138 207 232 401 323 667 59 173
127 463 127 543 l0 22 -52 -26 c-213 -108 -594 -190 -1093 -236 -184 -17 -801
-17 -1010 0 -578 47 -955 124 -1185 243 -52 27 -97 49 -100 49 -3 0 -2 -48 1
-107z m674 -519 c20 -9 48 -33 63 -52 22 -30 27 -46 27 -96 0 -50 -5 -68 -28
-103 -38 -55 -84 -73 -187 -73 l-80 0 0 169 c0 153 2 170 18 175 33 10 151 -3
187 -20z m1352 -39 c1 -33 2 -64 2 -69 1 -6 6 -5 13 2 20 20 85 15 106 -8 19
-20 32 -95 32 -176 0 -30 -3 -34 -25 -34 -24 0 -25 2 -25 64 0 36 -4 76 -10
90 -12 34 -44 50 -70 36 -17 -9 -20 -21 -20 -78 0 -91 -7 -112 -36 -112 l-24
0 0 168 c0 93 3 172 7 176 4 4 16 6 28 4 17 -3 20 -11 22 -63z m-1049 -81 c19
-22 22 -36 22 -113 0 -80 -2 -89 -20 -94 -10 -3 -21 0 -23 6 -2 7 -15 6 -39
-2 -65 -21 -118 10 -118 70 0 34 14 45 75 60 28 6 55 13 62 15 20 5 2 44 -23
50 -13 3 -42 -1 -64 -10 -21 -8 -42 -12 -44 -7 -13 21 76 63 119 56 17 -3 40
-16 53 -31z m231 20 c30 -12 44 -13 60 -5 31 17 75 13 98 -9 23 -21 37 -95 31
-165 -2 -33 -7 -41 -25 -43 -22 -3 -23 -1 -23 74 0 81 -14 114 -50 114 -32 0
-40 -22 -40 -107 0 -82 0 -83 -25 -83 -25 0 -25 1 -25 80 0 68 -3 83 -21 101
-18 18 -23 19 -42 6 -18 -12 -22 -25 -25 -78 -3 -96 -8 -109 -38 -109 -22 0
-25 3 -20 23 3 12 6 64 6 116 l0 93 33 -6 c17 -3 39 -1 47 4 19 12 13 13 59
-6z m1719 7 c25 -15 9 -46 -24 -49 -40 -4 -54 -33 -54 -117 0 -58 -2 -65 -20
-65 -19 0 -20 7 -20 115 0 116 7 134 37 104 8 -8 17 -7 34 5 27 18 29 19 47 7z
m-1307 -20 c22 -17 24 -29 27 -115 l4 -96 -34 0 c-18 0 -51 -2 -73 -6 -55 -8
-95 22 -95 71 0 42 30 65 95 73 36 4 45 9 45 24 0 10 -11 23 -25 30 -19 9 -29
7 -50 -6 -29 -19 -55 -15 -55 9 0 36 121 48 161 16z m129 4 c0 -19 9 -19 34 0
27 21 69 19 97 -4 22 -17 24 -29 27 -115 l4 -96 -26 0 c-26 0 -26 0 -26 83 0
88 -8 107 -46 107 -42 0 -54 -25 -54 -111 0 -78 0 -79 -25 -79 l-25 0 0 115
c0 108 1 115 20 115 11 0 20 -7 20 -15z m679 -11 c65 -54 60 -162 -9 -196 -63
-32 -139 -17 -174 34 -32 46 -13 138 36 172 36 26 111 21 147 -10z m145 -11
c3 -21 6 -58 6 -82 0 -65 37 -98 80 -71 11 7 16 34 20 97 5 82 7 88 28 91 22
3 22 2 22 -117 0 -93 -3 -121 -13 -121 -7 0 -18 5 -23 10 -8 8 -19 7 -39 0
-40 -15 -91 4 -110 40 -10 19 -15 58 -15 110 0 71 2 80 19 80 14 0 20 -10 25
-37z m-834 -288 c0 -10 -10 -15 -34 -15 -26 0 -35 -5 -40 -22 -11 -43 -7 -48
34 -48 28 0 40 -4 40 -14 0 -16 -21 -26 -56 -26 -23 0 -24 -2 -24 -85 0 -78
-2 -85 -20 -85 -18 0 -20 7 -20 86 0 77 -2 86 -20 91 -20 5 -28 23 -10 23 6 0
17 18 26 40 9 22 26 47 37 55 29 20 87 20 87 0z m160 0 c0 -9 -9 -15 -25 -15
-20 0 -29 -8 -40 -32 -16 -40 -12 -48 26 -48 41 0 33 -24 -9 -28 l-32 -3 0
-85 c0 -77 -2 -84 -20 -84 -18 0 -20 7 -20 84 0 56 -4 86 -12 88 -15 5 28 114
51 128 26 16 81 12 81 -5z m-660 -8 c14 -7 26 -21 28 -31 3 -16 0 -18 -19 -11
-122 39 -197 -8 -186 -118 8 -90 87 -132 163 -88 27 16 40 19 48 11 8 -8 3
-18 -17 -36 -35 -30 -122 -34 -169 -6 -67 39 -94 145 -55 218 31 60 144 93
207 61z m260 -92 c38 -20 55 -70 41 -123 -14 -51 -40 -73 -93 -79 -124 -13
-187 135 -84 198 37 23 96 24 136 4z m569 -1 c21 -15 51 -70 51 -94 0 -6 -33
-10 -85 -10 -89 0 -100 -7 -68 -42 20 -22 64 -23 103 -3 41 21 52 -1 15 -33
-24 -21 -36 -23 -79 -19 -40 3 -55 11 -78 36 -48 53 -34 147 26 171 35 14 90
11 115 -6z m264 -4 c26 -20 53 -82 43 -98 -3 -5 -41 -7 -86 -4 -68 4 -80 2
-80 -11 0 -38 69 -58 126 -37 31 12 37 9 29 -13 -10 -24 -61 -40 -108 -34 -84
11 -127 103 -81 175 29 45 113 56 157 22z m-1572 -467 c13 -16 12 -17 -3 -4
-17 13 -22 21 -14 21 2 0 10 -8 17 -17z m499 -379 c0 -2 -9 0 -20 6 -11 6 -20
13 -20 16 0 2 9 0 20 -6 11 -6 20 -13 20 -16z"/>
<path d="M4165 5288 c-3 -8 -4 -68 -3 -134 l3 -119 42 -3 c80 -6 142 44 150
122 5 46 -19 94 -59 120 -35 22 -126 32 -133 14z"/>
<path d="M4531 5091 c-52 -14 -54 -71 -3 -71 33 0 65 30 60 57 -4 20 -21 25
-57 14z"/>
<path d="M5162 5084 c-42 -29 -17 -82 33 -70 28 7 51 46 42 70 -8 20 -46 20
-75 0z"/>
<path d="M5970 5182 c-33 -10 -50 -36 -50 -74 0 -49 14 -76 46 -88 73 -28 136
90 76 143 -20 17 -52 25 -72 19z"/>
<path d="M5025 4755 c-16 -15 -25 -36 -25 -55 0 -35 38 -80 68 -80 11 0 31 9
46 21 37 29 37 89 0 118 -35 27 -59 26 -89 -4z"/>
<path d="M5606 4755 c-27 -28 -18 -35 45 -35 l61 0 -14 23 c-19 28 -69 34 -92
12z"/>
<path d="M5855 4748 l-15 -23 61 -3 c34 -2 64 -1 67 2 3 3 -3 15 -13 26 -25
28 -79 27 -100 -2z"/>
<path d="M7330 5903 c-36 -7 -142 -57 -161 -75 -15 -15 -47 -153 -38 -163 3
-2 29 2 59 10 118 32 230 12 294 -52 114 -115 52 -317 -145 -469 -109 -83
-220 -134 -429 -196 -44 -13 -47 -16 -92 -108 -26 -52 -45 -96 -43 -98 7 -8
165 32 292 73 155 51 325 135 431 215 302 224 399 537 226 729 -95 106 -254
160 -394 134z"/>
<path d="M8082 5800 c0 -14 4 -36 8 -50 l8 -25 0 25 c0 14 -4 36 -8 50 l-8 25
0 -25z"/>
<path d="M8107 5670 c3 -30 9 -109 14 -175 l8 -120 -5 140 c-2 77 -9 156 -14
175 -8 29 -8 26 -3 -20z"/>
<path d="M7190 5599 c-78 -22 -86 -28 -103 -83 -25 -77 -23 -79 35 -50 62 32
157 42 212 24 42 -14 76 -59 76 -102 0 -40 17 -43 39 -7 74 121 -3 230 -159
228 -36 0 -81 -5 -100 -10z"/>
<path d="M8440 5245 l0 -25 210 0 210 0 0 25 0 25 -210 0 -210 0 0 -25z"/>
<path d="M7609 5023 c-13 -16 -12 -17 4 -4 16 13 21 21 13 21 -2 0 -10 -8 -17
-17z"/>
<path d="M7504 4946 c-105 -71 -240 -134 -390 -184 -117 -40 -300 -82 -351
-82 -28 0 -75 -44 -106 -98 -17 -31 -17 -32 0 -25 10 4 20 10 23 14 3 3 70 21
150 39 252 57 422 124 585 233 94 62 170 127 150 127 -5 0 0 7 11 15 44 33 3
11 -72 -39z"/>
<path d="M6392 4250 c-15 -20 -18 -30 -10 -30 32 -1 294 -41 386 -60 94 -19
306 -94 396 -140 42 -21 56 -19 56 10 0 55 -152 127 -380 179 -66 15 -397 71
-421 71 -3 0 -15 -13 -27 -30z"/>
<path d="M6275 4143 c-142 -131 -357 -267 -495 -314 -18 -6 -12 -7 19 -3 52 7
143 46 188 80 17 13 35 24 38 24 4 0 20 10 35 23 15 12 40 31 55 42 16 11 62
48 103 82 71 58 138 91 194 94 19 1 18 3 -7 9 -61 15 -79 10 -130 -37z"/>
<path d="M3784 4084 c-18 -9 -42 -26 -55 -40 -19 -21 -20 -24 -5 -24 9 0 15
-4 11 -9 -3 -5 -1 -12 4 -15 7 -5 22 -58 25 -89 1 -5 17 -24 36 -43 37 -37
116 -71 195 -84 28 -5 57 -11 65 -14 8 -3 31 -7 50 -10 19 -3 85 -15 145 -26
61 -12 144 -25 185 -30 276 -32 352 -40 488 -49 257 -18 680 -14 897 9 507 52
784 101 935 165 59 25 150 80 150 90 0 3 -17 -2 -37 -10 -144 -55 -475 -107
-998 -157 -173 -16 -790 -16 -965 1 -152 14 -393 44 -550 67 -231 35 -486 109
-539 157 l-24 22 12 -22 c6 -13 8 -23 4 -23 -29 1 -53 48 -45 88 3 16 16 29
38 38 19 8 34 16 34 19 0 9 -25 4 -56 -11z"/>
<path d="M3450 3989 c-96 -73 -106 -93 -74 -154 8 -16 10 -25 3 -18 -9 9 -15
9 -25 -2 -8 -7 -19 -15 -25 -17 -6 -2 -13 -33 -15 -68 -4 -62 -3 -66 24 -84
16 -10 33 -28 38 -40 5 -11 23 -25 39 -29 17 -5 54 -20 83 -33 29 -13 57 -24
63 -24 5 0 29 -9 51 -20 23 -11 48 -20 55 -20 7 0 21 -4 31 -10 18 -10 96 -39
197 -72 58 -19 143 -40 235 -58 25 -5 88 -19 140 -30 157 -34 250 -50 545 -92
131 -18 197 -21 520 -21 321 0 394 3 550 22 99 12 187 24 195 26 8 2 74 13
145 24 72 11 148 23 170 26 92 15 438 104 545 141 193 67 396 181 449 253 28
37 27 37 -62 -20 -110 -71 -354 -161 -602 -223 -216 -53 -432 -88 -760 -123
-242 -26 -961 -25 -1214 1 -310 31 -690 105 -876 169 -91 31 -227 88 -222 93
2 2 82 -23 178 -55 216 -73 389 -114 490 -115 43 -1 75 -4 73 -7 -1 -3 14 -6
34 -6 20 0 89 -3 152 -6 l115 -6 -60 14 -60 14 60 -5 c33 -3 63 -8 67 -10 8
-5 78 -9 441 -24 412 -17 879 11 1257 76 512 87 983 276 1016 408 11 47 -7 77
-75 123 -36 24 -68 43 -72 43 -4 0 -12 -20 -18 -45 -23 -90 -115 -158 -316
-230 -249 -90 -527 -146 -915 -182 -271 -25 -940 -25 -1215 0 -366 34 -745
105 -913 171 -67 27 -199 95 -270 140 -45 28 -81 88 -82 134 0 32 -17 27 -90
-29z m963 -546 c-7 -2 -19 -2 -25 0 -7 3 -2 5 12 5 14 0 19 -2 13 -5z m54 -9
c-3 -3 -12 -4 -19 -1 -8 3 -5 6 6 6 11 1 17 -2 13 -5z"/>
</g>
</svg>
