<?xml version="1.0" standalone="no"?>
<!DOCTYPE svg PUBLIC "-//W3C//DTD SVG 20010904//EN"
 "http://www.w3.org/TR/2001/REC-SVG-20010904/DTD/svg10.dtd">
<svg version="1.0" xmlns="http://www.w3.org/2000/svg"
 width="1080.000000pt" height="1080.000000pt" viewBox="0 0 1080.000000 1080.000000"
 preserveAspectRatio="xMidYMid meet">

<g transform="translate(0.000000,1080.000000) scale(0.100000,-0.100000)"
fill="#000000" stroke="none">
<path d="M2320 9919 c0 -5 5 -7 10 -4 6 3 10 8 10 11 0 2 -4 4 -10 4 -5 0 -10
-5 -10 -11z"/>
<path d="M1745 9910 c3 -5 14 -10 23 -10 15 0 15 2 2 10 -20 13 -33 13 -25 0z"/>
<path d="M1828 9790 c-73 -48 -96 -94 -79 -158 21 -75 82 -76 157 -4 45 43 49
52 52 97 2 40 -2 56 -18 73 -28 30 -58 28 -112 -8z"/>
<path d="M950 9720 c0 -5 5 -10 10 -10 6 0 10 5 10 10 0 6 -4 10 -10 10 -5 0
-10 -4 -10 -10z"/>
<path d="M5239 9689 c-1268 -57 -2381 -657 -3139 -1689 -30 -41 -57 -77 -60
-80 -4 -3 -48 -75 -99 -160 -160 -270 -320 -615 -404 -875 -74 -227 -156 -610
-182 -845 -48 -443 -22 -962 71 -1380 78 -353 189 -670 335 -962 32 -65 59
-120 59 -122 0 -3 -15 -2 -32 0 -53 8 -114 8 -126 0 -19 -12 -14 -33 10 -40
21 -6 22 -7 5 -17 -10 -6 -25 -8 -33 -5 -11 4 -14 1 -9 -12 3 -11 -1 -35 -10
-55 -8 -20 -12 -43 -9 -51 12 -31 124 -73 124 -47 0 5 9 13 21 16 15 5 17 10
9 20 -9 10 -4 15 20 20 16 4 28 11 24 16 -3 5 3 9 13 10 10 0 28 2 40 5 19 3
36 -16 114 -134 310 -465 661 -837 1064 -1129 575 -415 1219 -662 1930 -739
224 -25 703 -25 908 -1 283 34 501 81 752 164 573 188 1058 472 1515 886 495
450 885 1014 1105 1600 27 71 53 134 59 140 6 7 12 21 12 32 2 20 110 457 121
485 3 8 5 27 4 43 -2 15 2 27 8 27 6 0 11 -4 11 -10 0 -5 7 -10 16 -10 14 0
14 -3 4 -15 -9 -10 -9 -15 -1 -15 6 0 11 -7 11 -15 0 -9 8 -19 18 -22 9 -4 20
-11 24 -17 4 -6 29 -11 55 -11 61 0 91 31 99 102 5 41 2 54 -23 89 -71 104
-96 120 -131 87 -10 -10 -23 -19 -28 -20 -5 -1 -17 -5 -28 -9 -15 -6 -17 -3
-13 12 14 47 38 296 45 464 7 177 8 185 27 182 11 -2 27 -6 35 -9 8 -3 24 -7
35 -9 11 -2 47 -8 80 -14 33 -6 70 -11 83 -11 12 -1 22 -5 22 -11 0 -5 5 -6
10 -3 6 3 23 -3 39 -14 16 -12 35 -21 43 -21 8 0 23 -7 34 -15 10 -8 27 -15
37 -15 25 0 87 -30 110 -53 10 -10 23 -15 29 -11 7 5 8 3 4 -5 -9 -14 21 -40
47 -41 9 0 17 6 17 13 0 9 3 8 9 -2 5 -8 14 -10 21 -6 9 5 11 4 6 -3 -4 -7 -2
-12 3 -12 6 0 11 4 11 9 0 5 9 7 20 4 11 -3 17 -9 14 -14 -3 -5 5 -9 18 -10
99 -3 136 -2 152 5 15 7 17 6 11 -4 -6 -10 -4 -12 9 -7 10 4 22 7 27 7 6 0 7
5 4 10 -4 6 6 10 24 10 31 0 50 -15 29 -23 -7 -2 12 -2 42 1 33 2 80 -3 119
-13 35 -9 66 -14 68 -11 3 3 14 1 24 -5 18 -9 19 -4 19 90 l0 100 -60 13 c-39
8 -59 16 -56 24 3 7 -3 15 -12 18 -9 3 -27 10 -40 16 -15 6 -21 6 -17 0 3 -6
-2 -10 -12 -10 -11 0 -24 -5 -30 -11 -6 -6 -49 -13 -94 -15 -82 -3 -108 -16
-78 -35 12 -8 12 -10 0 -18 -15 -10 -41 -4 -41 9 0 5 -9 6 -20 3 -14 -4 -20 0
-20 11 0 9 -8 17 -17 17 -10 1 -4 5 12 9 17 4 22 8 13 9 -10 0 -18 7 -18 14
-1 23 -25 44 -60 51 -31 6 -33 5 -18 -7 16 -12 13 -14 -27 -13 -25 1 -40 3
-35 4 6 2 7 8 4 14 -4 5 -14 2 -25 -8 -13 -12 -27 -15 -51 -10 -41 8 -65 22
-55 33 4 4 17 2 27 -5 11 -7 20 -8 20 -3 0 12 -35 24 -80 26 -19 2 -46 7 -60
13 -22 9 -23 11 -5 13 11 1 26 2 32 3 17 1 17 21 0 21 -6 0 -26 4 -44 8 -25 7
-38 4 -60 -12 -24 -18 -33 -19 -65 -10 -21 5 -38 14 -38 20 0 5 -19 9 -42 8
-104 -2 -131 2 -164 28 -19 14 -34 29 -34 34 0 5 14 18 31 28 20 13 27 21 19
26 -7 4 -16 1 -21 -6 -7 -12 -11 -11 -25 3 -12 12 -19 44 -25 115 -8 108 -42
359 -63 466 -9 47 -10 67 -2 67 7 0 7 3 -1 8 -7 4 -21 44 -31 87 -11 44 -30
115 -43 158 -18 63 -20 83 -11 98 9 15 9 17 -2 13 -15 -6 -26 21 -92 208 -18
53 -59 151 -90 218 -65 144 -76 171 -66 167 4 -1 7 3 7 8 0 6 -6 10 -13 10 -7
0 -44 59 -83 130 -299 550 -775 1073 -1284 1409 -258 171 -451 277 -680 374
-399 169 -721 254 -1170 312 -70 9 -462 32 -475 28 -3 0 -80 -4 -171 -9z m537
-294 c469 -45 898 -167 1333 -380 457 -224 792 -479 1162 -886 520 -571 861
-1351 940 -2154 17 -174 14 -579 -5 -765 -71 -682 -254 -1207 -614 -1765 -346
-534 -939 -1068 -1499 -1349 -543 -271 -1060 -396 -1648 -396 -396 0 -733 46
-1104 151 -524 148 -1094 481 -1505 879 -555 538 -917 1162 -1100 1895 -32
127 -71 347 -88 495 -20 178 -17 778 5 946 33 251 74 444 138 649 149 477 380
915 685 1300 119 149 419 448 584 579 602 479 1281 742 2095 809 119 10 480 5
621 -8z m3783 -3668 l22 -24 -28 -1 c-23 0 -28 4 -29 24 -2 30 7 30 35 1z
m108 -33 c-3 -3 -12 -4 -19 -1 -8 3 -5 6 6 6 11 1 17 -2 13 -5z m228 -14 c3
-5 1 -10 -4 -10 -6 0 -11 5 -11 10 0 6 2 10 4 10 3 0 8 -4 11 -10z m373 -155
c-3 -3 -9 2 -12 12 -6 14 -5 15 5 6 7 -7 10 -15 7 -18z m49 -51 c-3 -3 -12 -4
-19 -1 -8 3 -5 6 6 6 11 1 17 -2 13 -5z m-843 -639 c3 -8 1 -15 -4 -15 -6 0
-10 7 -10 15 0 8 2 15 4 15 2 0 6 -7 10 -15z m-7789 -1415 c-3 -5 -11 -10 -16
-10 -6 0 -7 5 -4 10 3 6 11 10 16 10 6 0 7 -4 4 -10z m15 -30 c-11 -20 -40
-28 -40 -12 0 7 32 27 48 31 1 1 -2 -8 -8 -19z"/>
<path d="M5200 8993 c-58 -2 -109 -8 -114 -13 -5 -5 4 -24 24 -46 64 -73 63
-66 50 -483 -11 -338 -14 -378 -30 -395 -10 -10 -25 -16 -34 -13 -17 7 -205
257 -469 627 -151 210 -148 209 -262 170 -84 -29 -88 -34 -65 -81 23 -43 24
-23 -25 -539 -29 -305 -51 -439 -72 -447 -28 -11 -122 101 -353 417 -162 222
-176 248 -161 293 16 43 14 57 -8 57 -25 0 -168 -94 -209 -138 l-33 -35 29
-31 c28 -29 31 -40 52 -206 12 -96 31 -235 44 -307 12 -73 19 -133 15 -133 -4
0 -121 51 -260 113 -397 178 -385 176 -503 66 -42 -39 -76 -75 -76 -80 0 -5
13 -9 30 -9 45 0 92 -49 279 -290 292 -376 311 -402 311 -436 0 -18 -59 -18
-800 2 l-225 6 -17 -30 c-31 -53 -46 -29 223 -352 199 -239 325 -400 388 -493
29 -43 55 -77 57 -74 9 9 104 323 104 345 0 27 -14 28 -47 2 -14 -11 -31 -20
-38 -20 -16 0 -65 56 -65 74 0 14 146 275 165 294 14 16 94 8 120 -12 16 -11
16 -15 1 -50 -9 -21 -16 -42 -16 -47 0 -27 27 4 105 117 48 69 133 178 190
242 56 64 101 120 98 125 -2 4 -21 7 -42 7 -24 0 -48 8 -65 21 -26 20 -359
440 -353 445 1 2 61 -22 132 -53 140 -60 523 -189 533 -179 3 4 -4 34 -16 69
-23 68 -51 209 -82 417 -12 74 -23 144 -26 155 -8 30 20 -4 179 -218 117 -158
137 -190 131 -211 -3 -15 -10 -29 -15 -32 -14 -8 -11 -44 4 -44 7 0 62 27 122
61 146 81 225 120 313 154 39 16 72 32 72 37 0 5 -16 24 -35 42 -35 33 -35 34
-35 119 l0 86 58 17 c183 54 248 71 257 67 10 -4 80 -99 103 -140 10 -19 11
-32 2 -59 -7 -20 -9 -38 -6 -41 3 -3 63 4 133 15 70 12 189 25 263 28 74 4
141 11 147 16 10 8 6 18 -13 43 -13 18 -29 48 -35 66 -12 39 -1 549 11 549 9
0 172 -200 252 -310 81 -110 176 -257 209 -322 28 -55 30 -57 76 -63 55 -8
207 -51 337 -95 50 -16 93 -30 98 -30 14 0 9 28 -12 62 -34 56 -26 96 67 365
49 139 91 253 94 253 3 0 13 -36 22 -81 34 -172 121 -297 252 -359 36 -17 65
-37 65 -45 0 -16 -75 -175 -107 -227 -13 -21 -39 -45 -58 -55 -20 -11 -31 -23
-27 -29 12 -19 293 -156 308 -150 11 4 10 13 -6 48 -11 24 -20 54 -20 67 0 37
62 183 201 476 105 221 136 277 169 306 22 20 40 41 40 46 0 9 -174 96 -242
122 l-27 10 2 -72 c2 -67 -2 -79 -51 -188 -29 -64 -65 -130 -80 -148 l-27 -31
-52 24 c-61 29 -95 75 -124 165 -25 81 -49 229 -49 301 0 62 -22 114 -60 142
-28 20 -220 91 -227 84 -3 -3 0 -28 7 -56 7 -28 10 -68 6 -89 -5 -35 -203
-563 -249 -665 -28 -62 -68 -106 -97 -106 -22 0 -22 3 -16 68 3 37 10 222 16
412 6 190 13 359 15 376 3 17 20 45 40 64 19 19 35 39 35 46 0 14 -45 20 -202
30 -104 6 -108 5 -108 -15 0 -11 14 -41 31 -67 l32 -46 -5 -225 c-3 -123 -9
-228 -14 -233 -5 -5 -87 90 -189 218 -276 347 -323 402 -343 400 -9 -1 -64 -4
-122 -5z m-675 -515 c26 -40 70 -103 96 -139 41 -56 58 -89 46 -89 -1 0 -49
-13 -107 -30 -58 -16 -107 -30 -109 -30 -5 0 9 310 16 338 3 12 6 22 8 22 1 0
24 -33 50 -72z m-1527 -1643 c7 -5 -139 -255 -150 -255 -11 0 -233 240 -236
256 -3 14 19 15 190 8 106 -3 194 -8 196 -9z"/>
<path d="M7480 8200 c-171 -21 -346 -145 -425 -302 -72 -145 -87 -346 -33
-461 51 -108 181 -211 317 -251 215 -63 492 66 603 281 127 244 54 510 -182
662 -96 62 -178 83 -280 71z m242 -161 c52 -26 103 -82 116 -128 74 -244 -229
-571 -528 -571 -140 0 -195 101 -160 291 27 145 160 308 311 383 116 57 183
64 261 25z"/>
<path d="M7577 7862 c-97 -86 -181 -176 -248 -267 -46 -64 -86 -141 -77 -151
8 -7 100 40 179 92 75 49 131 117 182 219 27 55 67 162 67 182 0 11 -26 -7
-103 -75z"/>
<path d="M8242 7508 c-34 -75 -63 -96 -367 -264 -88 -49 -180 -107 -204 -129
-124 -113 -123 -311 2 -421 35 -31 103 -73 144 -89 1 0 -9 -25 -23 -54 -39
-81 -32 -159 24 -276 37 -76 47 -114 72 -255 16 -91 32 -173 35 -182 11 -27
23 -13 30 35 9 59 24 104 39 116 16 14 273 64 292 57 10 -4 14 -22 14 -64 0
-129 -11 -143 -219 -292 l-133 -95 6 -135 c4 -74 9 -137 12 -140 3 -3 15 6 25
20 66 83 102 121 202 211 164 149 149 143 210 78 63 -65 113 -91 189 -97 140
-11 234 97 259 299 15 116 -3 286 -52 479 -41 164 -53 179 -84 109 -25 -55
-59 -70 -277 -125 -375 -94 -440 -89 -504 41 -41 84 -25 154 47 207 14 11 106
43 205 72 98 30 222 68 275 85 119 39 157 41 198 11 18 -12 34 -20 37 -17 8 8
-120 350 -133 354 -6 2 -19 -11 -29 -29 -29 -59 -64 -98 -106 -119 -23 -12
-141 -57 -262 -101 -209 -75 -225 -79 -290 -76 -62 3 -71 7 -97 36 -39 43 -54
105 -39 155 14 48 54 86 134 128 34 17 150 81 258 141 108 60 205 110 215 110
10 1 33 -2 51 -6 17 -4 32 -4 32 0 0 4 -20 41 -44 83 -24 42 -55 100 -70 129
-14 28 -33 52 -41 52 -8 0 -23 -19 -33 -42z m459 -1390 c16 -31 6 -223 -15
-268 -30 -67 -72 -100 -127 -100 -44 0 -100 35 -110 70 -14 47 -42 260 -36
267 10 10 197 51 239 52 29 1 40 -4 49 -21z"/>
<path d="M5679 7500 c-110 -33 -258 -161 -305 -263 -53 -118 -53 -242 1 -352
37 -76 84 -125 208 -218 122 -91 181 -150 203 -203 17 -40 18 -109 3 -153 -18
-52 -2 -49 54 11 87 94 119 157 125 243 7 119 -10 146 -235 353 -139 127 -167
177 -168 292 0 94 31 165 106 245 53 56 54 59 8 45z"/>
<path d="M5157 7345 c-96 -36 -284 -201 -380 -336 -170 -240 -191 -490 -59
-708 55 -90 120 -162 275 -301 77 -69 157 -146 178 -172 80 -101 113 -218 89
-318 -7 -28 -9 -54 -6 -58 4 -3 39 28 79 69 149 154 179 308 95 479 -26 54
-62 96 -207 240 -259 257 -304 335 -304 520 1 203 75 378 231 543 30 31 53 57
51 56 -2 0 -21 -7 -42 -14z"/>
<path d="M6799 6911 c-64 -51 -16 -290 85 -425 13 -17 43 -68 65 -113 23 -45
47 -85 52 -89 19 -12 61 29 86 83 45 98 29 285 -34 392 -69 118 -199 196 -254
152z"/>
<path d="M6624 6858 c-55 -48 -74 -98 -74 -194 0 -171 88 -336 215 -403 86
-46 155 -37 155 19 0 37 -13 64 -90 181 -82 124 -101 180 -109 314 -6 110 -6
110 -33 113 -18 2 -37 -7 -64 -30z"/>
<path d="M4162 6323 c-18 -9 -51 -37 -73 -62 -95 -107 -139 -257 -118 -401 13
-92 44 -157 89 -187 52 -36 66 -31 80 30 7 28 40 115 73 192 58 134 61 144 65
237 5 115 -2 162 -29 189 -23 23 -43 24 -87 2z"/>
<path d="M4331 6331 c-11 -7 -11 -20 -2 -73 26 -149 9 -242 -73 -413 -30 -61
-57 -125 -60 -142 -23 -104 89 -95 202 15 137 133 174 383 79 527 -47 71 -111
109 -146 86z"/>
<path d="M2325 6266 c-123 -30 -225 -108 -275 -210 -46 -92 -69 -222 -77 -428
-7 -191 -6 -194 43 -162 22 15 56 16 377 5 412 -13 428 -15 458 -47 35 -37 47
-30 53 29 3 28 13 122 22 207 29 273 10 370 -93 474 -115 114 -340 173 -508
132z m233 -201 c118 -28 217 -96 248 -171 8 -18 14 -65 14 -103 0 -58 -4 -74
-23 -96 l-22 -27 -305 12 c-261 11 -307 15 -318 29 -10 12 -13 39 -9 102 7
145 63 220 187 253 71 19 149 19 228 1z"/>
<path d="M6053 6176 c-78 -37 -135 -95 -174 -178 -28 -62 -33 -84 -34 -148 0
-88 22 -143 66 -166 27 -14 29 -13 42 13 8 16 22 53 32 83 29 90 111 257 161
326 25 36 43 71 40 80 -8 22 -74 17 -133 -10z"/>
<path d="M6198 6105 c-78 -123 -85 -138 -142 -269 -72 -168 -72 -185 1 -171
48 9 132 93 171 172 63 124 77 260 33 315 l-19 22 -44 -69z"/>
<path d="M4730 5293 c-341 -14 -628 -65 -705 -127 -20 -16 -20 -16 6 -40 108
-96 939 -163 1715 -138 614 20 958 65 1041 136 23 20 25 26 14 39 -29 36 -177
76 -376 103 -197 26 -756 44 -705 23 8 -4 69 -12 135 -19 187 -18 441 -58 540
-85 l90 -24 -95 5 c-52 3 -180 13 -285 22 -276 24 -1080 24 -1365 -1 -113 -9
-241 -19 -285 -22 l-80 -4 57 19 c92 31 188 48 423 76 121 14 229 30 240 34
19 8 -196 10 -365 3z"/>
<path d="M2845 5201 c-67 -40 -109 -109 -124 -201 -16 -98 14 -213 66 -247 19
-13 23 -10 57 37 52 73 94 158 107 220 16 74 6 156 -22 186 -27 29 -44 30 -84
5z"/>
<path d="M2987 5168 c4 -18 8 -71 7 -118 0 -96 -20 -151 -93 -259 -46 -68 -48
-76 -22 -90 26 -14 74 3 134 48 35 26 57 54 80 101 29 58 32 73 32 155 0 77
-4 96 -24 128 -25 40 -66 67 -101 67 -19 0 -21 -3 -13 -32z"/>
<path d="M2138 5033 c-57 -36 -66 -116 -17 -157 68 -58 169 -10 169 80 0 16
-12 38 -34 60 -38 38 -75 44 -118 17z"/>
<path d="M7919 5021 c-56 -56 -29 -153 47 -167 101 -19 165 94 93 165 -42 43
-98 43 -140 2z"/>
<path d="M8643 5036 c-92 -41 -70 -186 29 -186 93 0 141 94 81 159 -34 37 -68
45 -110 27z"/>
<path d="M3615 5011 c-219 -57 -338 -273 -279 -505 8 -33 37 -106 63 -162 143
-301 409 -568 718 -722 186 -93 308 -125 473 -126 110 -1 130 2 170 21 l45 23
40 -28 c77 -55 188 -115 269 -144 279 -102 523 -71 811 103 l109 67 46 -21
c60 -27 243 -29 340 -3 289 76 591 264 794 493 187 212 307 475 293 643 -15
183 -141 322 -326 361 -85 17 -319 6 -416 -20 -274 -74 -717 -111 -1344 -111
-635 0 -1048 34 -1346 111 -61 16 -121 21 -255 24 -96 2 -188 1 -205 -4z m353
-207 c42 -9 78 -17 80 -19 2 -2 34 -79 71 -172 137 -342 293 -611 497 -861 15
-18 24 -35 20 -39 -22 -22 -292 55 -421 119 -264 133 -528 397 -628 631 -70
161 -23 317 106 347 56 14 195 11 275 -6z m3175 4 c54 -16 112 -73 126 -123
44 -160 -59 -367 -297 -596 -167 -162 -324 -257 -541 -329 -108 -36 -241 -61
-241 -46 0 4 27 40 61 79 181 214 361 537 478 859 24 64 50 123 58 130 38 32
279 49 356 26z m-2484 -136 c11 -21 36 -90 56 -153 78 -242 119 -336 210 -474
70 -108 139 -193 238 -293 77 -79 80 -83 42 -65 -382 173 -659 579 -632 927 9
120 43 143 86 58z"/>
<path d="M2842 4091 c-10 -6 -8 -24 10 -87 31 -112 29 -221 -6 -339 -25 -83
-26 -90 -10 -102 13 -10 24 -9 53 3 51 22 78 50 113 122 28 56 32 75 32 146 1
73 -3 90 -29 142 -22 43 -43 68 -79 92 -51 34 -63 37 -84 23z"/>
<path d="M7905 4074 c-47 -24 -72 -52 -95 -107 -19 -43 -22 -65 -18 -147 3
-84 7 -102 34 -150 39 -68 91 -111 135 -113 32 -2 34 0 33 28 -1 17 -11 68
-24 115 -26 96 -24 196 6 305 15 56 15 60 -2 72 -23 17 -32 16 -69 -3z"/>
<path d="M2685 4049 c-58 -51 -78 -100 -83 -204 -6 -138 25 -219 101 -260 49
-27 67 -15 90 61 30 99 40 203 27 286 -22 144 -63 180 -135 117z"/>
<path d="M8025 4023 c-46 -135 -18 -409 47 -444 28 -15 77 17 113 76 28 46 30
54 30 154 0 91 -3 113 -24 154 -26 53 -90 107 -127 107 -17 0 -26 -10 -39 -47z"/>
<path d="M7185 3584 c-22 -20 -146 -113 -275 -206 -129 -94 -240 -177 -247
-185 -19 -25 -4 -43 36 -43 51 0 77 -30 206 -240 166 -271 218 -379 214 -452
-2 -26 0 -50 3 -54 10 -9 153 79 413 255 290 195 274 184 275 198 0 7 -30 53
-66 103 -51 68 -72 90 -90 90 -32 0 -37 -14 -24 -70 18 -76 -1 -104 -137 -207
-137 -102 -162 -116 -180 -102 -15 13 -167 259 -162 263 25 22 239 136 264
140 22 5 35 13 35 23 0 18 -118 180 -136 187 -27 10 -44 -24 -44 -86 0 -57 -2
-62 -37 -95 -39 -36 -117 -93 -127 -93 -8 0 -166 239 -166 250 0 12 196 139
259 168 54 25 69 24 138 -4 7 -3 16 1 19 9 7 19 -97 187 -116 186 -8 0 -33
-16 -55 -35z"/>
<path d="M3581 3530 c-174 -41 -337 -204 -397 -397 -23 -71 -26 -96 -22 -180
3 -86 8 -106 37 -166 86 -173 292 -304 464 -295 75 3 183 45 194 74 7 18 -2
54 -20 78 -14 19 -15 19 -63 -4 -68 -32 -174 -38 -245 -15 -70 24 -149 101
-172 169 -33 97 -17 217 48 353 67 142 187 233 308 233 68 0 110 -16 161 -60
57 -51 79 -102 74 -173 -4 -55 -3 -59 19 -68 14 -5 32 -9 42 -9 25 0 101 79
101 106 0 27 -106 188 -151 230 -118 109 -253 154 -378 124z"/>
<path d="M6518 3160 c-20 -12 -323 -121 -500 -179 -82 -27 -128 -48 -128 -57
0 -7 13 -23 29 -35 39 -28 58 -75 125 -304 113 -390 127 -465 93 -503 -20 -22
-22 -42 -3 -42 36 0 716 213 767 241 16 8 14 17 -18 101 -51 138 -61 158 -77
158 -23 0 -31 -20 -31 -77 0 -91 -40 -124 -235 -193 -130 -46 -154 -49 -174
-17 -22 34 -89 268 -79 277 9 9 122 45 173 56 19 4 56 7 83 6 26 -1 47 2 47 8
0 20 -62 200 -71 206 -22 13 -49 -8 -55 -44 -4 -20 -10 -44 -15 -54 -10 -19
-74 -51 -142 -72 -57 -17 -48 -30 -103 152 -23 75 -34 126 -28 132 5 5 62 25
127 44 151 46 208 47 264 7 66 -48 72 -30 32 91 -35 103 -47 118 -81 98z"/>
<path d="M4355 3088 c-224 -42 -385 -250 -385 -496 0 -175 68 -309 204 -407
76 -54 129 -77 223 -99 199 -45 403 6 532 133 165 163 203 434 87 615 -73 115
-233 220 -381 251 -78 16 -204 18 -280 3z m311 -99 c121 -46 205 -163 224
-315 22 -171 -35 -332 -152 -427 -93 -76 -206 -109 -300 -87 -214 51 -326 232
-289 470 45 293 272 450 517 359z"/>
<path d="M4576 2893 c-83 -164 -154 -629 -92 -610 18 5 103 138 126 197 28 71
36 194 21 313 -19 139 -27 154 -55 100z"/>
<path d="M5785 2944 c-89 -14 -564 -54 -642 -54 -31 0 -30 -27 3 -61 14 -15
30 -44 34 -65 5 -22 12 -190 16 -374 6 -295 5 -339 -9 -366 -9 -17 -23 -36
-31 -43 -40 -33 -20 -38 147 -33 89 2 166 8 171 13 6 5 0 20 -16 36 -42 44
-48 74 -48 249 l0 164 104 0 c98 0 107 -2 132 -25 15 -14 38 -25 52 -25 l25 0
-6 126 c-3 69 -9 130 -15 136 -17 17 -52 -2 -70 -39 -26 -55 -60 -75 -144 -83
-40 -4 -76 -5 -80 -3 -5 2 -8 71 -8 153 l0 149 33 5 c71 11 235 15 277 7 35
-7 53 -19 80 -50 57 -65 64 -58 57 60 -6 90 -17 132 -36 128 -3 -1 -15 -3 -26
-5z"/>
<path d="M2410 9509 c0 -5 5 -7 10 -4 6 3 10 8 10 11 0 2 -4 4 -10 4 -5 0 -10
-5 -10 -11z"/>
<path d="M790 9500 c0 -5 5 -10 11 -10 5 0 7 5 4 10 -3 6 -8 10 -11 10 -2 0
-4 -4 -4 -10z"/>
<path d="M890 9501 c0 -9 30 -24 36 -18 2 1 -6 8 -16 15 -11 7 -20 8 -20 3z"/>
<path d="M2610 9490 c19 -13 30 -13 30 0 0 6 -10 10 -22 10 -19 0 -20 -2 -8
-10z"/>
<path d="M775 9410 c-3 -5 1 -10 9 -10 9 0 16 5 16 10 0 6 -4 10 -9 10 -6 0
-13 -4 -16 -10z"/>
<path d="M960 9381 l-35 -7 32 -8 c18 -4 37 -5 43 -1 12 7 14 26 3 24 -5 -1
-24 -5 -43 -8z"/>
<path d="M380 9370 c-9 -6 -10 -10 -3 -10 6 0 15 5 18 10 8 12 4 12 -15 0z"/>
<path d="M1487 9339 c8 -8 16 -8 30 0 16 9 14 10 -11 11 -22 0 -27 -3 -19 -11z"/>
<path d="M1380 9330 c0 -5 5 -10 10 -10 6 0 10 5 10 10 0 6 -4 10 -10 10 -5 0
-10 -4 -10 -10z"/>
<path d="M1640 9310 c0 -5 5 -10 10 -10 6 0 10 5 10 10 0 6 -4 10 -10 10 -5 0
-10 -4 -10 -10z"/>
<path d="M637 9292 c-44 -9 14 -60 76 -66 32 -4 34 3 7 32 -11 12 -20 25 -20
29 0 8 -33 11 -63 5z"/>
<path d="M2410 9276 c0 -2 7 -6 15 -10 8 -3 15 -1 15 4 0 6 -7 10 -15 10 -8 0
-15 -2 -15 -4z"/>
<path d="M590 9241 c0 -22 15 -35 30 -26 7 4 7 13 0 26 -14 25 -30 25 -30 0z"/>
<path d="M2620 9245 c0 -8 4 -15 10 -15 5 0 7 7 4 15 -4 8 -8 15 -10 15 -2 0
-4 -7 -4 -15z"/>
<path d="M950 9241 c0 -5 7 -11 14 -14 10 -4 13 -1 9 9 -6 15 -23 19 -23 5z"/>
<path d="M526 9232 c-3 -6 8 -15 25 -21 27 -9 30 -8 27 7 -4 19 -43 29 -52 14z"/>
<path d="M640 9187 c0 -16 7 -30 15 -34 25 -9 26 0 5 32 l-20 30 0 -28z"/>
<path d="M1880 9144 c-14 -7 -20 -14 -13 -14 7 0 21 -10 33 -22 16 -17 20 -18
20 -6 0 9 -7 19 -16 22 -13 5 -14 9 -4 21 15 18 13 18 -20 -1z"/>
<path d="M2450 9150 c0 -5 5 -10 10 -10 6 0 10 5 10 10 0 6 -4 10 -10 10 -5 0
-10 -4 -10 -10z"/>
<path d="M482 9138 c2 -6 10 -14 16 -16 7 -2 10 2 6 12 -7 18 -28 22 -22 4z"/>
<path d="M550 9131 c0 -11 4 -22 9 -25 12 -8 34 21 26 34 -11 17 -35 11 -35
-9z"/>
<path d="M695 9120 c3 -5 8 -10 11 -10 2 0 4 5 4 10 0 6 -5 10 -11 10 -5 0 -7
-4 -4 -10z"/>
<path d="M425 9110 c-7 -11 20 -60 33 -60 15 0 27 16 27 35 0 11 -4 23 -10 27
-15 11 -43 10 -50 -2z"/>
<path d="M790 9100 c0 -5 5 -10 10 -10 6 0 10 5 10 10 0 6 -4 10 -10 10 -5 0
-10 -4 -10 -10z"/>
<path d="M637 9084 c-13 -13 -7 -24 14 -24 11 0 19 5 17 12 -5 14 -22 21 -31
12z"/>
<path d="M1530 9041 c0 -5 -8 -12 -17 -14 -14 -4 -12 -5 5 -6 13 -1 22 5 22
14 0 8 -2 15 -5 15 -3 0 -5 -4 -5 -9z"/>
<path d="M1850 8980 c0 -5 5 -10 11 -10 5 0 7 5 4 10 -3 6 -8 10 -11 10 -2 0
-4 -4 -4 -10z"/>
<path d="M1765 8970 c-3 -5 -3 -10 2 -10 4 0 19 -3 33 -6 24 -6 25 -6 5 9 -24
19 -32 21 -40 7z"/>
<path d="M560 8960 c0 -5 5 -10 10 -10 6 0 10 5 10 10 0 6 -4 10 -10 10 -5 0
-10 -4 -10 -10z"/>
<path d="M375 8937 c-17 -13 -16 -14 15 -20 39 -8 55 0 39 19 -14 18 -30 18
-54 1z"/>
<path d="M1940 8922 c0 -11 22 -32 32 -32 5 0 4 9 -2 20 -11 20 -30 28 -30 12z"/>
<path d="M490 8911 c0 -5 5 -13 10 -16 6 -3 10 -2 10 4 0 5 -4 13 -10 16 -5 3
-10 2 -10 -4z"/>
<path d="M1370 8910 c0 -5 5 -10 11 -10 5 0 7 5 4 10 -3 6 -8 10 -11 10 -2 0
-4 -4 -4 -10z"/>
<path d="M1816 8912 c-3 -6 -1 -14 5 -17 15 -10 25 3 12 16 -7 7 -13 7 -17 1z"/>
<path d="M1490 8890 c0 -5 4 -10 9 -10 6 0 13 5 16 10 3 6 -1 10 -9 10 -9 0
-16 -4 -16 -10z"/>
<path d="M1731 8891 c-8 -5 -9 -11 -3 -15 14 -8 43 4 36 15 -7 11 -15 11 -33
0z"/>
<path d="M600 8880 c-11 -7 -9 -11 14 -20 16 -6 34 -9 40 -6 6 2 5 5 -3 5 -8
1 -19 8 -25 16 -7 10 -16 12 -26 5z"/>
<path d="M434 8864 c3 -9 6 -18 6 -20 0 -2 5 -4 11 -4 8 0 8 4 0 14 -10 11 -8
15 6 19 14 4 12 5 -6 6 -17 1 -22 -3 -17 -15z"/>
<path d="M1605 8870 c3 -5 8 -10 11 -10 2 0 4 5 4 10 0 6 -5 10 -11 10 -5 0
-7 -4 -4 -10z"/>
<path d="M676 8822 c-3 -5 1 -15 9 -22 15 -12 35 -6 35 11 0 6 -5 7 -11 3 -6
-3 -15 -1 -19 6 -5 7 -10 8 -14 2z"/>
<path d="M488 8813 c-10 -2 -18 -9 -18 -15 0 -5 7 -7 16 -4 9 3 20 6 25 6 5 0
9 5 9 10 0 10 -3 11 -32 3z"/>
<path d="M1800 8801 c0 -6 4 -13 10 -16 6 -3 7 1 4 9 -7 18 -14 21 -14 7z"/>
<path d="M600 8782 c0 -6 9 -12 20 -15 11 -3 20 -3 20 -1 0 2 -9 8 -20 14 -11
6 -20 7 -20 2z"/>
<path d="M415 8740 c3 -5 14 -10 23 -10 15 0 15 2 2 10 -20 13 -33 13 -25 0z"/>
<path d="M775 8710 c-3 -5 1 -10 9 -10 9 0 16 5 16 10 0 6 -4 10 -9 10 -6 0
-13 -4 -16 -10z"/>
<path d="M1510 8625 c0 -8 7 -15 15 -15 9 0 12 6 9 15 -4 8 -10 15 -15 15 -5
0 -9 -7 -9 -15z"/>
<path d="M1757 8621 c-3 -11 -2 -22 1 -25 7 -8 31 27 26 36 -9 14 -22 8 -27
-11z"/>
<path d="M277 8609 c7 -7 15 -10 18 -7 3 3 -2 9 -12 12 -14 6 -15 5 -6 -5z"/>
<path d="M770 8580 c0 -5 5 -10 11 -10 5 0 7 5 4 10 -3 6 -8 10 -11 10 -2 0
-4 -4 -4 -10z"/>
<path d="M765 8410 c3 -5 8 -10 11 -10 2 0 4 5 4 10 0 6 -5 10 -11 10 -5 0 -7
-4 -4 -10z"/>
<path d="M230 8372 c0 -12 19 -26 26 -19 2 2 -2 10 -11 17 -9 8 -15 8 -15 2z"/>
<path d="M10085 8200 c3 -5 8 -10 11 -10 2 0 4 5 4 10 0 6 -5 10 -11 10 -5 0
-7 -4 -4 -10z"/>
<path d="M280 8165 c0 -8 5 -15 10 -15 6 0 10 7 10 15 0 8 -4 15 -10 15 -5 0
-10 -7 -10 -15z"/>
<path d="M22 8115 c-10 -12 -9 -16 7 -25 22 -11 34 0 25 24 -7 19 -15 20 -32
1z"/>
<path d="M566 8061 c-4 -5 0 -12 6 -14 8 -4 7 -6 -3 -6 -9 -1 -19 -8 -22 -16
-7 -17 9 -30 18 -15 3 5 16 10 28 11 12 0 16 3 10 6 -7 2 -13 13 -13 24 0 20
-15 26 -24 10z"/>
<path d="M850 8050 c0 -5 5 -10 10 -10 6 0 10 5 10 10 0 6 -4 10 -10 10 -5 0
-10 -4 -10 -10z"/>
<path d="M440 7965 c0 -17 2 -18 24 -9 18 7 12 24 -10 24 -8 0 -14 -7 -14 -15z"/>
<path d="M1985 7950 c3 -5 10 -10 16 -10 5 0 9 5 9 10 0 6 -7 10 -16 10 -8 0
-12 -4 -9 -10z"/>
<path d="M60 7880 c0 -5 5 -10 11 -10 5 0 7 5 4 10 -3 6 -8 10 -11 10 -2 0 -4
-4 -4 -10z"/>
<path d="M10613 7853 c-16 -6 -17 -23 -2 -23 6 0 17 7 25 15 16 16 4 20 -23 8z"/>
<path d="M890 7822 c0 -5 9 -12 21 -15 13 -3 19 -1 16 6 -5 15 -37 22 -37 9z"/>
<path d="M10087 7794 c-10 -10 -9 -36 1 -30 5 3 15 -6 22 -19 13 -25 44 -33
55 -15 3 5 -5 12 -18 15 -13 4 -30 17 -38 31 -8 13 -18 21 -22 18z"/>
<path d="M10735 7760 c3 -5 8 -10 11 -10 2 0 4 5 4 10 0 6 -5 10 -11 10 -5 0
-7 -4 -4 -10z"/>
<path d="M10293 7743 c-19 -7 -16 -17 12 -47 30 -32 38 -33 55 -1 11 20 11 27
0 40 -12 15 -42 19 -67 8z"/>
<path d="M10718 7723 c7 -3 16 -2 19 1 4 3 -2 6 -13 5 -11 0 -14 -3 -6 -6z"/>
<path d="M9860 7640 c-15 -3 -20 -9 -13 -13 6 -4 21 -3 34 1 29 11 12 21 -21
12z"/>
<path d="M10335 7633 c-10 -9 -13 -19 -7 -25 11 -11 39 -1 46 17 7 20 -21 26
-39 8z"/>
<path d="M10516 7634 c-4 -11 1 -25 14 -38 l21 -21 -9 25 c-5 14 -10 29 -10
33 -1 17 -10 17 -16 1z"/>
<path d="M10082 7553 c2 -10 10 -18 18 -18 22 0 18 29 -3 33 -14 3 -18 -1 -15
-15z"/>
<path d="M750 7490 c0 -5 7 -10 15 -10 8 0 15 5 15 10 0 6 -7 10 -15 10 -8 0
-15 -4 -15 -10z"/>
<path d="M26 7475 c4 -8 13 -15 21 -15 13 0 13 3 3 15 -7 8 -16 15 -21 15 -5
0 -6 -7 -3 -15z"/>
<path d="M10248 7438 c7 -7 12 -16 12 -20 0 -12 -35 -9 -48 4 -7 7 -12 8 -12
3 0 -5 12 -19 28 -32 21 -18 23 -22 10 -23 -25 0 -22 -14 8 -47 16 -18 24 -22
20 -10 -6 20 5 22 22 5 9 -9 12 -9 12 0 0 7 8 12 18 12 19 0 62 39 62 56 0 11
-47 34 -70 34 -9 0 -25 7 -36 15 -23 17 -43 20 -26 3z m55 -99 c-8 -8 -16 -8
-30 0 -16 9 -14 10 12 11 21 0 26 -3 18 -11z"/>
<path d="M10397 7424 c6 -15 23 -19 23 -5 0 5 -7 11 -14 14 -10 4 -13 1 -9 -9z"/>
<path d="M10439 7407 c5 -12 12 -22 17 -23 5 0 24 -4 41 -8 41 -9 70 13 54 41
-10 17 -10 17 -11 1 0 -22 -43 -24 -82 -4 -25 14 -26 13 -19 -7z"/>
<path d="M9505 7410 c4 -6 11 -8 16 -5 14 9 11 15 -7 15 -8 0 -12 -5 -9 -10z"/>
<path d="M265 7380 c-3 -5 1 -10 10 -10 9 0 13 5 10 10 -3 6 -8 10 -10 10 -2
0 -7 -4 -10 -10z"/>
<path d="M10724 7325 c10 -7 15 -18 11 -24 -3 -7 0 -8 9 -5 12 5 13 9 3 25 -6
10 -19 19 -27 19 -12 -1 -11 -4 4 -15z"/>
<path d="M9820 7309 c0 -5 5 -7 10 -4 6 3 10 8 10 11 0 2 -4 4 -10 4 -5 0 -10
-5 -10 -11z"/>
<path d="M9430 7260 c0 -5 5 -10 11 -10 5 0 7 5 4 10 -3 6 -8 10 -11 10 -2 0
-4 -4 -4 -10z"/>
<path d="M1522 7195 c-15 -32 -15 -35 -1 -35 14 0 38 30 39 48 0 22 -26 13
-38 -13z"/>
<path d="M9750 7200 c0 -6 7 -10 15 -10 8 0 15 2 15 4 0 2 -7 6 -15 10 -8 3
-15 1 -15 -4z"/>
<path d="M10455 7200 c3 -5 8 -10 11 -10 2 0 4 5 4 10 0 6 -5 10 -11 10 -5 0
-7 -4 -4 -10z"/>
<path d="M9675 7190 c-10 -16 4 -30 30 -30 13 0 27 5 30 10 3 6 -3 10 -14 10
-12 0 -21 5 -21 10 0 6 -4 10 -9 10 -6 0 -13 -4 -16 -10z"/>
<path d="M9393 7171 c-34 -17 -41 -29 -20 -35 47 -15 49 -16 38 -30 -10 -11
-7 -14 12 -12 20 1 22 4 13 18 -5 9 -7 21 -3 25 5 4 12 1 17 -7 6 -8 10 -10
10 -4 0 7 9 14 21 17 23 6 17 27 -7 27 -8 0 -14 5 -14 10 0 14 -29 10 -67 -9z"/>
<path d="M10438 7173 c7 -3 16 -2 19 1 4 3 -2 6 -13 5 -11 0 -14 -3 -6 -6z"/>
<path d="M10650 7160 c0 -6 7 -10 15 -10 8 0 15 2 15 4 0 2 -7 6 -15 10 -8 3
-15 1 -15 -4z"/>
<path d="M320 7150 c0 -5 5 -10 11 -10 5 0 7 5 4 10 -3 6 -8 10 -11 10 -2 0
-4 -4 -4 -10z"/>
<path d="M10185 7140 c4 -6 11 -8 16 -5 14 9 11 15 -7 15 -8 0 -12 -5 -9 -10z"/>
<path d="M1529 7138 c-4 -12 -5 -66 -1 -75 7 -21 39 -15 45 9 6 23 -16 68 -33
68 -6 0 -10 -1 -11 -2z"/>
<path d="M378 7118 c12 -6 22 -15 22 -20 0 -5 5 -6 11 -3 13 8 -19 35 -41 34
-9 0 -6 -5 8 -11z"/>
<path d="M426 7121 c5 -5 20 -12 34 -16 24 -7 24 -7 5 9 -21 16 -56 23 -39 7z"/>
<path d="M10780 7103 c0 -13 5 -23 10 -23 13 0 13 11 0 30 -8 12 -10 11 -10
-7z"/>
<path d="M10575 7100 c3 -5 8 -10 11 -10 2 0 4 5 4 10 0 6 -5 10 -11 10 -5 0
-7 -4 -4 -10z"/>
<path d="M600 7080 c8 -5 20 -10 25 -10 6 0 3 5 -5 10 -8 5 -19 10 -25 10 -5
0 -3 -5 5 -10z"/>
<path d="M9647 7065 c-10 -7 -27 -11 -37 -8 -11 3 -20 0 -20 -6 0 -6 -6 -11
-13 -11 -18 0 -67 -24 -67 -32 0 -5 5 -8 11 -8 7 0 9 -9 6 -21 -4 -13 2 -29
14 -42 18 -19 24 -15 21 14 -1 9 81 53 102 54 10 1 24 9 31 18 7 10 18 17 26
17 17 0 2 13 -31 27 -20 8 -30 8 -43 -2z"/>
<path d="M10587 7046 c-4 -10 -1 -13 9 -9 15 6 19 23 5 23 -5 0 -11 -7 -14
-14z"/>
<path d="M10730 7010 c-9 -6 -10 -10 -3 -10 6 0 15 5 18 10 8 12 4 12 -15 0z"/>
<path d="M23 6975 c0 -8 4 -15 9 -15 4 0 8 7 8 15 0 8 -4 15 -8 15 -5 0 -9 -7
-9 -15z"/>
<path d="M10404 6975 c-18 -14 -18 -14 4 -8 12 3 22 9 22 14 0 12 -3 11 -26
-6z"/>
<path d="M10655 6930 c10 -11 28 -19 39 -19 19 2 19 2 -2 6 -15 3 -22 10 -18
19 4 9 -2 14 -16 14 -20 0 -21 -1 -3 -20z"/>
<path d="M10150 6921 c0 -6 4 -13 10 -16 6 -3 7 1 4 9 -7 18 -14 21 -14 7z"/>
<path d="M375 6910 c3 -5 8 -10 11 -10 2 0 4 5 4 10 0 6 -5 10 -11 10 -5 0 -7
-4 -4 -10z"/>
<path d="M269 6896 c9 -11 6 -20 -12 -42 -24 -28 -67 -110 -67 -126 0 -4 7 -5
15 -2 8 4 15 2 15 -3 0 -5 -11 -10 -26 -11 -14 -1 -34 -7 -45 -13 -12 -6 -38
-8 -62 -4 -27 4 -37 3 -29 -3 10 -7 7 -11 -15 -15 -36 -7 -37 -5 -13 23 21 25
19 34 -11 50 -15 9 -19 7 -19 -5 0 -8 7 -15 16 -15 14 0 14 -2 0 -22 -22 -31
-23 -193 -1 -202 8 -3 15 -1 15 4 0 5 12 8 28 8 15 -1 37 2 49 6 18 6 22 4 17
-7 -5 -14 -12 -16 -86 -20 l-37 -2 0 -157 c0 -114 3 -158 11 -158 9 0 9 -3 0
-12 -15 -15 -17 -152 -2 -143 5 3 10 15 10 26 0 19 37 42 52 32 9 -5 -5 36
-24 70 -6 12 -13 41 -14 65 -3 40 -2 43 19 36 12 -4 23 -10 25 -15 2 -4 10 -5
19 -2 11 4 14 2 9 -5 -5 -8 0 -12 13 -12 12 0 21 -5 21 -11 0 -6 7 -9 14 -6 9
4 26 -8 44 -31 25 -30 36 -36 68 -37 35 0 39 -3 36 -23 -1 -15 2 -22 10 -19 7
2 12 18 12 35 -1 18 2 32 6 32 5 0 12 10 16 23 4 12 16 30 27 40 12 10 22 24
23 33 3 20 46 54 62 49 6 -2 12 0 12 6 0 6 7 9 14 6 11 -4 13 -1 9 11 -6 14
-4 15 9 5 8 -7 18 -10 21 -6 4 3 12 1 20 -5 10 -8 13 -6 14 9 1 14 -4 18 -20
15 -12 -1 -16 -1 -9 1 15 5 15 16 1 30 -6 6 -8 17 -3 24 4 8 9 22 9 32 2 20
40 50 70 54 47 6 65 14 65 28 0 24 -33 36 -51 19 -12 -11 -27 -13 -55 -8 -33
6 -35 8 -20 20 12 8 16 19 11 34 -4 12 -1 28 7 37 11 15 10 16 -9 11 -28 -7
-38 7 -35 47 l3 30 -25 -27 c-15 -17 -31 -26 -40 -22 -20 8 -21 24 -1 24 18 0
20 16 3 24 -10 5 -10 7 0 12 19 9 14 23 -7 17 -15 -4 -18 0 -14 19 3 17 -3 27
-25 41 -35 20 -62 22 -62 5 0 -8 -5 -8 -15 2 -15 16 -10 90 6 90 5 0 9 5 9 11
0 8 -6 7 -17 -2 -13 -11 -17 -11 -20 -1 -3 6 -16 12 -30 12 -21 0 -23 -3 -14
-14z m-15 -168 c-8 -12 -32 16 -27 30 4 9 9 8 18 -5 7 -10 11 -21 9 -25z m97
2 c24 -13 25 -36 2 -49 -14 -8 -15 -13 -5 -35 7 -17 8 -27 1 -32 -5 -3 -8 -21
-5 -40 4 -21 2 -34 -5 -34 -5 0 -7 -4 -4 -10 3 -5 -1 -10 -9 -10 -9 0 -23 -11
-31 -24 -12 -18 -25 -24 -48 -24 -18 1 -35 5 -38 10 -3 5 -20 10 -37 10 -26 1
-30 4 -21 15 8 9 8 13 1 13 -22 0 -10 68 15 90 17 15 22 27 17 42 -4 13 -2 18
5 14 11 -7 33 3 95 47 45 31 41 30 67 17z m169 -120 c0 -5 -2 -10 -4 -10 -3 0
-8 5 -11 10 -3 6 -1 10 4 10 6 0 11 -4 11 -10z m-145 -110 c3 -5 1 -10 -4 -10
-6 0 -11 5 -11 10 0 6 2 10 4 10 3 0 8 -4 11 -10z m8 -65 c-3 -9 -8 -14 -10
-11 -3 3 -2 9 2 15 9 16 15 13 8 -4z m-223 -65 c0 -5 -5 -10 -11 -10 -5 0 -7
5 -4 10 3 6 8 10 11 10 2 0 4 -4 4 -10z m140 -130 c0 -11 -2 -20 -4 -20 -2 0
-6 9 -9 20 -3 11 -1 20 4 20 5 0 9 -9 9 -20z m27 -46 c-3 -3 -12 -4 -19 -1 -8
3 -5 6 6 6 11 1 17 -2 13 -5z"/>
<path d="M330 6700 c0 -5 5 -10 10 -10 6 0 10 5 10 10 0 6 -4 10 -10 10 -5 0
-10 -4 -10 -10z"/>
<path d="M295 6599 c-4 -6 -5 -13 -2 -16 7 -7 27 6 27 18 0 12 -17 12 -25 -2z"/>
<path d="M296 6541 c-4 -7 -5 -15 -2 -18 9 -9 19 4 14 18 -4 11 -6 11 -12 0z"/>
<path d="M9685 6900 c-3 -5 -1 -10 4 -10 6 0 11 5 11 10 0 6 -2 10 -4 10 -3 0
-8 -4 -11 -10z"/>
<path d="M380 6860 c0 -5 5 -10 11 -10 5 0 7 5 4 10 -3 6 -8 10 -11 10 -2 0
-4 -4 -4 -10z"/>
<path d="M560 6834 c0 -9 7 -41 16 -72 13 -42 14 -60 5 -74 -16 -25 -14 -58 4
-58 8 0 15 5 15 10 0 6 8 10 18 10 10 0 21 3 24 6 7 6 -15 95 -28 116 -5 7 -9
18 -9 23 0 14 -28 55 -37 55 -5 0 -8 -7 -8 -16z"/>
<path d="M9475 6820 c3 -5 8 -10 11 -10 2 0 4 5 4 10 0 6 -5 10 -11 10 -5 0
-7 -4 -4 -10z"/>
<path d="M400 6816 c0 -2 7 -7 16 -10 8 -3 12 -2 9 4 -6 10 -25 14 -25 6z"/>
<path d="M9606 6764 c-9 -23 -8 -24 20 -24 14 0 23 4 19 10 -4 6 -11 8 -16 5
-5 -3 -6 1 -3 9 3 9 2 16 -4 16 -5 0 -13 -7 -16 -16z"/>
<path d="M9730 6710 c-6 -11 -16 -17 -25 -14 -8 4 -18 -1 -21 -10 -3 -9 -11
-16 -16 -16 -6 0 -3 11 6 25 16 24 15 25 -2 25 -10 0 -19 -7 -20 -15 -1 -8 -3
-21 -4 -29 -1 -8 -9 -11 -22 -8 -19 5 -20 4 -7 -12 12 -14 23 -16 55 -10 23 4
49 7 59 6 9 0 29 10 42 22 19 18 22 26 13 33 -28 21 -48 22 -58 3z"/>
<path d="M9610 6690 c0 -5 5 -10 10 -10 6 0 10 5 10 10 0 6 -4 10 -10 10 -5 0
-10 -4 -10 -10z"/>
<path d="M920 6670 c0 -5 5 -10 10 -10 6 0 10 5 10 10 0 6 -4 10 -10 10 -5 0
-10 -4 -10 -10z"/>
<path d="M9425 6650 c3 -5 8 -10 11 -10 2 0 4 5 4 10 0 6 -5 10 -11 10 -5 0
-7 -4 -4 -10z"/>
<path d="M9515 6640 c3 -5 8 -10 11 -10 2 0 4 5 4 10 0 6 -5 10 -11 10 -5 0
-7 -4 -4 -10z"/>
<path d="M576 6612 c-3 -6 3 -12 15 -15 12 -3 19 -1 16 6 -5 15 -24 20 -31 9z"/>
<path d="M9755 6599 c-4 -6 -5 -13 -2 -16 7 -7 27 6 27 18 0 12 -17 12 -25 -2z"/>
<path d="M755 6540 c3 -5 10 -10 16 -10 5 0 9 5 9 10 0 6 -7 10 -16 10 -8 0
-12 -4 -9 -10z"/>
<path d="M850 6535 c0 -8 4 -15 10 -15 5 0 7 7 4 15 -4 8 -8 15 -10 15 -2 0
-4 -7 -4 -15z"/>
<path d="M9625 6530 c-3 -5 -1 -10 4 -10 6 0 11 5 11 10 0 6 -2 10 -4 10 -3 0
-8 -4 -11 -10z"/>
<path d="M9508 6518 c9 -9 15 -9 24 0 9 9 7 12 -12 12 -19 0 -21 -3 -12 -12z"/>
<path d="M10620 6490 c0 -5 5 -10 11 -10 5 0 7 5 4 10 -3 6 -8 10 -11 10 -2 0
-4 -4 -4 -10z"/>
<path d="M9560 6425 c7 -8 16 -12 21 -9 13 8 1 24 -18 24 -13 0 -13 -3 -3 -15z"/>
<path d="M1205 6380 c21 -22 31 -27 37 -18 9 15 -25 48 -50 48 -11 0 -8 -8 13
-30z"/>
<path d="M9546 6375 c-3 -9 0 -15 9 -15 16 0 20 16 6 24 -5 3 -11 -1 -15 -9z"/>
<path d="M1131 6311 c-11 -19 -10 -26 3 -39 14 -14 16 -14 22 2 4 9 2 27 -3
39 l-10 22 -12 -24z"/>
<path d="M600 6290 c0 -5 5 -10 10 -10 6 0 10 5 10 10 0 6 -4 10 -10 10 -5 0
-10 -4 -10 -10z"/>
<path d="M1070 6290 c0 -6 7 -10 15 -10 8 0 15 2 15 4 0 2 -7 6 -15 10 -8 3
-15 1 -15 -4z"/>
<path d="M10390 6291 c0 -12 29 -23 41 -15 5 3 7 10 4 15 -8 12 -45 12 -45 0z"/>
<path d="M9668 6283 c6 -2 18 -2 25 0 6 3 1 5 -13 5 -14 0 -19 -2 -12 -5z"/>
<path d="M9545 6220 c-9 -15 4 -30 26 -30 23 0 24 6 5 26 -17 17 -23 17 -31 4z"/>
<path d="M1177 6203 c-4 -3 -7 -11 -7 -17 0 -6 5 -5 12 2 6 6 9 14 7 17 -3 3
-9 2 -12 -2z"/>
<path d="M1273 6183 c-3 -10 -8 -21 -10 -25 -2 -4 5 -12 16 -18 22 -11 71 5
71 25 0 34 -66 49 -77 18z"/>
<path d="M425 6160 c-3 -5 -1 -10 4 -10 6 0 11 5 11 10 0 6 -2 10 -4 10 -3 0
-8 -4 -11 -10z"/>
<path d="M126 6127 c3 -10 9 -15 12 -12 3 3 0 11 -7 18 -10 9 -11 8 -5 -6z"/>
<path d="M415 6130 c4 -6 11 -8 16 -5 14 9 11 15 -7 15 -8 0 -12 -5 -9 -10z"/>
<path d="M9680 6124 c0 -9 7 -14 17 -12 25 5 28 28 4 28 -12 0 -21 -6 -21 -16z"/>
<path d="M510 6110 c0 -5 10 -10 23 -10 18 0 19 2 7 10 -19 13 -30 13 -30 0z"/>
<path d="M677 6113 c-14 -13 -6 -33 13 -33 22 0 23 1 14 24 -7 17 -16 20 -27
9z"/>
<path d="M420 6098 c-21 -9 -22 -12 -8 -15 10 -3 25 3 34 11 18 18 10 19 -26
4z"/>
<path d="M1020 6091 c0 -5 3 -17 6 -25 5 -13 10 -14 20 -6 7 7 10 18 7 26 -6
15 -33 20 -33 5z"/>
<path d="M595 6050 c-5 -8 -47 -18 -94 -23 -13 -1 -26 -8 -29 -16 -3 -10 2
-13 21 -9 15 3 28 0 30 -5 2 -6 15 -4 34 5 29 14 31 14 27 -1 -3 -9 1 -6 7 6
9 18 17 21 43 16 27 -6 29 -4 18 9 -15 19 -50 30 -57 18z"/>
<path d="M9576 6025 c-18 -14 -18 -15 9 -25 15 -6 31 -8 34 -4 3 4 1 9 -6 11
-7 2 -9 11 -6 19 7 18 -6 18 -31 -1z"/>
<path d="M85 6020 c3 -5 8 -10 11 -10 2 0 4 5 4 10 0 6 -5 10 -11 10 -5 0 -7
-4 -4 -10z"/>
<path d="M224 6023 c3 -4 -4 -13 -16 -20 l-23 -13 25 2 c25 3 43 38 19 38 -7
0 -9 -3 -5 -7z"/>
<path d="M310 6020 c0 -12 17 -12 45 0 17 7 15 9 -12 9 -18 1 -33 -3 -33 -9z"/>
<path d="M27 5986 c-4 -10 0 -12 14 -9 10 3 16 9 13 14 -8 13 -21 11 -27 -5z"/>
<path d="M660 5989 c0 -5 5 -7 10 -4 6 3 10 8 10 11 0 2 -4 4 -10 4 -5 0 -10
-5 -10 -11z"/>
<path d="M299 5964 c-5 -15 -7 -30 -3 -33 4 -3 9 0 11 7 4 10 9 8 19 -7 9 -13
21 -18 31 -14 11 4 14 3 9 -5 -4 -7 -16 -12 -26 -12 -18 0 -19 -8 -11 -62 0
-5 8 -8 17 -8 12 0 14 -5 9 -17 -13 -32 -18 -63 -8 -63 5 0 10 12 11 26 3 36
19 54 45 51 16 -1 21 3 19 16 -4 21 5 22 25 2 8 -8 19 -13 24 -10 5 4 9 -2 9
-12 0 -15 2 -16 10 -3 10 16 3 57 -13 79 -9 11 -14 9 -29 -9 -10 -12 -18 -19
-18 -15 0 4 -7 2 -15 -5 -9 -8 -15 -9 -15 -2 0 6 4 13 10 17 13 8 -26 45 -48
45 -17 0 -48 37 -44 53 6 19 -10 4 -19 -19z"/>
<path d="M9795 5960 c-3 -5 -1 -10 4 -10 6 0 11 5 11 10 0 6 -2 10 -4 10 -3 0
-8 -4 -11 -10z"/>
<path d="M0 5950 c0 -13 18 -22 24 -11 3 5 -1 11 -9 15 -8 3 -15 1 -15 -4z"/>
<path d="M970 5939 c0 -12 24 -17 45 -9 17 6 15 8 -13 12 -17 2 -32 1 -32 -3z"/>
<path d="M250 5906 c0 -19 5 -38 10 -41 8 -5 7 -11 -1 -21 -8 -10 -8 -14 0
-14 6 0 11 4 11 9 0 5 8 17 17 26 15 16 15 19 1 43 -24 39 -38 39 -38 -2z"/>
<path d="M135 5913 c-2 -7 2 -13 10 -13 17 0 20 -17 4 -22 -7 -2 -7 -12 0 -32
6 -15 17 -26 24 -23 13 5 13 11 2 40 -5 12 -2 17 9 17 9 0 16 5 16 11 0 5 -4
7 -10 4 -13 -8 -13 8 1 22 7 7 1 10 -20 9 -17 -1 -33 -7 -36 -13z"/>
<path d="M686 5914 c-4 -9 -9 -14 -13 -10 -8 8 -43 -23 -43 -39 0 -14 22 -25
50 -25 21 0 30 19 30 61 0 32 -14 39 -24 13z"/>
<path d="M0 5875 c0 -33 4 -45 15 -45 8 0 15 4 15 9 0 11 19 9 38 -3 8 -5 18
-4 25 3 12 12 -3 29 -53 64 -36 25 -40 22 -40 -28z"/>
<path d="M110 5875 c0 -8 4 -15 10 -15 5 0 7 7 4 15 -4 8 -8 15 -10 15 -2 0
-4 -7 -4 -15z"/>
<path d="M9830 5860 c0 -5 9 -10 21 -10 11 0 17 5 14 10 -3 6 -13 10 -21 10
-8 0 -14 -4 -14 -10z"/>
<path d="M10420 5860 c0 -5 5 -10 10 -10 6 0 10 5 10 10 0 6 -4 10 -10 10 -5
0 -10 -4 -10 -10z"/>
<path d="M10525 5830 c3 -5 8 -10 11 -10 2 0 4 5 4 10 0 6 -5 10 -11 10 -5 0
-7 -4 -4 -10z"/>
<path d="M0 5733 c0 -52 4 -83 9 -75 7 11 10 10 15 -3 9 -24 8 -28 -7 -22 -9
3 -13 -7 -14 -37 0 -22 2 -33 4 -23 7 26 21 20 16 -7 -6 -31 16 -45 34 -20 9
13 12 33 8 62 -3 26 -2 42 5 42 5 0 10 -7 10 -16 0 -8 5 -12 11 -9 6 4 8 13 5
21 -3 7 -1 16 5 19 5 4 8 22 7 41 -1 19 3 39 8 44 14 14 5 60 -12 60 -18 0
-27 -17 -12 -23 7 -2 10 -7 6 -11 -8 -10 -88 14 -88 26 0 5 5 6 10 3 6 -3 10
-1 10 4 0 6 -7 11 -15 11 -12 0 -15 -16 -15 -87z m30 -3 c0 -5 7 -7 15 -4 11
5 13 2 9 -10 -5 -14 -34 -24 -34 -12 0 2 -3 11 -6 20 -3 9 -1 16 5 16 6 0 11
-4 11 -10z m20 -120 c0 -5 -5 -10 -11 -10 -5 0 -7 5 -4 10 3 6 8 10 11 10 2 0
4 -4 4 -10z"/>
<path d="M130 5814 c0 -3 7 -12 15 -20 16 -17 18 -14 9 10 -6 15 -24 23 -24
10z"/>
<path d="M9612 5813 c-15 -6 -6 -23 14 -23 8 0 14 7 14 15 0 15 -6 17 -28 8z"/>
<path d="M450 5806 c0 -2 7 -9 15 -16 9 -7 15 -8 15 -2 0 5 -7 12 -15 16 -8 3
-15 4 -15 2z"/>
<path d="M10151 5794 c0 -11 3 -14 6 -6 3 7 2 16 -1 19 -3 4 -6 -2 -5 -13z"/>
<path d="M10050 5786 c0 -3 9 -10 19 -16 15 -7 22 -7 27 2 4 7 4 10 -1 6 -4
-4 -16 -3 -26 3 -11 5 -19 7 -19 5z"/>
<path d="M175 5753 c-4 -10 -9 -40 -12 -66 l-5 -48 29 7 c15 3 39 14 52 23 13
9 31 21 41 26 14 9 15 13 4 23 -16 15 -41 16 -49 2 -3 -5 -12 -10 -18 -10 -8
0 -8 3 2 9 18 12 4 51 -19 51 -10 0 -21 -8 -25 -17z"/>
<path d="M256 5761 c-4 -7 -5 -15 -2 -18 9 -9 19 4 14 18 -4 11 -6 11 -12 0z"/>
<path d="M10194 5755 c21 -16 32 -13 21 4 -3 6 -14 11 -23 11 -15 -1 -15 -2 2
-15z"/>
<path d="M9823 5753 c-23 -8 -14 -21 17 -25 17 -3 30 -2 30 1 0 11 -35 28 -47
24z"/>
<path d="M10287 5706 c-6 -15 1 -26 15 -26 11 0 10 27 -1 34 -5 3 -11 0 -14
-8z"/>
<path d="M10035 5670 c3 -5 8 -10 11 -10 2 0 4 5 4 10 0 6 -5 10 -11 10 -5 0
-7 -4 -4 -10z"/>
<path d="M10072 5658 c6 -16 55 -34 65 -25 9 10 -27 36 -50 37 -11 0 -17 -5
-15 -12z"/>
<path d="M10110 5616 c0 -2 7 -6 15 -10 8 -3 15 -1 15 4 0 6 -7 10 -15 10 -8
0 -15 -2 -15 -4z"/>
<path d="M10378 5613 c7 -3 16 -2 19 1 4 3 -2 6 -13 5 -11 0 -14 -3 -6 -6z"/>
<path d="M10575 5610 c3 -5 8 -10 11 -10 2 0 4 5 4 10 0 6 -5 10 -11 10 -5 0
-7 -4 -4 -10z"/>
<path d="M10665 5589 c-4 -5 -1 -9 6 -9 6 0 17 -7 23 -16 7 -9 22 -14 35 -12
21 3 19 5 -17 25 -23 12 -44 18 -47 12z"/>
<path d="M10478 5553 c7 -3 16 -2 19 1 4 3 -2 6 -13 5 -11 0 -14 -3 -6 -6z"/>
<path d="M84 5543 c4 -8 1 -13 -8 -13 -8 0 -14 -8 -14 -17 0 -10 -2 -25 -6
-34 -6 -13 0 -18 26 -22 38 -5 53 1 20 10 -25 6 -27 15 -10 43 10 16 10 22 -1
32 -11 10 -12 10 -7 1z"/>
<path d="M2 5508 c2 -12 9 -24 17 -26 10 -3 12 0 8 12 -4 9 -1 16 6 16 8 0 6
4 -3 10 -24 15 -32 12 -28 -12z"/>
<path d="M0 5454 c0 -8 5 -12 10 -9 6 4 8 11 5 16 -9 14 -15 11 -15 -7z"/>
<path d="M12 5401 c-8 -4 -10 -15 -6 -26 7 -17 8 -16 16 5 10 27 7 32 -10 21z"/>
<path d="M10304 5325 c11 -8 25 -15 30 -15 6 0 2 7 -8 15 -11 8 -25 15 -30 15
-6 0 -2 -7 8 -15z"/>
<path d="M25 5270 c4 -6 11 -8 16 -5 14 9 11 15 -7 15 -8 0 -12 -5 -9 -10z"/>
<path d="M81 5196 c-8 -9 -11 -19 -7 -23 9 -9 29 13 24 27 -2 8 -8 7 -17 -4z"/>
<path d="M9845 5160 c3 -5 13 -10 21 -10 8 0 14 5 14 10 0 6 -9 10 -21 10 -11
0 -17 -4 -14 -10z"/>
<path d="M870 5136 c0 -8 7 -16 15 -20 10 -4 15 1 15 14 0 11 -7 20 -15 20 -8
0 -15 -6 -15 -14z"/>
<path d="M10610 5100 c0 -5 5 -10 10 -10 6 0 10 5 10 10 0 6 -4 10 -10 10 -5
0 -10 -4 -10 -10z"/>
<path d="M10295 5070 c-3 -5 1 -10 9 -10 9 0 16 5 16 10 0 6 -4 10 -9 10 -6 0
-13 -4 -16 -10z"/>
<path d="M10661 5064 c0 -11 3 -14 6 -6 3 7 2 16 -1 19 -3 4 -6 -2 -5 -13z"/>
<path d="M617 4998 c-31 -11 -48 -55 -26 -69 21 -13 55 -11 68 4 6 8 8 16 5
20 -3 3 4 11 17 18 22 11 22 12 4 25 -22 16 -30 16 -68 2z"/>
<path d="M10220 5000 c-12 -8 -10 -10 8 -10 13 0 20 4 17 10 -7 12 -6 12 -25
0z"/>
<path d="M10170 4980 c0 -5 7 -10 16 -10 8 0 12 5 9 10 -3 6 -10 10 -16 10 -5
0 -9 -4 -9 -10z"/>
<path d="M9800 4970 c0 -5 5 -10 11 -10 5 0 7 5 4 10 -3 6 -8 10 -11 10 -2 0
-4 -4 -4 -10z"/>
<path d="M9845 4940 c3 -5 8 -10 11 -10 2 0 4 5 4 10 0 6 -5 10 -11 10 -5 0
-7 -4 -4 -10z"/>
<path d="M10640 4916 c0 -2 7 -6 15 -10 8 -3 15 -1 15 4 0 6 -7 10 -15 10 -8
0 -15 -2 -15 -4z"/>
<path d="M10361 4896 c-12 -14 -5 -46 9 -46 11 0 24 20 27 43 3 20 -20 23 -36
3z"/>
<path d="M9884 4875 c3 -8 0 -15 -7 -15 -19 0 16 -20 36 -20 17 0 17 1 0 25
-20 27 -38 33 -29 10z"/>
<path d="M10680 4880 c0 -5 5 -10 11 -10 5 0 7 5 4 10 -3 6 -8 10 -11 10 -2 0
-4 -4 -4 -10z"/>
<path d="M10600 4850 c14 -11 32 -20 40 -20 8 0 0 9 -18 20 -41 25 -55 25 -22
0z"/>
<path d="M9746 4832 c-3 -6 -1 -14 5 -17 15 -10 25 3 12 16 -7 7 -13 7 -17 1z"/>
<path d="M10245 4750 c-4 -6 5 -10 19 -10 14 0 26 5 26 10 0 6 -9 10 -19 10
-11 0 -23 -4 -26 -10z"/>
<path d="M9705 4720 c-3 -5 -1 -10 4 -10 6 0 11 5 11 10 0 6 -2 10 -4 10 -3 0
-8 -4 -11 -10z"/>
<path d="M9847 4719 c7 -7 15 -10 18 -7 3 3 -2 9 -12 12 -14 6 -15 5 -6 -5z"/>
<path d="M9467 4683 c-13 -12 -7 -43 8 -43 9 0 15 9 15 25 0 24 -10 32 -23 18z"/>
<path d="M9745 4580 c3 -5 11 -10 16 -10 6 0 7 5 4 10 -3 6 -11 10 -16 10 -6
0 -7 -4 -4 -10z"/>
<path d="M9785 4541 c-6 -11 9 -23 19 -14 9 9 7 23 -3 23 -6 0 -12 -4 -16 -9z"/>
<path d="M10065 4540 c-3 -5 -2 -10 4 -10 5 0 13 5 16 10 3 6 2 10 -4 10 -5 0
-13 -4 -16 -10z"/>
<path d="M10556 4532 c-9 -15 12 -35 29 -28 14 5 15 9 5 21 -14 17 -26 19 -34
7z"/>
<path d="M9516 4452 c-3 -6 -1 -14 5 -17 15 -10 25 3 12 16 -7 7 -13 7 -17 1z"/>
<path d="M9722 4448 c3 -7 13 -15 24 -17 16 -3 17 -1 5 13 -16 19 -34 21 -29
4z"/>
<path d="M9390 4410 c0 -5 5 -10 11 -10 5 0 7 5 4 10 -3 6 -8 10 -11 10 -2 0
-4 -4 -4 -10z"/>
<path d="M10482 4403 c-5 -10 -8 -23 -5 -29 4 -11 63 -7 63 5 -1 12 -27 41
-38 41 -6 0 -15 -8 -20 -17z"/>
<path d="M9450 4400 c0 -5 5 -10 11 -10 5 0 7 5 4 10 -3 6 -8 10 -11 10 -2 0
-4 -4 -4 -10z"/>
<path d="M10680 4396 c0 -2 7 -6 15 -10 8 -3 15 -1 15 4 0 6 -7 10 -15 10 -8
0 -15 -2 -15 -4z"/>
<path d="M9644 4379 c-9 -16 18 -30 33 -17 7 6 10 14 7 19 -7 13 -31 11 -40
-2z"/>
<path d="M9800 4376 c0 -2 7 -16 14 -32 8 -15 13 -30 11 -34 -5 -8 55 -34 62
-27 3 3 -7 18 -21 34 -14 15 -29 36 -32 46 -4 14 -34 26 -34 13z"/>
<path d="M924 4335 c-4 -8 -3 -23 0 -32 6 -14 8 -14 22 5 15 22 12 42 -7 42
-5 0 -12 -7 -15 -15z"/>
<path d="M827 4313 c-13 -12 -7 -40 11 -56 21 -19 59 -22 82 -7 13 9 12 12 -4
25 -11 8 -16 15 -10 15 6 1 -59 28 -72 30 0 0 -4 -3 -7 -7z"/>
<path d="M960 4290 c-13 -8 -12 -10 3 -10 9 0 17 5 17 10 0 12 -1 12 -20 0z"/>
<path d="M10037 4294 c-3 -4 -2 -14 3 -24 5 -10 6 -20 3 -24 -3 -3 6 -6 20 -6
21 0 25 4 20 18 -13 35 -32 50 -46 36z"/>
<path d="M10238 4293 c7 -3 16 -2 19 1 4 3 -2 6 -13 5 -11 0 -14 -3 -6 -6z"/>
<path d="M10460 4280 c0 -5 5 -10 10 -10 6 0 10 5 10 10 0 6 -4 10 -10 10 -5
0 -10 -4 -10 -10z"/>
<path d="M9366 4263 c-12 -12 -6 -43 9 -43 8 0 15 9 15 19 0 21 -13 34 -24 24z"/>
<path d="M9543 4263 c9 -2 23 -2 30 0 6 3 -1 5 -18 5 -16 0 -22 -2 -12 -5z"/>
<path d="M9820 4246 c7 -7 13 -7 20 0 6 6 3 10 -10 10 -13 0 -16 -4 -10 -10z"/>
<path d="M10200 4231 c-7 -14 -14 -72 -11 -93 1 -10 61 12 61 23 0 4 6 6 13 4
6 -3 18 -1 26 4 12 8 9 15 -13 42 -31 36 -62 44 -76 20z"/>
<path d="M10728 4243 c7 -3 16 -2 19 1 4 3 -2 6 -13 5 -11 0 -14 -3 -6 -6z"/>
<path d="M10623 4209 c11 -7 23 -7 35 0 14 9 11 10 -18 10 -29 0 -32 -1 -17
-10z"/>
<path d="M10400 4200 c0 -5 5 -10 10 -10 6 0 10 5 10 10 0 6 -4 10 -10 10 -5
0 -10 -4 -10 -10z"/>
<path d="M10756 4185 c15 -13 31 -22 33 -19 6 6 -39 43 -53 44 -5 0 4 -11 20
-25z"/>
<path d="M10695 4160 c-3 -5 -2 -10 4 -10 5 0 13 5 16 10 3 6 2 10 -4 10 -5 0
-13 -4 -16 -10z"/>
<path d="M10100 4127 c0 -19 26 -40 42 -34 8 4 7 6 -4 6 -10 1 -18 7 -18 15 0
8 -4 18 -10 21 -5 3 -10 0 -10 -8z"/>
<path d="M9831 4094 c0 -11 3 -14 6 -6 3 7 2 16 -1 19 -3 4 -6 -2 -5 -13z"/>
<path d="M10780 4095 c-11 -13 -10 -14 4 -9 9 3 16 10 16 15 0 13 -6 11 -20
-6z"/>
<path d="M9750 4096 c0 -2 8 -10 18 -17 15 -13 16 -12 3 4 -13 16 -21 21 -21
13z"/>
<path d="M9795 4059 c-4 -6 -5 -12 -2 -15 2 -3 7 2 10 11 7 17 1 20 -8 4z"/>
<path d="M9740 4040 c0 -9 31 -30 44 -30 16 0 3 18 -19 28 -14 7 -25 8 -25 2z"/>
<path d="M10213 4033 c-18 -6 -16 -23 1 -23 17 0 30 16 19 23 -5 2 -14 2 -20
0z"/>
<path d="M1387 4018 c-23 -12 -22 -59 2 -84 10 -11 24 -31 31 -43 l12 -23 19
28 c22 34 24 59 6 93 -15 29 -47 42 -70 29z"/>
<path d="M10520 4020 c0 -5 5 -10 11 -10 5 0 7 5 4 10 -3 6 -8 10 -11 10 -2 0
-4 -4 -4 -10z"/>
<path d="M9412 4008 c7 -19 38 -22 38 -4 0 10 -9 16 -21 16 -12 0 -19 -5 -17
-12z"/>
<path d="M9906 3996 c3 -9 11 -16 16 -16 13 0 5 23 -10 28 -7 2 -10 -2 -6 -12z"/>
<path d="M10102 4003 c-15 -6 -6 -23 14 -23 8 0 14 7 14 15 0 15 -6 17 -28 8z"/>
<path d="M10776 3992 c-3 -6 -1 -14 5 -17 15 -10 25 3 12 16 -7 7 -13 7 -17 1z"/>
<path d="M9231 3927 c-18 -18 -13 -27 14 -27 15 0 25 6 25 14 0 19 -25 27 -39
13z"/>
<path d="M10660 3931 c0 -5 7 -11 15 -15 9 -3 15 0 15 9 0 8 -7 15 -15 15 -8
0 -15 -4 -15 -9z"/>
<path d="M9886 3915 c4 -8 12 -15 20 -15 19 0 18 16 -2 24 -22 9 -24 8 -18 -9z"/>
<path d="M10110 3875 c-10 -13 -9 -15 8 -15 15 0 20 5 16 15 -4 8 -7 15 -9 15
-1 0 -8 -7 -15 -15z"/>
<path d="M40 3860 c-13 -8 -12 -10 3 -10 9 0 17 5 17 10 0 12 -1 12 -20 0z"/>
<path d="M1137 3853 c-4 -3 -7 -14 -7 -24 0 -19 11 -24 78 -34 49 -8 56 8 19
43 -22 21 -76 30 -90 15z"/>
<path d="M400 3830 c-6 -12 -9 -24 -6 -28 3 -3 6 0 6 7 0 8 8 11 20 8 13 -3
18 -1 13 6 -4 7 0 8 11 4 12 -5 16 -3 14 5 -8 23 -46 21 -58 -2z"/>
<path d="M9967 3843 c-4 -3 -7 -15 -7 -25 0 -13 7 -18 25 -18 28 0 29 3 15 31
-11 20 -22 24 -33 12z"/>
<path d="M93 3825 c10 -9 24 -15 32 -12 7 3 15 1 17 -5 2 -5 27 -12 56 -13 47
-4 51 -2 40 14 -8 14 -24 18 -62 18 -28 0 -62 4 -76 8 -23 7 -23 7 -7 -10z"/>
<path d="M1 3727 c-1 -79 1 -87 14 -73 9 8 22 13 29 10 8 -3 17 -1 21 5 7 13
45 15 45 3 0 -4 16 -9 34 -10 27 -2 38 2 46 19 7 11 10 22 8 24 -10 8 -103 45
-117 46 -10 0 -11 2 -3 6 18 7 15 25 -5 22 -41 -4 -62 2 -66 19 -3 9 -5 -23
-6 -71z"/>
<path d="M1365 3789 c-26 -17 -27 -19 -9 -19 12 0 27 7 34 15 19 23 9 25 -25
4z"/>
<path d="M10675 3800 c-3 -5 -1 -10 4 -10 6 0 11 5 11 10 0 6 -2 10 -4 10 -3
0 -8 -4 -11 -10z"/>
<path d="M310 3790 c-11 -8 -7 -9 15 -4 37 8 45 14 19 14 -10 0 -26 -5 -34
-10z"/>
<path d="M268 3783 c7 -3 16 -2 19 1 4 3 -2 6 -13 5 -11 0 -14 -3 -6 -6z"/>
<path d="M1220 3769 c-40 -22 -34 -24 21 -7 22 6 39 15 39 20 0 12 -21 8 -60
-13z"/>
<path d="M1464 3775 c11 -8 22 -12 25 -9 6 6 -19 24 -34 24 -5 -1 -1 -7 9 -15z"/>
<path d="M1298 3773 c7 -3 16 -2 19 1 4 3 -2 6 -13 5 -11 0 -14 -3 -6 -6z"/>
<path d="M10111 3763 c0 -10 4 -27 9 -38 8 -20 8 -20 16 -1 5 13 3 21 -4 24
-7 2 -10 8 -7 12 3 5 1 11 -5 15 -5 3 -10 -2 -9 -12z"/>
<path d="M10756 3771 c-3 -4 -1 -13 3 -19 8 -13 41 -6 41 8 0 10 -39 20 -44
11z"/>
<path d="M1505 3760 c-3 -5 -1 -10 4 -10 6 0 11 5 11 10 0 6 -2 10 -4 10 -3 0
-8 -4 -11 -10z"/>
<path d="M9712 3757 c-19 -23 10 -42 37 -25 12 7 20 17 18 23 -6 16 -43 17
-55 2z"/>
<path d="M10562 3758 c5 -15 28 -23 28 -10 0 5 -7 13 -16 16 -10 4 -14 1 -12
-6z"/>
<path d="M1057 3753 c-13 -12 -7 -19 19 -21 22 -2 25 0 14 13 -14 16 -23 19
-33 8z"/>
<path d="M1640 3740 c0 -5 7 -10 15 -10 8 0 15 5 15 10 0 6 -7 10 -15 10 -8 0
-15 -4 -15 -10z"/>
<path d="M9349 3726 c9 -11 9 -15 -1 -18 -10 -4 -10 -8 1 -21 7 -10 19 -17 25
-17 6 0 2 7 -8 15 -19 15 -19 15 1 15 12 0 25 5 28 10 3 6 -1 10 -9 10 -9 0
-16 5 -16 10 0 6 -7 10 -16 10 -13 0 -14 -3 -5 -14z"/>
<path d="M1560 3720 c0 -5 5 -10 11 -10 5 0 7 5 4 10 -3 6 -8 10 -11 10 -2 0
-4 -4 -4 -10z"/>
<path d="M10337 3722 c-2 -4 -3 -23 -3 -42 1 -25 6 -36 19 -38 22 -4 59 26 55
46 -3 15 -65 45 -71 34z"/>
<path d="M1435 3710 c3 -5 11 -10 16 -10 6 0 7 5 4 10 -3 6 -11 10 -16 10 -6
0 -7 -4 -4 -10z"/>
<path d="M1595 3710 c-3 -5 -2 -10 4 -10 5 0 13 5 16 10 3 6 2 10 -4 10 -5 0
-13 -4 -16 -10z"/>
<path d="M1470 3690 c0 -13 35 -30 62 -29 23 0 23 0 -2 11 -14 5 -33 14 -42
19 -11 6 -18 5 -18 -1z"/>
<path d="M9530 3679 c0 -5 5 -7 10 -4 6 3 10 8 10 11 0 2 -4 4 -10 4 -5 0 -10
-5 -10 -11z"/>
<path d="M697 3673 c-4 -3 -7 -14 -7 -24 0 -9 -5 -19 -11 -21 -7 -2 4 -4 24
-5 27 -1 34 3 30 13 -3 8 -11 14 -19 14 -8 0 -11 6 -8 15 6 16 2 20 -9 8z"/>
<path d="M720 3676 c0 -2 8 -10 18 -17 15 -13 16 -12 3 4 -13 16 -21 21 -21
13z"/>
<path d="M9120 3660 c0 -5 5 -10 10 -10 6 0 10 5 10 10 0 6 -4 10 -10 10 -5 0
-10 -4 -10 -10z"/>
<path d="M1635 3650 c3 -5 10 -10 16 -10 5 0 9 5 9 10 0 6 -7 10 -16 10 -8 0
-12 -4 -9 -10z"/>
<path d="M9495 3640 c-3 -5 1 -10 10 -10 9 0 14 -4 11 -9 -3 -5 1 -14 9 -21
20 -16 20 7 1 33 -15 19 -22 21 -31 7z"/>
<path d="M10200 3627 c0 -45 50 -65 69 -28 8 14 6 22 -8 35 -27 25 -61 21 -61
-7z"/>
<path d="M10510 3635 c7 -8 19 -15 27 -15 13 0 13 3 3 15 -7 8 -19 15 -27 15
-13 0 -13 -3 -3 -15z"/>
<path d="M1235 3620 c3 -5 8 -10 11 -10 2 0 4 5 4 10 0 6 -5 10 -11 10 -5 0
-7 -4 -4 -10z"/>
<path d="M332 3600 c-44 -10 -102 -51 -107 -75 -2 -11 -6 -33 -10 -48 -3 -15
-16 -32 -28 -38 -20 -9 -20 -9 6 -6 29 5 39 -19 12 -29 -8 -4 -12 -10 -9 -15
3 -5 1 -9 -5 -9 -13 0 -10 -40 5 -63 10 -16 13 -16 27 -3 13 14 16 14 21 0 3
-8 9 -13 14 -11 4 3 18 -1 32 -8 14 -8 32 -10 45 -5 11 4 32 6 47 4 17 -1 25
2 22 9 -2 7 11 23 30 35 21 15 33 29 29 38 -3 8 0 14 5 14 6 0 14 17 18 38 3
20 13 42 21 49 9 7 11 13 4 18 -6 3 -11 15 -11 27 0 30 -76 88 -115 87 -11 -1
-35 -5 -53 -9z"/>
<path d="M622 3598 c6 -17 56 -53 64 -45 4 3 -5 12 -20 18 -15 7 -25 18 -22
26 3 7 -1 13 -10 13 -9 0 -14 -5 -12 -12z"/>
<path d="M892 3598 c-16 -16 -15 -28 4 -28 8 0 12 4 9 10 -4 6 1 7 11 3 11 -4
15 -2 12 7 -6 19 -22 22 -36 8z"/>
<path d="M9416 3581 c-3 -4 -27 -16 -53 -26 -26 -10 -52 -25 -58 -34 -17 -28
-12 -62 12 -81 28 -22 66 -13 120 26 28 21 30 27 23 56 -15 63 -30 83 -44 59z"/>
<path d="M765 3570 c3 -5 10 -10 16 -10 5 0 9 5 9 10 0 6 -7 10 -16 10 -8 0
-12 -4 -9 -10z"/>
<path d="M820 3561 c-18 -5 -21 -9 -12 -15 8 -5 18 -4 24 2 6 6 17 8 24 5 8
-3 14 0 14 6 0 12 -12 13 -50 2z"/>
<path d="M1440 3534 c-6 -14 -10 -27 -10 -29 0 -7 105 8 115 16 5 6 1 9 -10 9
-11 0 -33 7 -49 15 -36 19 -35 19 -46 -11z"/>
<path d="M708 3543 c7 -3 16 -2 19 1 4 3 -2 6 -13 5 -11 0 -14 -3 -6 -6z"/>
<path d="M10580 3510 c0 -5 7 -10 15 -10 8 0 15 5 15 10 0 6 -7 10 -15 10 -8
0 -15 -4 -15 -10z"/>
<path d="M9080 3480 c19 -13 30 -13 30 0 0 6 -10 10 -22 10 -19 0 -20 -2 -8
-10z"/>
<path d="M1495 3460 c3 -5 8 -10 11 -10 2 0 4 5 4 10 0 6 -5 10 -11 10 -5 0
-7 -4 -4 -10z"/>
<path d="M1080 3450 c0 -5 5 -10 10 -10 6 0 10 5 10 10 0 6 -4 10 -10 10 -5 0
-10 -4 -10 -10z"/>
<path d="M760 3440 c0 -5 5 -10 11 -10 5 0 7 5 4 10 -3 6 -8 10 -11 10 -2 0
-4 -4 -4 -10z"/>
<path d="M90 3419 c0 -5 5 -7 10 -4 6 3 10 8 10 11 0 2 -4 4 -10 4 -5 0 -10
-5 -10 -11z"/>
<path d="M8937 3413 c-14 -13 -6 -31 15 -37 25 -6 54 16 44 33 -8 12 -49 15
-59 4z"/>
<path d="M9725 3410 c3 -5 8 -10 11 -10 2 0 4 5 4 10 0 6 -5 10 -11 10 -5 0
-7 -4 -4 -10z"/>
<path d="M140 3376 c0 -9 7 -16 16 -16 17 0 14 22 -4 28 -7 2 -12 -3 -12 -12z"/>
<path d="M9406 3368 c-31 -43 -16 -75 29 -64 31 8 59 58 42 75 -18 18 -55 13
-71 -11z"/>
<path d="M35 3370 c-3 -5 1 -10 9 -10 9 0 16 5 16 10 0 6 -4 10 -9 10 -6 0
-13 -4 -16 -10z"/>
<path d="M35 3340 c-3 -5 -1 -10 4 -10 6 0 11 5 11 10 0 6 -2 10 -4 10 -3 0
-8 -4 -11 -10z"/>
<path d="M440 3319 c0 -5 5 -7 10 -4 6 3 10 8 10 11 0 2 -4 4 -10 4 -5 0 -10
-5 -10 -11z"/>
<path d="M65 3300 c3 -5 8 -10 11 -10 2 0 4 5 4 10 0 6 -5 10 -11 10 -5 0 -7
-4 -4 -10z"/>
<path d="M9590 3303 c0 -5 7 -16 15 -27 16 -21 35 -13 35 15 0 14 -7 19 -25
19 -14 0 -25 -3 -25 -7z"/>
<path d="M1602 3284 c-12 -13 -12 -18 1 -32 8 -9 12 -23 10 -29 -5 -14 6 -16
31 -7 19 7 21 55 4 72 -16 16 -30 15 -46 -4z"/>
<path d="M10700 3270 c-9 -16 -8 -22 5 -26 25 -10 44 3 38 25 -7 27 -29 27
-43 1z"/>
<path d="M9204 3265 c-8 -19 3 -65 15 -65 5 0 19 8 31 18 19 16 21 22 11 40
-13 25 -49 29 -57 7z"/>
<path d="M890 3250 c0 -5 9 -10 19 -10 11 0 23 5 26 10 4 6 -5 10 -19 10 -14
0 -26 -4 -26 -10z"/>
<path d="M50 3240 c0 -5 5 -10 10 -10 6 0 10 5 10 10 0 6 -4 10 -10 10 -5 0
-10 -4 -10 -10z"/>
<path d="M147 3219 c7 -7 15 -10 18 -7 3 3 -2 9 -12 12 -14 6 -15 5 -6 -5z"/>
<path d="M30 3210 c0 -5 4 -10 9 -10 6 0 13 5 16 10 3 6 -1 10 -9 10 -9 0 -16
-4 -16 -10z"/>
<path d="M10547 3209 c-18 -10 -18 -12 -1 -30 20 -23 37 -24 53 -5 9 11 8 18
-4 30 -19 19 -24 19 -48 5z"/>
<path d="M170 3180 c0 -5 5 -10 10 -10 6 0 10 5 10 10 0 6 -4 10 -10 10 -5 0
-10 -4 -10 -10z"/>
<path d="M295 3164 c-16 -6 -29 -15 -27 -18 1 -4 -9 -17 -24 -29 -20 -17 -26
-33 -28 -67 -1 -24 -8 -46 -14 -48 -7 -2 -12 -8 -12 -13 0 -4 8 -6 18 -2 9 3
5 -3 -10 -15 -25 -21 -65 -21 -52 0 4 6 10 5 15 -3 7 -11 9 -10 9 4 0 20 -20
23 -38 5 -10 -10 -15 -10 -20 -1 -6 9 -20 8 -60 -3 l-52 -16 1 -236 c1 -130 3
-230 6 -221 5 18 70 42 79 28 3 -5 11 -9 17 -9 8 0 8 3 -1 9 -19 11 -5 58 19
64 24 6 25 27 2 27 -15 0 -14 2 3 15 15 12 16 16 5 24 -9 6 -10 10 -2 12 7 3
13 14 14 27 0 12 5 22 10 22 5 0 5 6 -1 13 -12 14 -1 47 22 66 9 7 16 22 16
32 0 9 6 24 14 31 7 8 17 24 20 36 4 12 12 22 17 22 6 0 8 -4 4 -9 -3 -5 -1
-12 5 -16 5 -3 10 -1 10 6 0 7 3 9 6 6 4 -4 2 -12 -3 -19 -6 -8 -7 -22 -2 -33
4 -11 8 -14 8 -6 1 9 9 11 25 7 16 -4 26 -1 29 8 4 9 14 12 27 9 19 -5 20 -6
3 -20 -10 -8 -12 -11 -5 -8 17 9 52 -32 45 -53 -5 -11 -2 -14 10 -9 12 4 14 2
10 -10 -6 -15 12 -33 32 -33 6 0 4 4 -4 9 -7 5 -10 14 -7 20 10 15 29 14 20
-1 -4 -7 2 -4 14 6 12 11 22 14 22 8 0 -7 7 -12 16 -12 8 0 13 -4 10 -9 -4 -5
3 -7 14 -4 11 3 18 9 15 13 -3 4 4 10 14 13 17 4 19 2 10 -21 -6 -15 -15 -29
-21 -33 -7 -4 -7 -9 1 -13 6 -4 11 -2 11 3 0 6 9 11 19 11 17 0 19 5 14 37 -5
31 -4 35 11 30 10 -4 15 -3 11 3 -3 6 -1 10 4 10 6 0 11 9 11 20 0 11 5 20 11
20 5 0 7 5 3 11 -3 6 -1 15 7 19 7 5 14 17 15 27 2 10 4 27 6 38 2 11 -2 19
-8 18 -6 -1 -11 9 -11 22 0 28 -21 58 -34 49 -6 -3 -38 -7 -72 -8 -34 -2 -52
-1 -39 1 12 2 22 8 22 13 0 13 48 18 60 6 8 -8 13 -7 20 4 6 9 5 17 -3 22 -9
6 -9 8 1 8 6 0 12 4 12 10 0 5 -7 7 -15 4 -9 -4 -15 0 -15 9 0 21 -29 30 -36
12 -4 -8 -10 -15 -16 -15 -5 0 -6 5 -3 10 10 16 -11 12 -25 -5 -7 -9 -15 -13
-18 -10 -3 3 3 15 14 27 l19 22 -28 -17 c-21 -14 -32 -15 -47 -7 -11 6 -18 15
-16 19 3 5 -3 16 -13 25 -16 14 -26 16 -55 8 -19 -6 -36 -7 -38 -3 -2 4 -16 2
-33 -5z m274 -88 c-13 -15 -19 -3 -12 24 6 22 7 22 14 4 3 -10 3 -23 -2 -28z
m-47 -8 c-7 -7 -12 -8 -12 -2 0 14 12 26 19 19 2 -3 -1 -11 -7 -17z m-42 -28
c0 -5 -2 -10 -4 -10 -3 0 -8 5 -11 10 -3 6 -1 10 4 10 6 0 11 -4 11 -10z
m-245 -90 c3 -5 1 -10 -4 -10 -6 0 -11 5 -11 10 0 6 2 10 4 10 3 0 8 -4 11
-10z m-59 -127 c-3 -21 -26 -30 -26 -10 0 7 3 17 7 20 12 12 21 7 19 -10z
m-44 -35 c-7 -7 -12 -8 -12 -2 0 14 12 26 19 19 2 -3 -1 -11 -7 -17z"/>
<path d="M535 3160 c-3 -5 1 -10 9 -10 9 0 16 5 16 10 0 6 -4 10 -9 10 -6 0
-13 -4 -16 -10z"/>
<path d="M595 3160 c-3 -5 -2 -10 4 -10 5 0 13 5 16 10 3 6 2 10 -4 10 -5 0
-13 -4 -16 -10z"/>
<path d="M60 3129 c-18 -13 -20 -19 -9 -19 21 0 54 25 43 33 -5 3 -21 -3 -34
-14z"/>
<path d="M1852 3138 c-14 -17 -4 -65 16 -73 32 -12 43 42 13 69 -14 13 -20 14
-29 4z"/>
<path d="M220 3130 c0 -5 5 -10 10 -10 6 0 10 5 10 10 0 6 -4 10 -10 10 -5 0
-10 -4 -10 -10z"/>
<path d="M670 3130 c0 -5 5 -10 10 -10 6 0 10 5 10 10 0 6 -4 10 -10 10 -5 0
-10 -4 -10 -10z"/>
<path d="M150 3099 c0 -5 5 -7 10 -4 6 3 10 8 10 11 0 2 -4 4 -10 4 -5 0 -10
-5 -10 -11z"/>
<path d="M685 3100 c3 -5 11 -10 16 -10 6 0 7 5 4 10 -3 6 -11 10 -16 10 -6 0
-7 -4 -4 -10z"/>
<path d="M930 3090 c0 -5 5 -10 10 -10 6 0 10 5 10 10 0 6 -4 10 -10 10 -5 0
-10 -4 -10 -10z"/>
<path d="M870 3080 c0 -5 5 -10 10 -10 6 0 10 5 10 10 0 6 -4 10 -10 10 -5 0
-10 -4 -10 -10z"/>
<path d="M18 3073 c-10 -2 -18 -9 -18 -14 0 -6 10 -5 23 2 37 20 36 23 -5 12z"/>
<path d="M817 3059 c3 -11 0 -26 -6 -33 -10 -12 -8 -17 8 -25 25 -14 24 -14
49 7 19 17 19 19 4 39 -10 11 -27 23 -38 25 -17 4 -20 2 -17 -13z"/>
<path d="M1375 3050 c-20 -22 -45 -148 -42 -206 3 -34 6 -37 56 -54 50 -18 55
-18 92 -2 21 9 39 22 39 29 0 7 4 13 9 13 5 0 18 18 29 40 23 47 20 123 -7
154 -42 48 -142 63 -176 26z"/>
<path d="M9225 3060 c-4 -6 -2 -17 4 -23 15 -15 25 -2 13 19 -7 12 -11 13 -17
4z"/>
<path d="M10625 3020 c-3 -5 1 -10 10 -10 9 0 13 5 10 10 -3 6 -8 10 -10 10
-2 0 -7 -4 -10 -10z"/>
<path d="M10098 2943 c-25 -6 -29 -29 -8 -48 21 -19 47 -14 56 10 6 15 -12 46
-25 44 -3 -1 -13 -3 -23 -6z"/>
<path d="M1865 2910 c3 -5 13 -10 21 -10 8 0 14 5 14 10 0 6 -9 10 -21 10 -11
0 -17 -4 -14 -10z"/>
<path d="M8856 2911 c-4 -5 -3 -17 1 -27 6 -16 7 -16 20 2 7 10 13 21 13 26 0
11 -27 10 -34 -1z"/>
<path d="M1989 2887 c6 -8 7 -18 3 -23 -4 -5 -3 -6 2 -2 5 4 15 3 23 -3 16
-14 17 -5 3 22 -6 10 -18 19 -27 19 -12 0 -13 -3 -4 -13z"/>
<path d="M9452 2874 c-7 -8 -10 -19 -7 -24 3 -6 -1 -7 -9 -4 -9 3 -16 2 -16
-4 0 -6 -3 -18 -7 -28 -4 -11 -3 -15 4 -11 6 4 13 -2 16 -13 6 -23 45 -27 53
-6 3 8 0 24 -6 36 -10 18 -8 24 7 36 16 12 16 15 3 24 -19 13 -22 12 -38 -6z"/>
<path d="M10030 2852 c0 -7 -5 -12 -11 -12 -6 0 -16 -6 -23 -13 -11 -10 -10
-15 1 -25 10 -10 13 -10 13 2 0 9 12 16 31 18 l31 3 -21 19 c-12 11 -21 14
-21 8z"/>
<path d="M10120 2850 c0 -5 5 -10 11 -10 5 0 7 5 4 10 -3 6 -8 10 -11 10 -2 0
-4 -4 -4 -10z"/>
<path d="M2242 2821 c-20 -12 -24 -78 -5 -96 12 -12 12 -19 3 -30 -16 -20 -5
-45 19 -45 23 0 38 37 22 53 -16 16 -13 27 8 27 30 0 32 37 4 70 -27 32 -31
34 -51 21z"/>
<path d="M10082 2799 c2 -7 10 -15 17 -17 8 -3 12 1 9 9 -2 7 -10 15 -17 17
-8 3 -12 -1 -9 -9z"/>
<path d="M9325 2770 c-3 -5 1 -10 9 -10 9 0 16 5 16 10 0 6 -4 10 -9 10 -6 0
-13 -4 -16 -10z"/>
<path d="M385 2740 c3 -5 8 -10 11 -10 2 0 4 5 4 10 0 6 -5 10 -11 10 -5 0 -7
-4 -4 -10z"/>
<path d="M2325 2730 c-4 -6 5 -10 20 -10 15 0 24 4 20 10 -3 6 -12 10 -20 10
-8 0 -17 -4 -20 -10z"/>
<path d="M9831 2726 c-10 -12 -8 -16 11 -21 13 -4 31 -14 40 -22 14 -13 19
-12 37 6 28 28 27 31 -13 31 -19 0 -38 5 -41 10 -9 14 -20 12 -34 -4z m24 -6
c3 -5 1 -10 -4 -10 -6 0 -11 5 -11 10 0 6 2 10 4 10 3 0 8 -4 11 -10z m50 -20
c-3 -5 -11 -10 -16 -10 -6 0 -7 5 -4 10 3 6 11 10 16 10 6 0 7 -4 4 -10z"/>
<path d="M270 2720 c0 -5 5 -10 11 -10 5 0 7 5 4 10 -3 6 -8 10 -11 10 -2 0
-4 -4 -4 -10z"/>
<path d="M10240 2722 c0 -12 19 -26 26 -19 2 2 -2 10 -11 17 -9 8 -15 8 -15 2z"/>
<path d="M2027 2713 c-13 -12 -7 -53 7 -53 20 0 29 16 21 40 -6 20 -17 25 -28
13z"/>
<path d="M10212 2672 c-10 -7 -10 -11 3 -22 13 -11 15 -10 9 4 -7 19 7 21 25
4 11 -11 13 -10 9 2 -5 18 -28 23 -46 12z"/>
<path d="M608 2643 c7 -3 16 -2 19 1 4 3 -2 6 -13 5 -11 0 -14 -3 -6 -6z"/>
<path d="M10767 2585 c-7 -16 8 -29 23 -20 10 6 2 35 -10 35 -4 0 -10 -7 -13
-15z"/>
<path d="M170 2570 c0 -5 5 -10 10 -10 6 0 10 5 10 10 0 6 -4 10 -10 10 -5 0
-10 -4 -10 -10z"/>
<path d="M1755 2470 c-12 -4 -26 -14 -32 -21 -13 -18 -23 -118 -12 -125 5 -3
9 -22 9 -43 0 -23 6 -44 15 -51 9 -7 14 -18 11 -25 -2 -7 8 -11 30 -11 19 1
34 4 34 9 0 4 9 7 21 7 13 0 23 10 30 30 6 17 16 30 22 30 6 0 8 3 5 6 -4 3
-2 19 2 34 14 50 -61 172 -104 169 -6 0 -20 -4 -31 -9z"/>
<path d="M897 2454 c-14 -14 -7 -25 13 -22 12 2 21 8 21 13 0 12 -24 18 -34 9z"/>
<path d="M1464 2396 c-60 -21 -108 -80 -120 -146 -14 -74 -13 -99 2 -114 8 -9
20 -13 26 -10 6 4 8 -1 3 -15 -4 -14 -2 -21 8 -21 25 0 107 32 107 42 0 5 4 7
9 3 10 -5 51 32 51 46 0 4 7 15 16 23 8 9 17 24 19 33 2 10 6 25 10 34 3 9 -1
21 -10 29 -8 7 -15 22 -15 34 0 23 -32 58 -60 68 -8 3 -29 0 -46 -6z"/>
<path d="M570 2310 c0 -12 17 -12 45 0 17 7 15 9 -12 9 -18 1 -33 -3 -33 -9z"/>
<path d="M9636 2242 c-9 -14 21 -35 40 -28 8 3 14 12 12 19 -6 15 -44 22 -52
9z"/>
<path d="M634 2216 c-18 -8 -46 -34 -63 -59 -43 -63 -59 -77 -79 -70 -14 5
-13 2 3 -11 11 -10 14 -14 7 -11 -10 5 -13 0 -10 -21 1 -16 7 -32 13 -36 6 -5
2 -8 -7 -8 -10 0 -18 -4 -18 -10 0 -5 8 -6 18 -3 14 6 15 4 5 -9 -11 -12 -9
-17 10 -27 42 -22 92 -31 138 -25 41 5 48 10 59 39 8 21 22 36 37 40 20 5 22
8 12 26 -6 12 -7 19 -1 15 14 -9 22 20 9 33 -8 8 -7 11 5 11 16 0 16 20 0 60
-3 8 -6 17 -6 20 -4 16 -24 39 -43 49 -28 14 -50 14 -89 -3z"/>
<path d="M8 2203 c7 -3 16 -2 19 1 4 3 -2 6 -13 5 -11 0 -14 -3 -6 -6z"/>
<path d="M414 2155 c8 -8 18 -15 22 -15 3 0 1 7 -6 15 -7 8 -17 15 -22 15 -5
0 -3 -7 6 -15z"/>
<path d="M40 2122 c0 -14 6 -22 16 -22 14 0 15 3 3 18 -7 9 -15 19 -16 21 -2
2 -3 -5 -3 -17z"/>
<path d="M1631 2098 c-12 -4 -29 -22 -39 -39 -9 -17 -24 -39 -33 -50 -11 -12
-16 -34 -15 -57 2 -20 -1 -42 -6 -49 -5 -7 -5 -14 2 -18 5 -3 10 -13 10 -21 0
-43 56 -61 107 -35 54 27 82 87 78 167 -4 83 -46 124 -104 102z"/>
<path d="M210 2070 c0 -5 5 -10 11 -10 5 0 7 5 4 10 -3 6 -8 10 -11 10 -2 0
-4 -4 -4 -10z"/>
<path d="M1924 2055 c-4 -10 -1 -21 7 -26 23 -14 31 -10 27 13 -4 27 -26 35
-34 13z"/>
<path d="M20 2039 c0 -5 5 -7 10 -4 6 3 10 8 10 11 0 2 -4 4 -10 4 -5 0 -10
-5 -10 -11z"/>
<path d="M48 1983 c7 -3 16 -2 19 1 4 3 -2 6 -13 5 -11 0 -14 -3 -6 -6z"/>
<path d="M20 1960 c0 -5 5 -10 11 -10 5 0 7 5 4 10 -3 6 -8 10 -11 10 -2 0 -4
-4 -4 -10z"/>
<path d="M870 1950 c0 -5 5 -10 11 -10 5 0 7 5 4 10 -3 6 -8 10 -11 10 -2 0
-4 -4 -4 -10z"/>
<path d="M400 1946 c0 -7 66 -46 76 -46 5 1 -3 8 -18 16 -16 8 -28 19 -28 24
0 6 -7 10 -15 10 -8 0 -15 -2 -15 -4z"/>
<path d="M85 1880 c-3 -5 -1 -10 4 -10 6 0 11 5 11 10 0 6 -2 10 -4 10 -3 0
-8 -4 -11 -10z"/>
<path d="M320 1880 c8 -5 20 -10 25 -10 6 0 3 5 -5 10 -8 5 -19 10 -25 10 -5
0 -3 -5 5 -10z"/>
<path d="M520 1820 c0 -5 5 -10 11 -10 5 0 7 5 4 10 -3 6 -8 10 -11 10 -2 0
-4 -4 -4 -10z"/>
<path d="M2931 1754 c-16 -36 -6 -42 18 -13 24 28 26 39 8 39 -8 0 -19 -12
-26 -26z"/>
<path d="M410 1760 c0 -5 7 -10 16 -10 8 0 12 5 9 10 -3 6 -10 10 -16 10 -5 0
-9 -4 -9 -10z"/>
<path d="M115 1750 c4 -6 11 -8 16 -5 14 9 11 15 -7 15 -8 0 -12 -5 -9 -10z"/>
<path d="M28 1743 c7 -3 16 -2 19 1 4 3 -2 6 -13 5 -11 0 -14 -3 -6 -6z"/>
<path d="M2950 1729 c0 -5 5 -7 10 -4 6 3 10 8 10 11 0 2 -4 4 -10 4 -5 0 -10
-5 -10 -11z"/>
<path d="M1080 1721 c-14 -4 -34 -21 -45 -39 -11 -18 -26 -29 -34 -27 -9 4
-11 0 -7 -10 3 -8 2 -15 -3 -15 -5 0 -5 -18 -1 -40 4 -22 4 -40 1 -40 -4 0 -6
-17 -6 -38 0 -32 3 -38 17 -34 23 6 23 -7 1 -24 -17 -12 -16 -13 6 -14 18 0
22 -4 18 -20 -4 -15 0 -20 14 -20 11 0 19 7 19 18 0 12 4 10 13 -8 7 -14 23
-26 35 -28 12 -2 22 -8 22 -13 0 -5 7 -9 15 -9 8 0 23 -9 31 -19 13 -15 27
-18 67 -15 54 5 70 11 62 24 -6 10 24 22 36 14 5 -3 8 0 7 8 -2 7 2 12 8 11 6
-1 12 9 12 24 0 14 5 29 12 33 9 6 9 9 0 15 -9 6 -9 10 1 16 9 6 10 12 4 17
-6 4 -12 20 -13 36 -3 43 -25 71 -79 103 -27 15 -62 42 -79 60 -20 21 -41 33
-57 33 -14 0 -31 2 -39 4 -7 2 -24 1 -38 -3z"/>
<path d="M445 1710 c-3 -5 -1 -10 4 -10 6 0 11 5 11 10 0 6 -2 10 -4 10 -3 0
-8 -4 -11 -10z"/>
<path d="M3175 1690 c-3 -5 -1 -10 4 -10 6 0 11 5 11 10 0 6 -2 10 -4 10 -3 0
-8 -4 -11 -10z"/>
<path d="M0 1670 c0 -5 5 -10 10 -10 6 0 10 5 10 10 0 6 -4 10 -10 10 -5 0
-10 -4 -10 -10z"/>
<path d="M93 1663 c9 -2 23 -2 30 0 6 3 -1 5 -18 5 -16 0 -22 -2 -12 -5z"/>
<path d="M415 1640 c3 -5 8 -10 11 -10 2 0 4 5 4 10 0 6 -5 10 -11 10 -5 0 -7
-4 -4 -10z"/>
<path d="M330 1606 c0 -2 7 -7 16 -10 8 -3 12 -2 9 4 -6 10 -25 14 -25 6z"/>
<path d="M1635 1569 c-4 -12 -2 -26 5 -33 17 -16 44 22 29 41 -16 19 -27 16
-34 -8z"/>
<path d="M88 1573 c7 -3 16 -2 19 1 4 3 -2 6 -13 5 -11 0 -14 -3 -6 -6z"/>
<path d="M1520 1570 c-12 -8 -10 -10 8 -10 13 0 20 4 17 10 -7 12 -6 12 -25 0z"/>
<path d="M170 1539 c0 -5 9 -9 20 -9 11 0 20 2 20 4 0 2 -9 6 -20 9 -11 3 -20
1 -20 -4z"/>
<path d="M40 1520 c0 -5 7 -10 16 -10 8 0 12 5 9 10 -3 6 -10 10 -16 10 -5 0
-9 -4 -9 -10z"/>
<path d="M1463 1514 c-36 -18 -43 -34 -15 -34 10 0 28 11 40 25 25 29 20 31
-25 9z"/>
<path d="M348 1513 c7 -3 16 -2 19 1 4 3 -2 6 -13 5 -11 0 -14 -3 -6 -6z"/>
<path d="M460 1511 c0 -5 5 -13 10 -16 6 -3 10 -2 10 4 0 5 -4 13 -10 16 -5 3
-10 2 -10 -4z"/>
<path d="M100 1500 c0 -6 7 -10 15 -10 8 0 15 2 15 4 0 2 -7 6 -15 10 -8 3
-15 1 -15 -4z"/>
<path d="M232 1488 c6 -16 45 -17 45 -1 0 7 -11 13 -24 13 -15 0 -23 -5 -21
-12z"/>
<path d="M30 1481 c0 -13 29 -35 37 -27 3 3 1 6 -5 6 -7 0 -12 7 -12 15 0 8
-4 15 -10 15 -5 0 -10 -4 -10 -9z"/>
<path d="M75 1480 c3 -5 8 -10 11 -10 2 0 4 5 4 10 0 6 -5 10 -11 10 -5 0 -7
-4 -4 -10z"/>
<path d="M135 1470 c4 -6 11 -8 16 -5 14 9 11 15 -7 15 -8 0 -12 -5 -9 -10z"/>
<path d="M178 1473 c7 -3 16 -2 19 1 4 3 -2 6 -13 5 -11 0 -14 -3 -6 -6z"/>
<path d="M207 1463 c-3 -5 11 -9 31 -11 40 -3 40 2 0 12 -15 3 -29 3 -31 -1z"/>
<path d="M1675 1460 c3 -5 10 -10 16 -10 5 0 9 5 9 10 0 6 -7 10 -16 10 -8 0
-12 -4 -9 -10z"/>
<path d="M5 1450 c3 -5 8 -10 11 -10 2 0 4 5 4 10 0 6 -5 10 -11 10 -5 0 -7
-4 -4 -10z"/>
<path d="M1410 1452 c0 -6 6 -13 13 -15 7 -4 6 -6 -5 -6 -21 -1 -12 -38 13
-52 15 -7 19 -6 19 6 0 8 -6 15 -12 15 -9 0 -8 4 2 10 11 7 12 14 4 27 -12 20
-34 29 -34 15z"/>
<path d="M241 1416 c-9 -11 -6 -12 14 -8 14 2 22 8 19 13 -8 13 -20 11 -33 -5z"/>
<path d="M1560 1420 c0 -5 5 -10 10 -10 6 0 10 5 10 10 0 6 -4 10 -10 10 -5 0
-10 -4 -10 -10z"/>
<path d="M298 1413 c7 -3 16 -2 19 1 4 3 -2 6 -13 5 -11 0 -14 -3 -6 -6z"/>
<path d="M174 1396 c-11 -6 -19 -17 -16 -24 2 -6 -5 -12 -15 -13 -10 0 -13 -3
-6 -5 18 -8 50 13 56 36 3 11 4 20 4 19 -1 -1 -11 -6 -23 -13z"/>
<path d="M585 1400 c-3 -5 -1 -10 4 -10 6 0 11 5 11 10 0 6 -2 10 -4 10 -3 0
-8 -4 -11 -10z"/>
<path d="M30 1379 c-27 -5 -29 -7 -10 -8 19 -1 22 -3 10 -10 -8 -6 -18 -7 -23
-4 -5 3 -7 -3 -5 -13 2 -10 12 -20 22 -22 14 -3 17 0 13 12 -4 9 -2 15 2 13 5
-1 9 3 10 8 0 6 15 12 33 15 30 5 31 6 8 11 -14 2 -41 2 -60 -2z"/>
<path d="M358 1373 c6 -2 18 -2 25 0 6 3 1 5 -13 5 -14 0 -19 -2 -12 -5z"/>
<path d="M260 1360 c0 -5 5 -10 10 -10 6 0 10 5 10 10 0 6 -4 10 -10 10 -5 0
-10 -4 -10 -10z"/>
<path d="M198 1353 c7 -3 16 -2 19 1 4 3 -2 6 -13 5 -11 0 -14 -3 -6 -6z"/>
<path d="M335 1310 c-16 -7 -17 -9 -3 -9 9 -1 20 4 23 9 7 11 7 11 -20 0z"/>
<path d="M236 1303 c-13 -13 -5 -19 32 -20 20 -1 30 1 22 4 -8 3 -22 9 -31 14
-9 5 -19 5 -23 2z"/>
<path d="M0 1285 c0 -8 3 -14 7 -14 20 3 24 -2 13 -16 -11 -13 -8 -15 14 -16
14 -1 31 -2 36 -3 6 -1 10 4 11 9 0 6 10 14 22 18 20 8 18 10 -18 23 -53 18
-85 18 -85 -1z"/>
<path d="M190 1296 c0 -2 7 -6 15 -10 8 -3 15 -1 15 4 0 6 -7 10 -15 10 -8 0
-15 -2 -15 -4z"/>
<path d="M144 1273 c0 -10 -9 -20 -24 -24 -23 -6 -23 -7 8 -8 28 -1 32 2 32
24 0 14 -4 25 -9 25 -5 0 -8 -8 -7 -17z"/>
<path d="M175 1270 c3 -5 8 -10 11 -10 2 0 4 5 4 10 0 6 -5 10 -11 10 -5 0 -7
-4 -4 -10z"/>
<path d="M1180 1250 c0 -5 5 -10 11 -10 5 0 7 5 4 10 -3 6 -8 10 -11 10 -2 0
-4 -4 -4 -10z"/>
<path d="M5 1212 c-9 -9 -5 -32 6 -32 5 0 7 5 4 10 -3 6 1 10 9 10 20 0 21
-19 1 -26 -8 -4 -12 -10 -9 -15 3 -5 0 -9 -5 -9 -6 0 -11 -4 -11 -9 0 -4 24
-11 52 -14 29 -4 54 -11 56 -17 4 -12 32 -13 32 -1 0 11 -58 35 -82 34 -31 -3
-20 24 12 29 23 3 30 1 26 -9 -4 -10 17 -18 37 -12 1 0 15 -4 30 -10 18 -7 26
-7 22 -1 -3 6 -13 10 -21 10 -8 0 -14 4 -14 9 0 5 -8 11 -17 13 -15 3 -15 4 0
19 15 15 14 17 -15 23 -19 4 -37 1 -46 -6 -9 -7 -13 -8 -10 -3 6 10 -47 17
-57 7z m110 -12 c3 -5 1 -10 -4 -10 -6 0 -11 5 -11 10 0 6 2 10 4 10 3 0 8 -4
11 -10z"/>
<path d="M215 1200 c-18 -8 -17 -9 8 -9 15 -1 27 4 27 9 0 12 -8 12 -35 0z"/>
<path d="M935 1190 c-4 -6 3 -10 14 -10 25 0 27 6 6 13 -8 4 -17 2 -20 -3z"/>
<path d="M390 1160 c-11 -7 -6 -10 22 -10 20 0 40 5 43 10 8 13 -45 13 -65 0z"/>
<path d="M1127 1153 c-3 -5 -1 -17 4 -28 8 -22 10 -20 14 13 2 21 -9 30 -18
15z"/>
<path d="M367 1139 c7 -7 15 -10 18 -7 3 3 -2 9 -12 12 -14 6 -15 5 -6 -5z"/>
<path d="M460 1120 c0 -5 -7 -10 -15 -10 -8 0 -15 -4 -15 -10 0 -13 6 -13 31
0 20 11 26 30 9 30 -5 0 -10 -4 -10 -10z"/>
<path d="M498 1123 c7 -3 16 -2 19 1 4 3 -2 6 -13 5 -11 0 -14 -3 -6 -6z"/>
<path d="M155 1110 c-3 -5 -1 -10 4 -10 6 0 11 5 11 10 0 6 -2 10 -4 10 -3 0
-8 -4 -11 -10z"/>
<path d="M220 1114 c0 -3 7 -12 15 -20 17 -17 46 -12 65 11 11 13 6 15 -34 15
-25 0 -46 -3 -46 -6z"/>
<path d="M380 1110 c-8 -5 -10 -10 -5 -10 6 0 17 5 25 10 8 5 11 10 5 10 -5 0
-17 -5 -25 -10z"/>
<path d="M580 1110 c0 -5 5 -10 11 -10 5 0 7 5 4 10 -3 6 -8 10 -11 10 -2 0
-4 -4 -4 -10z"/>
<path d="M1185 1110 c3 -5 10 -10 16 -10 5 0 9 5 9 10 0 6 -7 10 -16 10 -8 0
-12 -4 -9 -10z"/>
<path d="M1150 1099 c0 -7 -9 -9 -21 -6 -16 4 -18 3 -8 -9 17 -21 44 -17 46 6
1 11 -2 20 -8 20 -5 0 -9 -5 -9 -11z"/>
<path d="M1655 1100 c3 -5 8 -10 11 -10 2 0 4 5 4 10 0 6 -5 10 -11 10 -5 0
-7 -4 -4 -10z"/>
<path d="M0 1088 c0 -5 6 -8 13 -8 8 0 9 -2 1 -8 -7 -4 -12 -26 -12 -49 -1
-31 4 -43 16 -46 16 -4 16 -5 0 -6 -16 -1 -17 -27 -18 -341 0 -302 2 -340 15
-340 10 0 13 5 9 12 -5 8 -2 9 9 5 10 -4 17 -1 17 5 0 9 3 9 11 1 15 -15 -14
-63 -42 -70 -17 -5 -19 -16 -19 -104 0 -55 3 -99 6 -99 4 0 22 17 42 38 19 20
29 30 23 20 -8 -11 -9 -18 -1 -23 5 -3 10 -4 10 0 0 3 10 1 22 -6 18 -10 20
-9 14 6 -5 15 -2 17 26 11 18 -3 38 -13 44 -21 16 -21 23 -19 17 5 -3 11 0 20
6 20 6 0 11 -7 11 -15 0 -8 5 -15 11 -15 6 0 17 -7 25 -15 18 -18 24 -18 44
-4 11 8 12 12 2 16 -13 5 -7 23 9 23 6 0 7 -5 4 -10 -3 -6 1 -10 9 -10 9 0 25
-9 36 -20 13 -13 40 -23 73 -27 78 -9 100 -7 114 13 10 14 17 15 35 6 35 -17
88 -21 88 -6 0 7 -8 10 -20 7 -11 -3 -20 -1 -20 4 0 5 13 10 30 11 21 2 28 -1
24 -11 -3 -8 2 -19 10 -26 12 -10 14 -9 9 8 -9 34 5 71 27 71 14 0 20 7 20 21
0 18 3 19 15 9 8 -6 36 -13 62 -15 26 -2 42 -1 35 1 -18 8 -4 24 21 23 12 0
16 -3 9 -6 -20 -8 -14 -41 9 -48 11 -4 23 -4 26 -1 4 3 0 6 -8 7 -8 0 -3 4 9
10 27 10 40 5 50 -21 5 -13 12 -15 27 -9 17 6 17 8 3 8 -15 1 -28 21 -14 21
21 0 55 -22 50 -33 -2 -7 0 -24 5 -38 5 -13 10 -18 10 -11 1 12 26 11 70 -3
13 -4 21 1 26 17 l8 23 4 -22 c4 -22 4 -22 226 -21 122 1 212 3 199 5 -26 5
-20 23 9 23 21 0 26 15 7 24 -7 3 -2 4 12 1 14 -2 32 0 40 5 13 8 13 10 -1 10
-10 0 -16 7 -15 17 1 15 -6 17 -34 15 -26 -1 -31 0 -20 8 8 5 15 13 15 17 2
31 19 54 35 50 12 -3 20 2 24 16 7 27 -4 44 -16 24 -5 -9 -15 -14 -23 -11 -9
4 -18 -2 -23 -17 -6 -15 -11 -18 -16 -11 -4 7 -4 12 0 12 4 0 -1 9 -11 20 -10
11 -23 17 -28 13 -6 -4 -30 -6 -54 -4 -42 2 -50 -5 -44 -41 0 -5 -9 -8 -21 -8
-18 0 -20 2 -8 10 18 11 9 23 -12 15 -10 -4 -14 -15 -12 -28 3 -15 -1 -12 -12
10 -13 24 -23 31 -43 30 -25 -2 -41 -13 -41 -30 0 -5 4 -6 9 -3 5 3 14 -1 21
-9 10 -12 9 -15 -3 -15 -11 0 -14 -6 -10 -18 3 -9 -3 -5 -15 10 -12 14 -22 33
-22 41 0 13 -6 14 -37 5 -21 -5 -44 -15 -50 -20 -10 -8 -13 -6 -13 6 0 9 -5
16 -10 16 -7 0 -8 -13 -4 -35 4 -23 2 -35 -5 -35 -6 0 -11 16 -11 35 0 19 -4
35 -9 35 -5 0 -7 9 -4 19 3 11 0 28 -7 38 -10 15 -10 13 -6 -14 5 -30 3 -33
-18 -33 -14 0 -31 3 -40 6 -17 7 -22 34 -6 34 6 0 10 -4 10 -10 0 -5 5 -10 12
-10 6 0 4 8 -7 20 -9 10 -20 18 -24 17 -3 -1 -7 2 -8 8 0 5 -18 17 -40 27
l-38 17 37 0 c27 1 40 7 48 21 13 24 4 25 -36 6 -45 -21 -74 -28 -74 -17 0 5
15 13 33 16 17 4 41 13 51 21 18 12 17 13 -10 19 -57 13 -61 16 -60 37 1 16
-6 24 -24 28 -25 6 -25 6 -2 12 12 3 22 2 22 -3 0 -5 7 -9 16 -9 11 0 14 -6 9
-20 -5 -15 -2 -20 12 -20 15 0 19 8 19 36 0 21 -2 32 -4 25 -7 -20 -19 -12
-19 13 0 20 4 23 29 20 16 -2 27 0 24 4 -3 5 13 7 35 5 37 -3 54 10 27 20 -7
3 7 4 31 4 30 -2 45 3 49 12 4 11 -5 13 -46 7 -31 -4 -53 -3 -57 4 -3 5 1 10
9 10 9 0 16 5 16 10 0 6 -11 8 -25 4 -25 -6 -36 10 -12 19 7 3 5 6 -5 6 -10 1
-18 -3 -18 -9 0 -5 -16 -10 -36 -10 -22 0 -33 4 -29 11 4 6 14 8 22 5 17 -7
43 10 43 28 0 6 -4 5 -9 -3 -8 -12 -12 -12 -25 2 -9 9 -13 18 -9 20 11 6 46 2
60 -6 7 -4 28 -10 47 -12 25 -3 36 0 40 11 5 14 1 16 -23 11 -22 -5 -33 -2
-39 9 -9 16 -26 18 -87 10 -29 -4 -34 -3 -20 3 14 7 16 10 5 11 -8 2 -1 6 15
10 27 6 28 8 10 14 -11 4 -28 12 -37 17 -10 5 -30 10 -45 10 -18 1 -21 3 -10
6 22 6 12 23 -14 23 -10 0 -19 5 -19 10 0 6 6 10 14 10 8 0 18 -4 21 -10 7
-12 52 -13 59 -2 3 5 19 7 36 4 19 -3 30 0 30 8 0 7 -17 11 -47 10 -75 -3
-103 3 -48 9 l49 6 -28 19 c-26 16 -28 17 -23 2 4 -11 3 -15 -4 -10 -6 3 -9
14 -6 24 3 13 0 17 -10 13 -8 -3 -12 -12 -9 -19 4 -10 -4 -14 -27 -14 -27 1
-29 2 -14 11 23 14 7 35 -33 44 -21 5 -28 11 -25 26 2 10 0 19 -6 19 -5 0 -9
-4 -9 -10 0 -5 -7 -10 -15 -10 -13 0 -13 3 -3 20 7 11 17 20 21 20 5 0 16 7
25 16 15 15 13 16 -17 9 -22 -5 -31 -4 -27 3 3 5 -2 9 -11 8 -9 0 -18 5 -20
12 -3 7 1 10 10 6 8 -3 18 0 22 7 6 9 -2 10 -30 5 -25 -5 -40 -4 -45 4 -6 9
-13 9 -28 1 -12 -6 -37 -9 -57 -7 -19 3 -35 0 -35 -5 0 -21 -19 -7 -22 16 -2
19 -6 22 -18 15 -13 -8 -13 -11 -1 -19 16 -10 5 -35 -12 -24 -6 4 -25 8 -42
10 -44 5 -58 12 -52 27 9 22 -28 49 -58 43 -17 -3 -28 0 -32 9 -3 8 -10 11
-15 8 -6 -4 -14 0 -19 7 -4 7 -11 10 -15 6 -4 -3 -1 -14 7 -23 11 -14 10 -18
-11 -34 -14 -11 -34 -21 -45 -24 -19 -5 -19 -4 -1 9 10 8 15 19 10 26 -5 9 -1
11 14 7 12 -4 22 -2 22 3 0 5 -12 9 -28 9 -15 0 -43 4 -61 10 -20 5 -39 6 -45
1 -12 -9 -76 -3 -76 8 0 3 -20 6 -45 6 -25 0 -45 -3 -45 -7z m80 -43 c0 -2 -9
-3 -19 -2 -11 0 -18 5 -15 9 4 6 34 0 34 -7z m134 -19 c3 -14 14 -27 24 -29 9
-3 5 -4 -10 -4 -26 1 -33 8 -29 30 0 4 -8 7 -20 7 -11 0 -17 5 -14 10 12 19
43 10 49 -14z m191 -20 c12 -12 12 -15 -3 -21 -9 -3 -18 -1 -20 4 -6 18 -72
14 -72 -4 0 -12 -3 -13 -19 -3 -18 11 -18 13 -3 25 23 17 100 16 117 -1z m119
-46 c-5 -5 -21 -6 -34 -3 -25 7 -25 7 5 13 34 7 43 4 29 -10z m216 10 c0 -5
-2 -10 -4 -10 -2 0 -12 -3 -22 -7 -16 -6 -17 -5 -4 10 17 19 30 22 30 7z
m-310 -9 c0 -5 -9 -7 -20 -4 -11 3 -20 7 -20 9 0 2 9 4 20 4 11 0 20 -4 20 -9z
m-75 -11 c3 -5 -1 -10 -9 -10 -9 0 -16 5 -16 10 0 6 4 10 9 10 6 0 13 -4 16
-10z m215 0 c0 -5 -4 -10 -9 -10 -6 0 -13 5 -16 10 -3 6 1 10 9 10 9 0 16 -4
16 -10z m-18 -23 c14 -11 12 -13 -16 -13 -26 0 -31 3 -22 13 14 15 17 15 38 0z
m-512 -17 c0 -5 -7 -10 -15 -10 -8 0 -15 5 -15 10 0 6 7 10 15 10 8 0 15 -4
15 -10z m277 4 c-3 -3 -12 -4 -19 -1 -8 3 -5 6 6 6 11 1 17 -2 13 -5z m141 -1
c-10 -2 -28 -2 -40 0 -13 2 -5 4 17 4 22 1 32 -1 23 -4z m339 -89 c-3 -3 -12
-4 -19 -1 -8 3 -5 6 6 6 11 1 17 -2 13 -5z m78 -94 c13 -5 14 -9 5 -9 -8 0
-24 4 -35 9 -13 5 -14 9 -5 9 8 0 24 -4 35 -9z m85 -30 c0 -10 -31 -22 -38
-15 -3 3 0 5 7 5 7 0 11 7 8 14 -4 10 -1 13 9 9 7 -3 14 -9 14 -13z m-85 -80
c3 -5 2 -10 -4 -10 -5 0 -13 5 -16 10 -3 6 -2 10 4 10 5 0 13 -4 16 -10z m78
3 c-7 -2 -21 -2 -30 0 -10 3 -4 5 12 5 17 0 24 -2 18 -5z m-13 -72 c0 -5 -9
-7 -20 -4 -11 3 -20 7 -20 9 0 2 9 4 20 4 11 0 20 -4 20 -9z m50 5 c0 -2 -7
-6 -15 -10 -8 -3 -15 -1 -15 4 0 6 7 10 15 10 8 0 15 -2 15 -4z m157 -22 c-3
-3 -12 -4 -19 -1 -8 3 -5 6 6 6 11 1 17 -2 13 -5z m-202 -24 c17 -7 14 -9 -13
-9 -20 -1 -31 3 -27 9 7 12 13 12 40 0z m-115 -30 c0 -5 -2 -10 -4 -10 -3 0
-8 5 -11 10 -3 6 -1 10 4 10 6 0 11 -4 11 -10z m65 0 c3 -5 1 -10 -4 -10 -6 0
-11 5 -11 10 0 6 2 10 4 10 3 0 8 -4 11 -10z m-445 -47 c0 -13 -52 -73 -63
-72 -8 0 -8 2 -1 5 6 3 9 16 6 30 -3 16 1 30 9 35 16 10 49 12 49 2z m-360
-17 c0 -11 -19 -15 -25 -6 -3 5 1 10 9 10 9 0 16 -2 16 -4z m245 -16 c13 -6
15 -9 5 -9 -8 0 -22 4 -30 9 -18 12 -2 12 25 0z m-204 -35 c-49 -28 -54 -30
-49 -14 2 7 19 17 38 24 55 20 58 17 11 -10z m439 11 c0 -3 -4 -8 -10 -11 -5
-3 -10 -1 -10 4 0 6 5 11 10 11 6 0 10 -2 10 -4z m-57 -43 c-7 -2 -19 -2 -25
0 -7 3 -2 5 12 5 14 0 19 -2 13 -5z m447 -43 c0 -5 -5 -10 -11 -10 -5 0 -7 5
-4 10 3 6 8 10 11 10 2 0 4 -4 4 -10z m70 -45 c7 -8 10 -21 7 -28 -3 -9 7 -19
29 -27 26 -11 31 -16 22 -27 -6 -8 -19 -11 -30 -7 -17 5 -19 2 -13 -15 7 -22
-10 -30 -18 -8 -4 9 -8 8 -16 -3 -8 -12 -13 -12 -30 5 -23 20 -20 35 3 16 12
-10 20 -9 40 6 31 22 33 33 4 33 -17 0 -19 3 -10 12 7 7 12 19 12 28 -1 12 -2
12 -11 -3 -9 -15 -12 -16 -25 -2 -17 16 -11 35 10 35 8 0 19 -7 26 -15z m-100
-5 c-8 -5 -19 -10 -25 -10 -5 0 -3 5 5 10 8 5 20 10 25 10 6 0 3 -5 -5 -10z
m16 -31 c3 -6 15 -9 25 -6 11 3 19 1 19 -4 0 -10 -31 -12 -54 -3 -9 3 -16 10
-16 15 0 13 17 11 26 -2z m-39 -5 c-3 -3 -12 -4 -19 -1 -8 3 -5 6 6 6 11 1 17
-2 13 -5z m586 -16 c-4 -7 -6 -21 -5 -30 4 -24 -5 -23 -18 2 -12 23 -6 40 16
40 10 0 12 -5 7 -12z m-126 -18 c1 -11 -2 -22 -6 -25 -7 -3 -8 31 -2 43 3 7 7
0 8 -18z m-137 -16 c0 -9 6 -14 13 -11 6 2 11 10 9 17 -1 6 3 10 10 8 7 -3 14
-11 16 -19 3 -16 -33 -20 -54 -6 -7 4 -14 0 -18 -8 -7 -20 -26 -19 -26 1 0 8
5 12 10 9 6 -3 13 1 16 9 8 21 24 21 24 0z m306 9 c-10 -11 -36 -12 -36 -2 0
5 10 9 22 9 12 0 18 -3 14 -7z m-403 -10 c-7 -2 -19 -2 -25 0 -7 3 -2 5 12 5
14 0 19 -2 13 -5z m299 -15 c-7 -7 -12 -8 -12 -2 0 14 12 26 19 19 2 -3 -1
-11 -7 -17z m-1138 -35 c8 3 18 2 21 -2 3 -5 -9 -8 -26 -7 -16 1 -32 -1 -35
-6 -3 -4 -10 -8 -16 -8 -6 0 -3 8 8 19 11 11 22 14 25 8 4 -5 14 -7 23 -4z
m446 7 c0 -5 -5 -10 -11 -10 -5 0 -7 5 -4 10 3 6 8 10 11 10 2 0 4 -4 4 -10z
m523 -3 c3 -7 -3 -13 -14 -14 -15 -1 -16 1 -6 12 15 18 14 18 20 2z m-93 -7
c0 -5 -4 -10 -10 -10 -5 0 -10 5 -10 10 0 6 5 10 10 10 6 0 10 -4 10 -10z
m147 -10 c-1 -11 -4 -20 -7 -20 -3 0 -11 9 -18 20 -11 17 -10 20 7 20 14 0 19
-6 18 -20z m223 10 c0 -5 -2 -10 -4 -10 -3 0 -8 5 -11 10 -3 6 -1 10 4 10 6 0
11 -4 11 -10z m-475 -10 c3 -6 -1 -7 -9 -4 -18 7 -21 14 -7 14 6 0 13 -4 16
-10z m155 -22 c0 -4 -6 -5 -14 -2 -8 3 -12 12 -9 21 5 12 7 12 14 1 5 -7 9
-16 9 -20z m290 23 c0 -6 -4 -13 -10 -16 -5 -3 -10 1 -10 9 0 9 5 16 10 16 6
0 10 -4 10 -9z m-885 -11 c3 -5 1 -10 -4 -10 -6 0 -11 5 -11 10 0 6 2 10 4 10
3 0 8 -4 11 -10z m55 -5 c0 -8 -7 -15 -16 -15 -14 0 -14 3 -4 15 7 8 14 15 16
15 2 0 4 -7 4 -15z m497 -1 c-3 -3 -12 -4 -19 -1 -8 3 -5 6 6 6 11 1 17 -2 13
-5z m-54 -29 c-5 -13 -23 -22 -23 -11 0 15 14 35 21 31 4 -3 6 -12 2 -20z
m232 15 c3 -5 -1 -10 -9 -10 -9 0 -16 5 -16 10 0 6 4 10 9 10 6 0 13 -4 16
-10z m-1070 -10 c3 -5 1 -10 -4 -10 -6 0 -11 5 -11 10 0 6 2 10 4 10 3 0 8 -4
11 -10z m1020 -20 c-3 -5 -12 -10 -18 -10 -7 0 -6 4 3 10 19 12 23 12 15 0z"/>
<path d="M1180 1075 c0 -8 -9 -20 -20 -27 -11 -7 -20 -16 -20 -21 0 -4 9 -3
20 3 11 6 20 7 20 3 1 -13 30 30 30 44 0 7 -7 13 -15 13 -8 0 -15 -7 -15 -15z"/>
<path d="M685 1070 c3 -5 8 -10 11 -10 2 0 4 5 4 10 0 6 -5 10 -11 10 -5 0 -7
-4 -4 -10z"/>
<path d="M640 1053 c14 -9 28 -22 32 -27 5 -8 8 -8 8 0 0 15 -33 44 -51 44 -7
0 -2 -8 11 -17z"/>
<path d="M1560 1058 c0 -9 5 -20 11 -23 17 -11 20 0 4 21 -13 17 -14 17 -15 2z"/>
<path d="M1751 1046 c-17 -20 -3 -68 18 -64 21 4 26 51 8 66 -11 10 -17 9 -26
-2z"/>
<path d="M460 1029 c0 -11 47 -12 54 -1 3 5 -8 9 -24 10 -17 0 -30 -4 -30 -9z"/>
<path d="M950 1020 c0 -5 5 -10 11 -10 5 0 7 5 4 10 -3 6 -8 10 -11 10 -2 0
-4 -4 -4 -10z"/>
<path d="M1105 1020 c-3 -5 -1 -10 4 -10 6 0 11 5 11 10 0 6 -2 10 -4 10 -3 0
-8 -4 -11 -10z"/>
<path d="M978 988 c5 -5 16 -8 23 -6 8 3 3 7 -10 11 -17 4 -21 3 -13 -5z"/>
<path d="M1060 990 c0 -6 8 -14 18 -17 9 -4 20 -11 24 -17 5 -7 8 -6 8 2 0 8
-9 16 -20 19 -11 3 -17 9 -14 14 3 5 0 9 -5 9 -6 0 -11 -5 -11 -10z"/>
<path d="M1194 985 c8 -8 21 -15 28 -15 8 1 6 6 -6 15 -26 20 -42 19 -22 0z"/>
<path d="M1118 983 c7 -3 16 -2 19 1 4 3 -2 6 -13 5 -11 0 -14 -3 -6 -6z"/>
<path d="M868 973 c7 -3 16 -2 19 1 4 3 -2 6 -13 5 -11 0 -14 -3 -6 -6z"/>
<path d="M1005 965 l-30 -13 32 -1 c17 -1 34 3 38 8 10 17 -9 19 -40 6z"/>
<path d="M880 950 c-9 -6 -10 -10 -3 -10 6 0 15 5 18 10 8 12 4 12 -15 0z"/>
<path d="M890 930 c-8 -5 -11 -12 -8 -16 4 -3 14 1 23 10 18 17 9 21 -15 6z"/>
<path d="M956 911 c-3 -5 3 -11 15 -14 16 -4 18 -3 8 9 -13 16 -16 17 -23 5z"/>
<path d="M1077 909 c7 -7 15 -10 18 -7 3 3 -2 9 -12 12 -14 6 -15 5 -6 -5z"/>
<path d="M830 900 c0 -7 24 -20 36 -20 13 0 1 19 -16 23 -11 3 -20 2 -20 -3z"/>
<path d="M885 870 c3 -5 8 -10 11 -10 2 0 4 5 4 10 0 6 -5 10 -11 10 -5 0 -7
-4 -4 -10z"/>
<path d="M1098 793 c7 -3 16 -2 19 1 4 3 -2 6 -13 5 -11 0 -14 -3 -6 -6z"/>
<path d="M1065 760 c3 -5 8 -10 11 -10 2 0 4 5 4 10 0 6 -5 10 -11 10 -5 0 -7
-4 -4 -10z"/>
<path d="M1150 739 c0 -5 5 -7 10 -4 6 3 10 8 10 11 0 2 -4 4 -10 4 -5 0 -10
-5 -10 -11z"/>
<path d="M1090 736 c0 -9 40 -13 46 -5 3 5 -6 9 -20 9 -14 0 -26 -2 -26 -4z"/>
<path d="M1108 703 c6 -2 18 -2 25 0 6 3 1 5 -13 5 -14 0 -19 -2 -12 -5z"/>
<path d="M1147 683 c-4 -3 1 -12 11 -19 11 -9 13 -16 6 -21 -6 -5 -13 -16 -17
-25 -4 -12 -2 -15 9 -11 7 3 14 1 14 -4 0 -5 9 -9 20 -10 11 -1 35 -9 52 -17
37 -19 58 -20 58 -5 0 6 9 9 20 6 23 -6 27 8 5 17 -8 3 -14 11 -13 18 2 7 -7
14 -19 16 -15 2 -23 -2 -23 -12 0 -8 -4 -18 -10 -21 -6 -3 -7 1 -4 9 7 18 -7
21 -23 5 -8 -8 -16 -8 -30 2 -26 20 -27 38 0 31 12 -3 16 -7 9 -10 -7 -2 -10
-8 -6 -13 10 -18 24 -9 24 16 0 20 -5 25 -24 25 -13 0 -26 7 -30 15 -6 16 -18
19 -29 8z m147 -87 c-3 -9 -10 -16 -15 -16 -6 0 -5 9 1 21 13 24 24 20 14 -5z"/>
<path d="M1095 670 c3 -5 8 -10 11 -10 2 0 4 5 4 10 0 6 -5 10 -11 10 -5 0 -7
-4 -4 -10z"/>
<path d="M1388 673 c7 -3 16 -2 19 1 4 3 -2 6 -13 5 -11 0 -14 -3 -6 -6z"/>
<path d="M1276 652 c-3 -5 1 -9 9 -9 8 0 15 4 15 9 0 4 -4 8 -9 8 -6 0 -12 -4
-15 -8z"/>
<path d="M1356 644 c-5 -14 -4 -15 9 -4 17 14 19 20 6 20 -5 0 -12 -7 -15 -16z"/>
<path d="M2166 592 c-3 -6 -1 -14 5 -17 15 -10 25 3 12 16 -7 7 -13 7 -17 1z"/>
<path d="M1120 580 c0 -5 10 -10 23 -10 18 0 19 2 7 10 -19 13 -30 13 -30 0z"/>
<path d="M1215 564 c9 -9 19 -13 23 -10 3 4 0 11 -8 16 -24 15 -33 11 -15 -6z"/>
<path d="M4295 561 c-7 -13 32 -34 47 -25 7 5 5 11 -7 21 -22 15 -32 16 -40 4z"/>
<path d="M1415 530 c3 -5 11 -10 16 -10 6 0 7 5 4 10 -3 6 -11 10 -16 10 -6 0
-7 -4 -4 -10z"/>
<path d="M1290 510 c0 -5 5 -10 10 -10 6 0 10 5 10 10 0 6 -4 10 -10 10 -5 0
-10 -4 -10 -10z"/>
<path d="M1160 490 c0 -5 5 -10 11 -10 5 0 7 5 4 10 -3 6 -8 10 -11 10 -2 0
-4 -4 -4 -10z"/>
<path d="M1195 491 c-3 -5 -1 -12 5 -16 5 -3 10 1 10 9 0 18 -6 21 -15 7z"/>
<path d="M1077 476 c-4 -9 4 -13 24 -14 25 -1 27 1 15 14 -18 18 -32 18 -39 0z"/>
<path d="M1281 485 c0 -5 6 -19 14 -29 8 -11 15 -15 15 -10 0 6 -7 19 -15 30
-8 10 -14 15 -14 9z"/>
<path d="M1235 470 c3 -5 8 -10 11 -10 2 0 4 5 4 10 0 6 -5 10 -11 10 -5 0 -7
-4 -4 -10z"/>
<path d="M2082 453 c-6 -2 -10 -9 -7 -13 7 -11 35 -2 35 11 0 10 -8 10 -28 2z"/>
<path d="M1020 440 c0 -5 5 -10 10 -10 6 0 10 5 10 10 0 6 -4 10 -10 10 -5 0
-10 -4 -10 -10z"/>
<path d="M1190 398 c0 -4 -12 -6 -27 -3 -22 4 -23 4 -8 -3 21 -9 71 -9 80 0 3
3 -6 8 -20 10 -14 3 -25 1 -25 -4z"/>
<path d="M1096 384 c-5 -14 -4 -15 9 -4 17 14 19 20 6 20 -5 0 -12 -7 -15 -16z"/>
<path d="M1258 393 c7 -3 16 -2 19 1 4 3 -2 6 -13 5 -11 0 -14 -3 -6 -6z"/>
<path d="M1423 393 c9 -2 23 -2 30 0 6 3 -1 5 -18 5 -16 0 -22 -2 -12 -5z"/>
<path d="M1058 383 c7 -3 16 -2 19 1 4 3 -2 6 -13 5 -11 0 -14 -3 -6 -6z"/>
<path d="M1308 353 c7 -3 16 -2 19 1 4 3 -2 6 -13 5 -11 0 -14 -3 -6 -6z"/>
<path d="M3390 342 c-27 -22 -48 -113 -44 -184 2 -28 -1 -48 -7 -48 -6 0 -3
-7 5 -16 9 -8 14 -20 11 -25 -4 -5 -2 -9 4 -9 5 0 12 6 14 13 4 9 6 9 6 0 1
-7 7 -13 15 -13 8 0 16 -4 18 -9 2 -5 18 -7 37 -3 27 6 38 17 58 54 44 83 42
174 -3 228 -30 35 -79 41 -114 12z"/>
<path d="M1268 343 c7 -3 16 -2 19 1 4 3 -2 6 -13 5 -11 0 -14 -3 -6 -6z"/>
<path d="M1208 303 c7 -3 16 -2 19 1 4 3 -2 6 -13 5 -11 0 -14 -3 -6 -6z"/>
<path d="M1320 300 c0 -5 18 -9 39 -7 21 1 37 5 34 10 -6 11 -73 9 -73 -3z"/>
<path d="M1434 280 c2 -16 20 -14 24 2 3 10 2 10 -6 -1 -7 -9 -11 -10 -15 -2
-4 7 -5 8 -3 1z"/>
<path d="M1610 280 c0 -5 5 -10 10 -10 6 0 10 5 10 10 0 6 -4 10 -10 10 -5 0
-10 -4 -10 -10z"/>
<path d="M1795 280 c-3 -5 -1 -10 4 -10 6 0 11 5 11 10 0 6 -2 10 -4 10 -3 0
-8 -4 -11 -10z"/>
<path d="M1236 271 c-3 -5 8 -14 26 -20 l32 -11 -21 20 c-25 22 -29 24 -37 11z"/>
<path d="M1410 260 c0 -5 5 -10 11 -10 5 0 7 5 4 10 -3 6 -8 10 -11 10 -2 0
-4 -4 -4 -10z"/>
<path d="M1521 253 c7 -10 14 -20 16 -22 1 -2 1 6 0 18 -1 11 -8 21 -15 21
-12 0 -12 -3 -1 -17z"/>
<path d="M1185 240 c-19 -8 -19 -9 3 -9 12 -1 22 4 22 9 0 6 -1 10 -2 9 -2 0
-12 -4 -23 -9z"/>
<path d="M1355 233 c21 -15 45 -17 45 -4 0 5 -14 11 -32 13 -28 5 -29 4 -13
-9z"/>
<path d="M1240 233 c1 -20 17 -29 40 -23 l25 7 -28 12 c-33 13 -37 13 -37 4z"/>
<path d="M1677 188 c-4 -12 -1 -28 5 -36 9 -10 8 -16 -2 -22 -17 -10 -23 -47
-9 -55 6 -5 6 -12 -3 -23 -11 -14 -10 -15 5 -9 10 4 21 7 23 7 3 0 2 5 -1 10
-3 6 1 10 9 10 9 0 16 -7 16 -15 0 -8 -9 -15 -20 -15 -10 0 -24 -9 -30 -20
-10 -18 -8 -20 30 -20 22 0 40 5 40 11 0 6 -9 8 -20 4 -11 -4 -20 -2 -20 4 0
6 6 11 14 11 16 0 26 21 26 57 0 19 -3 23 -12 15 -7 -5 -22 -6 -32 -3 -17 7
-17 9 -4 22 11 10 13 21 7 42 -4 15 -8 30 -8 33 1 17 -9 12 -14 -8z"/>
<path d="M1705 180 c3 -5 10 -10 16 -10 5 0 9 5 9 10 0 6 -7 10 -16 10 -8 0
-12 -4 -9 -10z"/>
<path d="M1764 165 c-3 -8 -3 -19 1 -25 9 -15 25 -2 18 15 -6 18 8 20 26 3 10
-11 11 -10 6 5 -9 21 -43 23 -51 2z"/>
<path d="M1630 150 c0 -5 5 -10 11 -10 5 0 7 5 4 10 -3 6 -8 10 -11 10 -2 0
-4 -4 -4 -10z"/>
<path d="M1720 130 c0 -5 5 -10 10 -10 6 0 10 5 10 10 0 6 -4 10 -10 10 -5 0
-10 -4 -10 -10z"/>
<path d="M1806 101 c-3 -5 2 -15 12 -22 15 -13 16 -12 4 3 -10 13 -10 17 0 21
9 4 9 6 1 6 -6 1 -14 -3 -17 -8z"/>
<path d="M4172 99 c2 -7 10 -15 17 -17 8 -3 12 1 9 9 -2 7 -10 15 -17 17 -8 3
-12 -1 -9 -9z"/>
<path d="M955 70 c3 -5 8 -10 11 -10 2 0 4 5 4 10 0 6 -5 10 -11 10 -5 0 -7
-4 -4 -10z"/>
<path d="M148 53 c6 -2 18 -2 25 0 6 3 1 5 -13 5 -14 0 -19 -2 -12 -5z"/>
<path d="M775 50 c-3 -5 1 -10 10 -10 9 0 13 5 10 10 -3 6 -8 10 -10 10 -2 0
-7 -4 -10 -10z"/>
<path d="M1768 53 c-11 -3 -18 -13 -17 -26 0 -12 3 -16 6 -9 2 6 11 12 19 12
8 0 14 7 14 15 0 8 -1 14 -2 14 -2 -1 -11 -3 -20 -6z"/>
<path d="M993 43 c-15 -5 -18 -43 -4 -43 5 0 11 10 14 22 7 26 6 27 -10 21z"/>
<path d="M1623 25 c-3 -9 -3 -19 1 -22 8 -9 37 18 30 28 -8 14 -24 11 -31 -6z"/>
<path d="M3340 30 c0 -5 5 -10 11 -10 5 0 7 5 4 10 -3 6 -8 10 -11 10 -2 0 -4
-4 -4 -10z"/>
<path d="M305 20 c4 -6 11 -8 16 -5 14 9 11 15 -7 15 -8 0 -12 -5 -9 -10z"/>
<path d="M337 16 c-4 -10 -1 -13 9 -9 7 3 14 9 14 14 0 14 -17 10 -23 -5z"/>
<path d="M578 3 c6 -2 18 -2 25 0 6 3 1 5 -13 5 -14 0 -19 -2 -12 -5z"/>
</g>
</svg>
