<?xml version="1.0" standalone="no"?>
<!DOCTYPE svg PUBLIC "-//W3C//DTD SVG 20010904//EN"
 "http://www.w3.org/TR/2001/REC-SVG-20010904/DTD/svg10.dtd">
<svg version="1.0" xmlns="http://www.w3.org/2000/svg"
 width="1080.000000pt" height="1080.000000pt" viewBox="0 0 1080.000000 1080.000000"
 preserveAspectRatio="xMidYMid meet">

<g transform="translate(0.000000,1080.000000) scale(0.100000,-0.100000)"
fill="#000000" stroke="none">
<path d="M0 8670 l0 -2130 38 -2 c20 0 44 0 52 1 78 12 571 -11 1049 -49 68
-6 138 -10 155 -11 29 0 28 -2 -21 -24 -67 -30 -169 -100 -177 -120 -3 -9 -6
-38 -6 -65 0 -42 4 -52 31 -75 29 -23 32 -33 37 -95 5 -69 -20 -204 -39 -216
-19 -11 -8 -24 20 -24 25 0 31 -6 45 -47 9 -27 23 -71 30 -98 7 -28 24 -62 39
-77 24 -24 27 -25 49 -10 23 16 23 15 5 -5 -10 -12 -58 -38 -105 -58 -126 -54
-215 -100 -250 -129 -19 -17 -32 -22 -34 -15 -2 7 -42 28 -88 48 -64 27 -90
44 -107 70 -21 30 -22 36 -8 51 30 33 57 186 57 327 0 115 3 137 19 157 35 45
35 79 -2 120 -32 37 -77 66 -101 66 -7 -1 1 -7 17 -14 40 -18 85 -64 85 -88 0
-16 -13 -8 -62 37 -60 54 -65 56 -105 50 -33 -5 -44 -2 -55 13 -25 35 -51 43
-108 29 -37 -8 -59 -20 -73 -39 -12 -16 -29 -28 -39 -28 -28 0 -65 -28 -88
-65 -20 -33 -20 -35 -5 -185 17 -160 31 -201 77 -227 13 -7 17 -12 10 -13 -7
0 -23 5 -34 11 -28 15 -44 -2 -27 -30 12 -19 10 -23 -19 -48 -19 -17 -43 -53
-57 -88 -29 -74 -49 -95 -136 -146 l-69 -40 0 -222 0 -222 40 -134 c36 -122
42 -156 24 -138 -4 3 -19 41 -35 84 l-28 78 0 -2417 -1 -2418 3850 0 c3655 0
3852 1 3883 18 17 9 53 32 79 50 30 20 48 28 48 20 1 -8 6 -5 15 6 8 11 15 16
15 10 -1 -23 -27 -43 -50 -37 -15 4 -21 3 -16 -5 4 -6 -13 -20 -41 -33 l-48
-23 32 -4 c23 -2 89 18 215 67 101 38 318 117 483 176 165 58 329 116 365 130
36 13 130 46 210 75 80 28 188 67 240 87 52 19 185 66 295 105 110 38 272 97
360 130 88 33 215 79 282 103 153 54 177 68 108 60 -62 -7 -125 -25 -125 -37
0 -4 -5 -8 -11 -8 -5 0 -31 -9 -57 -21 -83 -37 -105 -46 -197 -77 -49 -17
-142 -49 -205 -73 -63 -23 -127 -42 -142 -42 -15 0 -25 -4 -22 -8 5 -9 -16
-13 -51 -11 -14 2 -16 0 -7 -6 9 -6 -10 -15 -55 -28 -37 -10 -72 -17 -77 -16
-16 5 -46 -10 -40 -20 4 -6 -3 -9 -17 -7 -29 3 -69 -9 -69 -21 0 -4 -9 -6 -20
-3 -12 3 -20 0 -20 -7 0 -7 -7 -10 -15 -6 -8 3 -15 2 -15 -3 0 -14 -50 -31
-93 -31 -28 0 -37 -3 -28 -9 11 -7 9 -10 -7 -15 -11 -4 -24 -6 -28 -5 -5 1
-26 -6 -48 -15 -41 -18 -62 -15 -26 4 12 6 19 14 16 17 -3 3 -16 -4 -30 -15
-14 -10 -23 -22 -20 -25 3 -2 -8 -9 -24 -15 -25 -9 -30 -8 -28 6 2 8 11 19 22
23 16 6 16 8 2 8 -9 1 -20 -4 -23 -9 -3 -6 -23 -19 -43 -30 -27 -15 -30 -19
-12 -15 l25 6 -25 -15 c-28 -17 -44 -20 -36 -7 4 5 -4 7 -16 3 -14 -3 -19 -2
-14 6 4 7 2 12 -3 12 -15 0 -14 -30 2 -30 6 -1 -1 -7 -18 -14 -25 -11 -31 -11
-38 1 -4 7 -13 13 -18 13 -6 0 -17 6 -25 14 -10 11 -11 15 -1 19 9 4 9 7 0 18
-19 19 -16 28 7 22 24 -6 26 9 5 27 -9 7 -15 8 -15 2 0 -5 -9 -8 -20 -5 -12 3
-20 0 -20 -7 0 -7 -7 -10 -15 -6 -8 3 -15 1 -15 -5 0 -6 -7 -9 -15 -5 -8 3
-113 -24 -232 -59 -280 -83 -286 -85 -290 -82 -8 9 24 67 37 67 17 0 280 65
410 101 113 32 512 160 535 172 11 6 27 11 35 12 48 5 52 8 15 16 -22 4 -53 6
-68 3 -26 -6 -27 -7 -10 -20 16 -12 14 -13 -20 -9 -21 2 -42 7 -48 11 -6 3
-16 -1 -22 -10 -9 -12 -21 -15 -44 -10 -18 4 -30 10 -27 15 4 8 -123 15 -163
10 -8 -1 -11 9 -9 29 3 30 16 55 16 32 0 -20 51 -14 57 6 3 14 11 18 31 14 26
-4 26 -4 7 11 -19 16 -19 16 5 11 19 -4 21 -3 10 4 -10 7 -41 3 -100 -12 -47
-13 -139 -37 -205 -55 -66 -17 -198 -55 -294 -83 -170 -50 -198 -53 -208 -22
-2 5 43 25 99 43 77 26 98 36 83 41 -11 4 -22 4 -25 0 -8 -12 -31 -14 -77 -5
-24 4 -40 12 -37 17 3 5 -7 6 -23 3 -25 -5 -24 -3 7 10 23 10 26 13 10 10 -14
-3 -46 -8 -71 -11 -42 -6 -48 -4 -70 23 -13 17 -66 54 -117 83 l-93 53 43 25
c79 47 214 150 260 200 131 140 137 274 17 392 -71 69 -151 116 -296 177 -62
26 -113 50 -113 53 0 3 54 32 120 65 l119 59 138 -17 c261 -33 429 -58 643
-97 118 -21 280 -49 360 -60 176 -27 763 -123 915 -150 173 -31 213 -38 325
-60 58 -11 204 -36 325 -55 121 -19 235 -37 253 -41 l32 -6 0 741 c0 407 -2
741 -5 741 -8 0 -367 40 -450 50 -44 5 -208 23 -365 40 -157 17 -361 39 -455
50 -93 10 -199 22 -235 25 -70 7 -511 62 -572 72 -21 3 -42 11 -48 18 -8 10
11 15 87 25 86 10 449 69 708 115 102 18 203 33 490 76 324 48 417 60 470 63
103 6 378 50 359 57 -17 7 -17 8 -1 8 16 1 17 29 17 435 l0 433 -185 7 c-101
4 -197 11 -212 15 l-28 8 30 7 c17 3 71 13 120 21 122 19 214 34 248 41 25 5
27 9 27 55 0 47 -1 49 -27 48 -43 -2 -78 -14 -75 -27 1 -7 -3 -12 -9 -12 -5 0
-7 -5 -4 -10 3 -5 2 -10 -4 -10 -5 0 -11 -6 -14 -12 -2 -7 -2 -4 1 7 2 11 4
36 3 55 -1 19 1 54 4 77 7 50 22 54 73 23 18 -11 37 -20 42 -20 7 0 10 314 10
888 l0 889 -26 11 c-14 7 -38 12 -55 12 -18 0 -28 4 -24 10 4 6 -6 10 -22 10
-15 0 -41 9 -58 20 -36 24 -96 26 -155 5 -23 -8 -58 -15 -76 -15 -19 0 -34 -4
-34 -10 0 -5 5 -10 10 -10 6 0 10 -4 10 -10 0 -5 -22 -10 -50 -10 -64 0 -90
-23 -90 -80 0 -53 23 -96 55 -104 23 -6 25 -10 25 -69 1 -163 45 -297 126
-387 31 -34 43 -41 66 -38 15 3 28 2 28 -2 0 -6 -23 -18 -162 -79 -49 -21 -71
-37 -82 -60 -23 -44 -136 -358 -136 -377 0 -9 -8 -18 -19 -21 -18 -4 -18 -8
-4 -61 8 -32 32 -88 53 -127 21 -38 43 -88 50 -110 7 -22 17 -49 23 -59 9 -19
10 -18 27 4 10 13 26 25 36 26 11 2 31 6 47 10 26 6 27 5 27 -33 0 -22 3 -60
6 -85 5 -37 3 -45 -9 -45 -9 0 -19 7 -21 14 -3 8 -1 11 4 8 15 -9 12 7 -5 29
-8 11 -15 28 -15 39 0 41 -25 8 -28 -37 -5 -82 -17 -68 -163 207 -66 124 -77
152 -69 172 8 20 4 30 -18 54 -15 16 -37 32 -50 36 -26 8 -27 12 -6 54 15 31
15 40 -6 149 -36 191 -61 229 -230 345 -96 66 -105 75 -108 107 -3 28 -1 33 9
23 19 -19 63 -16 82 5 42 46 74 146 87 267 6 66 21 145 31 176 15 42 17 63 10
82 -9 23 -7 28 23 47 60 37 72 116 27 179 -26 37 -73 54 -96 37 -14 -10 -26
-8 -69 14 -28 14 -95 43 -149 65 -91 36 -101 38 -140 28 -26 -7 -46 -8 -51 -2
-13 12 -41 11 -89 -3 -38 -11 -39 -13 -16 -19 l24 -6 -25 -11 c-31 -12 -69
-65 -106 -146 -27 -59 -27 -60 -19 -215 12 -271 16 -241 -28 -256 -76 -26
-134 -108 -123 -174 6 -40 7 -39 -83 -89 -126 -69 -260 -148 -297 -174 -46
-33 -64 -66 -99 -184 -16 -54 -24 -70 -26 -51 -1 15 -3 32 -4 37 -1 6 -3 21
-4 35 -1 18 -10 29 -38 40 -44 18 -52 14 -25 -15 36 -38 46 -76 33 -119 -6
-21 -11 -47 -11 -59 0 -11 -6 -22 -14 -25 -10 -4 -15 6 -20 33 -3 21 -4 44 -1
52 3 7 -1 55 -9 107 l-14 93 43 59 c68 93 94 155 105 250 17 145 13 207 -14
254 -25 42 -78 85 -128 104 l-28 11 0 304 0 304 73 6 c109 10 147 17 147 26 0
5 21 7 48 4 26 -3 128 4 227 15 99 11 297 34 440 51 143 16 359 39 480 50 121
11 256 25 300 31 81 10 223 26 508 55 144 16 157 19 157 37 0 18 -5 19 -72 13
-40 -3 -152 -13 -248 -21 -96 -8 -233 -22 -303 -30 -79 -8 -137 -10 -150 -5
-12 5 -20 9 -17 10 3 0 68 7 145 15 137 13 577 70 623 80 22 5 23 7 20 142 -2
106 -6 137 -17 141 -8 3 -11 0 -7 -7 4 -7 2 -9 -7 -5 -8 3 -14 11 -14 17 0 7
-1 23 -2 37 -2 23 -3 24 -11 5 -8 -18 -9 -17 -9 8 -1 15 3 27 7 27 5 0 16 18
26 40 10 22 22 40 27 40 5 0 9 412 9 1014 l0 1013 -62 7 c-35 4 -83 16 -108
26 -38 16 -80 20 -265 23 -222 5 -458 30 -576 61 -77 21 -260 110 -310 152
-30 25 -47 32 -64 28 -20 -5 -25 -1 -31 22 -16 61 93 333 187 470 62 89 198
234 220 234 9 0 26 11 39 25 l23 25 -4926 0 -4927 0 0 -2130z m6692 1598 c14
-11 17 -63 22 -398 4 -212 9 -417 12 -456 5 -64 4 -74 -14 -92 -30 -30 -89
-39 -110 -18 -14 14 -17 44 -20 194 -1 97 -4 182 -7 189 -3 8 -22 6 -72 -6
l-68 -17 -3 -195 c-3 -217 -3 -219 -73 -219 -71 0 -69 -12 -69 491 l0 447 29
11 c16 7 46 11 67 9 l39 -3 3 -189 2 -189 63 7 c34 4 65 10 68 14 4 4 9 93 11
198 3 137 7 196 17 207 11 14 24 18 77 26 5 0 17 -5 26 -11z m1567 -36 c62
-34 85 -108 60 -193 -16 -52 -51 -83 -95 -83 -44 0 -57 19 -38 55 17 34 18 61
2 77 -46 46 -158 -46 -199 -162 -10 -31 -30 -129 -44 -219 -41 -268 -45 -277
-116 -277 -27 0 -42 6 -53 21 l-14 21 -30 -22 c-16 -12 -48 -24 -70 -27 -39
-5 -45 -3 -75 31 l-34 36 -19 -21 c-42 -48 -137 -64 -195 -33 -19 10 -39 33
-52 62 -20 43 -22 61 -20 211 2 158 2 163 -16 147 -14 -13 -21 -38 -25 -94 -9
-97 -40 -215 -71 -268 -35 -60 -100 -121 -150 -140 -93 -35 -193 10 -235 107
-81 187 17 556 173 653 111 69 231 17 273 -119 10 -30 21 -55 24 -55 12 0 40
83 50 145 5 32 14 63 19 68 15 15 94 26 113 16 23 -13 23 -43 -3 -297 -17
-163 -19 -213 -10 -243 23 -77 89 -55 128 43 27 67 48 185 67 377 9 97 18 146
27 152 23 14 95 10 109 -6 14 -17 3 -189 -31 -465 -19 -156 -19 -165 -3 -177
30 -22 54 -15 69 20 7 18 27 145 44 282 17 138 34 271 37 297 7 61 29 80 85
76 l44 -3 -3 -49 -2 -49 46 42 c83 77 166 99 233 63z m-5109 -138 c73 -17 171
-67 237 -121 202 -165 323 -569 268 -889 -32 -183 -142 -340 -301 -427 -88
-49 -251 -104 -351 -119 -68 -10 -85 -9 -136 7 -81 25 -101 53 -94 128 3 32 8
61 11 64 3 3 20 -4 39 -16 42 -26 53 -26 66 -2 13 23 5 74 -54 361 -25 118
-63 305 -85 415 -53 259 -45 238 -78 221 -15 -8 -43 -30 -61 -50 -42 -43 -63
-45 -109 -10 -88 68 -80 214 16 295 56 46 189 107 293 134 112 29 242 32 339
9z m2747 -142 c6 -4 14 -19 18 -33 l7 -27 50 34 c54 37 93 42 136 20 58 -30
93 -94 107 -192 13 -99 22 -468 12 -485 -29 -46 -118 -65 -137 -30 -6 12 -10
101 -11 213 -1 207 -13 294 -42 312 -15 9 -22 6 -42 -18 -44 -55 -57 -125 -62
-339 -5 -187 -6 -198 -26 -212 -35 -24 -82 -19 -107 12 l-21 27 -15 -22 c-21
-30 -66 -52 -107 -52 -27 0 -42 8 -64 34 l-30 33 -45 -43 c-79 -75 -175 -79
-246 -11 -36 35 -35 36 -73 -35 -20 -39 -47 -52 -90 -46 -35 5 -47 40 -59 183
-19 220 -57 425 -79 425 -17 0 -41 -94 -51 -196 -6 -63 -6 -151 0 -235 5 -74
9 -142 10 -152 0 -29 -45 -67 -80 -67 -40 0 -44 12 -65 191 -22 201 -65 352
-92 326 -20 -20 -19 -179 2 -429 7 -84 7 -87 -18 -112 -31 -31 -81 -35 -96 -8
-5 10 -17 75 -26 143 -29 222 -69 389 -94 389 -31 0 -42 -188 -21 -355 24
-195 24 -211 1 -234 -29 -29 -86 -29 -105 2 -8 12 -18 51 -21 87 -15 143 -66
544 -75 583 -18 79 -14 95 30 117 67 34 110 23 110 -29 0 -54 16 -55 53 -2 46
64 85 85 149 79 59 -6 109 -40 149 -99 l28 -43 16 39 c51 124 85 167 150 189
51 18 99 6 141 -35 53 -51 73 -127 103 -391 11 -91 25 -177 33 -190 11 -21 13
-16 19 54 13 159 104 261 269 302 l45 11 3 58 c4 76 -14 107 -63 107 -27 0
-39 -7 -59 -33 -15 -19 -26 -38 -26 -44 0 -16 -32 -41 -63 -48 -18 -5 -35 -2
-52 9 -72 47 20 194 149 236 21 7 63 10 94 8 51 -5 59 -9 98 -51 52 -58 61
-104 68 -342 6 -196 15 -242 52 -251 14 -4 30 -2 36 4 7 7 9 111 6 328 l-5
316 31 14 c35 15 75 18 93 6z m2471 -261 c5 -44 5 -70 -1 -68 -5 1 -11 25 -13
52 -2 28 -6 66 -9 85 -4 26 -3 31 4 19 6 -9 14 -48 19 -88z m1053 42 c13 -16
12 -17 -3 -4 -10 7 -18 15 -18 17 0 8 8 3 21 -13z m-1080 -50 c2 -23 0 -45 -4
-49 -4 -4 -7 17 -7 46 0 62 7 64 11 3z m-6834 15 c-3 -8 -6 -5 -6 6 -1 11 2
17 5 13 3 -3 4 -12 1 -19z m2559 -40 c55 -36 80 -103 104 -268 46 -321 55
-350 106 -350 39 0 32 -44 -15 -91 -53 -53 -97 -54 -139 -3 l-29 35 -30 -40
c-40 -55 -72 -78 -125 -92 -50 -14 -78 -9 -126 21 -67 41 -101 175 -72 280 26
95 127 195 227 227 l55 17 -5 64 c-5 67 -32 112 -68 112 -27 0 -58 -32 -72
-75 -15 -43 -65 -85 -101 -85 -38 0 -66 28 -66 66 0 83 80 169 190 205 43 14
129 2 166 -23z m-2513 -145 c5 -7 4 -13 -2 -13 -11 0 -16 15 -30 94 -17 93
-11 100 8 11 9 -44 20 -86 24 -92z m8338 21 c-5 -16 -10 -21 -10 -12 -1 18 10
51 15 45 2 -1 -1 -16 -5 -33z m-184 -56 c-3 -8 -6 -5 -6 6 -1 11 2 17 5 13 3
-3 4 -12 1 -19z m-60 -40 c-2 -13 -4 -5 -4 17 -1 22 1 32 4 23 2 -10 2 -28 0
-40z m-346 -5 c-12 -20 -14 -14 -5 12 4 9 9 14 11 11 3 -2 0 -13 -6 -23z m178
-1 c-1 -15 -2 -15 -6 1 -2 9 -9 14 -15 11 -7 -4 -8 -2 -4 5 10 15 26 4 25 -17z
m-86 3 c-3 -9 -8 -14 -10 -11 -3 3 -2 9 2 15 9 16 15 13 8 -4z m-8413 -25
c-19 -11 -42 -19 -50 -19 -8 0 3 8 25 18 52 25 70 26 25 1z m8307 -32 c-3 -7
-5 -2 -5 12 0 14 2 19 5 13 2 -7 2 -19 0 -25z m884 -12 c-9 -18 -18 -29 -19
-24 -4 8 24 58 32 58 2 0 -4 -15 -13 -34z m-9255 12 c4 -6 3 -8 -4 -4 -5 3
-12 2 -14 -3 -1 -5 -39 -36 -83 -69 -135 -101 -216 -191 -286 -319 -22 -39
-46 -77 -54 -83 -28 -23 -15 -30 23 -14 141 63 345 105 672 140 326 34 841
-26 1073 -125 l49 -21 -21 34 c-22 35 -27 51 -12 42 13 -8 81 -150 81 -169 0
-43 -159 -127 -316 -167 -107 -27 -308 -51 -424 -50 -74 1 -107 -3 -148 -19
-66 -26 -131 -26 -202 0 -30 11 -82 22 -115 25 -453 34 -719 97 -757 179 -8
18 -7 31 7 57 9 18 28 64 42 101 41 113 133 254 156 240 7 -3 9 -3 5 2 -11 11
12 36 25 28 5 -3 7 -1 4 4 -8 13 17 36 27 25 4 -4 6 -1 4 7 -5 20 121 104 137
91 9 -7 16 -5 26 7 12 15 12 16 -3 10 -25 -9 -22 0 3 14 15 8 19 8 15 0 -10
-16 7 -13 30 5 17 14 17 15 1 10 -11 -4 -16 -2 -12 5 4 5 16 7 27 3 13 -4 18
-2 14 4 -3 6 0 13 6 15 7 3 14 6 15 6 1 1 5 -4 9 -11z m9105 -30 c-3 -21 -6
-26 -9 -15 -3 17 3 47 11 47 2 0 1 -15 -2 -32z m-224 -60 c-3 -8 -6 -5 -6 6
-1 11 2 17 5 13 3 -3 4 -12 1 -19z m-130 -45 c-3 -10 -5 -4 -5 12 0 17 2 24 5
18 2 -7 2 -21 0 -30z m-145 -25 c-8 -8 -9 -4 -5 13 4 13 8 18 11 10 2 -7 -1
-18 -6 -23z m-1182 2 c277 -18 523 -61 574 -101 13 -10 27 -19 31 -19 15 0 34
-35 35 -61 0 -30 -55 -86 -117 -117 -105 -54 -327 -102 -469 -102 -71 0 -79
-2 -112 -31 -49 -43 -92 -59 -159 -59 -60 0 -130 25 -168 59 -17 15 -45 19
-167 24 -244 10 -266 17 -403 116 -22 16 -57 34 -77 41 -26 7 -38 17 -38 29 0
30 38 145 55 166 16 20 16 20 6 -2 -20 -40 -12 -61 9 -23 24 43 26 24 3 -25
-9 -19 -14 -37 -11 -40 2 -3 34 8 69 23 35 16 94 36 130 45 93 23 405 69 524
77 55 4 105 7 110 8 6 1 84 -3 175 -8z m1217 -12 c-3 -8 -6 -5 -6 6 -1 11 2
17 5 13 3 -3 4 -12 1 -19z m-2174 -3 c-3 -9 -8 -14 -10 -11 -3 3 -2 9 2 15 9
16 15 13 8 -4z m1537 -29 c0 -12 -5 -7 -19 24 -11 24 -11 24 3 6 9 -11 16 -24
16 -30z m1077 38 c-3 -3 -12 -4 -19 -1 -8 3 -5 6 6 6 11 1 17 -2 13 -5z m-142
-34 c-11 -5 -27 -9 -35 -9 -9 0 -8 4 5 9 11 5 27 9 35 9 9 0 8 -4 -5 -9z
m-905 -64 c0 -12 -5 -7 -19 24 -11 24 -11 24 3 6 9 -11 16 -24 16 -30z m-2682
-36 c18 -11 41 -34 53 -52 45 -72 5 -233 -71 -285 -50 -34 -59 -31 -48 20 17
79 21 174 9 182 -43 26 -119 -135 -161 -341 -30 -145 -33 -141 53 -98 107 54
126 58 139 29 9 -19 7 -30 -6 -50 -22 -34 -95 -80 -160 -101 -28 -9 -55 -20
-60 -25 -5 -4 15 -34 47 -69 116 -125 191 -345 191 -565 1 -91 -3 -121 -23
-176 -45 -127 -129 -213 -205 -211 -120 1 -183 105 -193 317 -6 113 9 364 31
538 7 53 10 97 7 97 -3 0 -27 -7 -52 -16 -53 -19 -79 -14 -79 15 0 25 31 55
96 92 l51 29 8 83 c4 45 21 141 39 212 49 194 113 308 205 367 53 33 84 35
129 8z m3029 -16 c-3 -3 -12 -4 -19 -1 -8 3 -5 6 6 6 11 1 17 -2 13 -5z m-40
-10 c-3 -3 -12 -4 -19 -1 -8 3 -5 6 6 6 11 1 17 -2 13 -5z m695 -44 c3 -16 1
-30 -4 -30 -4 0 -8 14 -8 30 0 17 2 30 4 30 2 0 6 -13 8 -30z m178 10 c0 -5
-5 -10 -11 -10 -5 0 -7 5 -4 10 3 6 8 10 11 10 2 0 4 -4 4 -10z m-630 -60 c0
-5 -2 -10 -4 -10 -3 0 -8 5 -11 10 -3 6 -1 10 4 10 6 0 11 -4 11 -10z m-3710
-15 c38 -20 65 -89 56 -148 -14 -92 -88 -207 -133 -207 -12 0 -14 8 -9 38 13
87 18 152 12 167 -15 39 -77 -37 -110 -137 -13 -40 -56 -266 -56 -296 0 -12
28 -3 135 42 83 35 87 34 83 -16 -3 -40 -7 -45 -58 -76 -30 -18 -81 -42 -112
-54 -32 -11 -58 -22 -58 -24 0 -2 16 -25 36 -51 117 -153 180 -386 172 -638
-4 -115 -9 -151 -27 -198 -87 -224 -294 -204 -358 33 -23 85 -23 378 1 568 9
74 16 147 16 164 l0 30 -34 -30 c-19 -16 -47 -38 -64 -47 -28 -17 -30 -22 -35
-99 -17 -229 -139 -406 -282 -406 -46 0 -112 28 -139 59 -11 11 -22 21 -26 21
-4 0 -21 -27 -39 -59 -43 -81 -103 -159 -154 -200 -148 -119 -334 -115 -459
11 -151 151 -195 469 -113 815 48 203 118 344 227 459 92 96 164 134 257 134
82 0 133 -22 184 -80 52 -56 67 -96 67 -173 0 -91 -24 -151 -84 -213 -58 -60
-106 -78 -161 -63 -56 16 -87 105 -49 143 20 20 19 20 54 -6 l30 -22 25 24
c47 44 56 120 18 163 -35 38 -128 11 -189 -55 -46 -49 -79 -112 -113 -215 -81
-249 -77 -540 10 -673 39 -59 72 -82 129 -88 104 -10 192 84 215 228 14 86 45
86 85 1 13 -28 28 -51 33 -51 5 0 6 8 2 18 -4 9 -9 69 -12 132 -6 137 10 228
57 322 104 209 241 277 356 176 45 -40 65 -78 79 -153 l11 -60 66 67 65 66 12
95 c26 205 89 389 166 483 37 44 122 94 162 94 13 0 37 -7 53 -15z m3547 -27
c-3 -8 -6 -5 -6 6 -1 11 2 17 5 13 3 -3 4 -12 1 -19z m240 0 c-3 -8 -6 -5 -6
6 -1 11 2 17 5 13 3 -3 4 -12 1 -19z m-210 -20 c-3 -7 -5 -2 -5 12 0 14 2 19
5 13 2 -7 2 -19 0 -25z m-100 -10 c-3 -8 -6 -5 -6 6 -1 11 2 17 5 13 3 -3 4
-12 1 -19z m67 -4 c3 -8 2 -12 -4 -9 -6 3 -10 10 -10 16 0 14 7 11 14 -7z
m-2024 -46 c87 -44 108 -140 55 -253 -51 -108 -201 -231 -318 -260 -31 -8 -33
-21 -13 -69 53 -127 233 -59 385 146 109 147 110 148 129 141 25 -8 42 -33 42
-60 0 -60 -103 -216 -208 -315 -159 -150 -338 -180 -445 -75 l-42 42 -80 -81
c-62 -62 -99 -90 -164 -122 -74 -37 -91 -42 -153 -42 -113 0 -172 44 -213 159
-22 62 -20 200 5 296 51 199 211 365 352 365 96 0 141 -49 142 -155 1 -144
-132 -299 -316 -370 -51 -19 -57 -31 -38 -79 27 -71 96 -86 187 -40 58 28 162
133 182 182 10 23 20 32 37 32 23 0 24 3 24 73 0 212 125 414 305 489 55 23
93 22 145 -4z m1955 12 c3 -5 1 -10 -4 -10 -6 0 -11 5 -11 10 0 6 2 10 4 10 3
0 8 -4 11 -10z m250 -10 c-3 -5 -12 -10 -18 -10 -7 0 -6 4 3 10 19 12 23 12
15 0z m462 -32 c-3 -8 -6 -5 -6 6 -1 11 2 17 5 13 3 -3 4 -12 1 -19z m-60 -30
c-3 -7 -5 -2 -5 12 0 14 2 19 5 13 2 -7 2 -19 0 -25z m-227 -2 c0 -2 -8 -10
-17 -17 -16 -13 -17 -12 -4 4 13 16 21 21 21 13z m-143 -88 c-3 -8 -6 -5 -6 6
-1 11 2 17 5 13 3 -3 4 -12 1 -19z m-1187 8 c0 -2 -9 -6 -20 -9 -11 -3 -18 -1
-14 4 5 9 34 13 34 5z m1107 -18 c-3 -8 -6 -5 -6 6 -1 11 2 17 5 13 3 -3 4
-12 1 -19z m566 15 c-7 -2 -19 -2 -25 0 -7 3 -2 5 12 5 14 0 19 -2 13 -5z
m-60 -10 c-7 -2 -19 -2 -25 0 -7 3 -2 5 12 5 14 0 19 -2 13 -5z m-60 -10 c-7
-2 -19 -2 -25 0 -7 3 -2 5 12 5 14 0 19 -2 13 -5z m-558 -53 c3 -5 1 -10 -4
-10 -6 0 -11 5 -11 10 0 6 2 10 4 10 3 0 8 -4 11 -10z m-162 -135 c-3 -9 -8
-14 -10 -11 -3 3 -2 9 2 15 9 16 15 13 8 -4z m184 -37 c-3 -7 -5 -2 -5 12 0
14 2 19 5 13 2 -7 2 -19 0 -25z m-1212 -3 c66 -18 116 -43 123 -63 6 -20 -93
-14 -213 13 -61 14 -148 30 -195 36 -47 7 -87 13 -89 15 -1 1 0 8 4 15 11 17
291 5 370 -16z m1142 -7 c-3 -8 -6 -5 -6 6 -1 11 2 17 5 13 3 -3 4 -12 1 -19z
m-5774 -39 c12 -7 50 -34 85 -61 61 -49 90 -84 78 -96 -9 -9 -173 76 -211 110
-32 28 -44 56 -29 71 6 6 39 -4 77 -24z m-251 -38 c79 -27 154 -54 168 -60
l25 -11 -25 4 c-14 3 -99 14 -189 26 -158 20 -201 33 -201 62 0 10 37 26 62
27 9 1 81 -21 160 -48z m6755 -3 c-3 -8 -6 -5 -6 6 -1 11 2 17 5 13 3 -3 4
-12 1 -19z m-174 -13 c-3 -9 -8 -14 -10 -11 -3 3 -2 9 2 15 9 16 15 13 8 -4z
m124 -7 c-3 -8 -6 -5 -6 6 -1 11 2 17 5 13 3 -3 4 -12 1 -19z m-6477 -58 c12
-8 11 -10 -7 -10 -13 0 -23 5 -23 10 0 13 11 13 30 0z m4160 -24 c0 -8 -11
-21 -25 -30 -24 -16 -26 -16 -32 0 -4 11 2 24 16 36 24 19 41 16 41 -6z m1817
2 c-3 -8 -6 -5 -6 6 -1 11 2 17 5 13 3 -3 4 -12 1 -19z m-1400 -130 c-3 -8 -6
-5 -6 6 -1 11 2 17 5 13 3 -3 4 -12 1 -19z m2017 -147 c-2 -3 -12 3 -22 13
-16 17 -16 18 5 5 12 -7 20 -15 17 -18z m-6529 -29 l30 -9 -35 -7 c-19 -3
-119 -19 -221 -36 -102 -16 -214 -38 -250 -50 -78 -24 -126 -25 -151 -3 -22
19 -23 33 -4 58 10 14 46 24 147 41 113 20 159 23 294 19 88 -2 174 -8 190
-13z m93 -174 c-3 -7 -65 -49 -139 -93 -74 -45 -178 -111 -232 -148 -54 -37
-107 -67 -118 -67 -25 0 -69 43 -69 68 0 49 146 137 325 195 164 54 240 68
233 45z m3435 -43 c247 -43 432 -163 525 -341 51 -100 72 -183 72 -294 0 -208
-82 -393 -247 -551 -84 -81 -140 -120 -303 -212 -112 -63 -161 -98 -216 -152
-119 -118 -183 -281 -153 -389 9 -30 23 -55 39 -65 l24 -16 -24 33 c-21 29
-25 44 -24 105 1 88 28 163 89 246 56 76 128 132 269 212 214 120 316 202 412
329 35 46 80 121 100 166 l37 82 76 6 c95 9 240 31 264 41 16 7 17 -11 17
-300 l0 -306 -49 -48 c-31 -31 -54 -63 -62 -90 -12 -41 -12 -43 17 -131 3 -9
-1 -7 -10 4 -20 25 -20 8 -1 -18 8 -11 15 -14 15 -8 0 8 14 4 40 -10 30 -18
40 -30 42 -53 3 -25 -37 -323 -48 -362 -1 -7 -41 -30 -88 -53 -107 -51 -149
-92 -197 -195 -53 -113 -74 -199 -109 -440 -37 -260 -40 -276 -50 -270 -4 2
-10 28 -14 56 l-7 51 -90 -7 c-84 -6 -89 -5 -89 13 0 14 11 24 32 31 89 31
110 45 105 69 -4 20 -2 23 17 17 11 -4 34 -9 49 -12 24 -5 28 -3 25 13 -2 11
-8 19 -15 19 -6 0 -15 3 -19 8 -4 4 -16 7 -26 7 -16 0 -18 10 -20 93 -1 50 -1
110 0 132 2 22 -3 50 -10 63 -13 25 -63 54 -110 66 -30 7 -41 46 -13 46 38 0
115 126 115 188 0 15 -11 50 -24 79 -22 46 -29 53 -67 63 -33 9 -53 9 -84 0
-97 -29 -135 -77 -135 -173 0 -75 -27 -107 -121 -142 -108 -42 -131 -70 -164
-206 -15 -63 -32 -121 -37 -129 -7 -11 -8 -8 -4 10 3 14 10 80 17 145 8 93 8
137 -2 193 -14 84 -29 98 -65 58 -14 -14 -35 -26 -48 -26 -25 0 -51 -41 -36
-56 5 -5 3 -17 -4 -26 -11 -14 -15 -3 -31 75 -44 223 -157 490 -239 565 -25
23 -52 42 -61 42 -13 0 -11 8 9 48 55 110 79 202 84 323 5 133 -13 225 -72
361 -23 53 -30 81 -23 83 12 4 325 39 452 50 39 4 185 19 325 35 336 38 323
37 327 23 3 -8 -5 -13 -19 -14 -17 -1 -18 -3 -5 -6 9 -2 17 -10 17 -16 -1 -32
-99 -190 -197 -317 l-27 -35 43 40 c99 93 191 241 232 375 19 62 23 97 23 200
-1 140 -17 201 -76 293 -75 117 -279 218 -512 253 -116 17 -234 8 -411 -32
-178 -40 -190 -40 -85 6 112 49 182 68 305 85 126 18 228 18 328 0z m-3243
-91 c0 -3 -22 -31 -49 -62 -59 -69 -133 -180 -190 -283 -49 -90 -82 -129 -110
-129 -23 0 -51 35 -51 64 0 69 218 325 327 384 58 32 73 37 73 26z m6200 -196
c5 -40 10 -96 10 -125 0 -49 -1 -52 -30 -58 -38 -8 -47 -2 -60 43 -25 90 -5
228 34 234 28 4 35 -9 46 -94z m-585 -98 c27 -53 36 -133 17 -152 -7 -7 -40
-14 -75 -16 -82 -5 -97 8 -97 84 0 56 17 102 52 140 18 20 21 21 49 7 18 -9
39 -34 54 -63z m-728 18 c-3 -7 -5 -2 -5 12 0 14 2 19 5 13 2 -7 2 -19 0 -25z
m-1985 1 c33 -18 77 -72 89 -111 16 -51 4 -103 -35 -146 -30 -32 -39 -36 -94
-40 -60 -4 -63 -3 -98 32 -35 35 -37 39 -31 92 6 61 42 131 83 163 30 23 55
26 86 10z m-1520 -76 c9 -27 22 -76 29 -111 20 -108 58 -156 184 -239 128 -85
160 -118 182 -192 19 -65 7 -139 -31 -200 -51 -81 -225 -204 -280 -199 -31 3
-50 28 -21 28 51 0 138 127 157 229 10 53 9 63 -11 104 -12 25 -56 78 -98 119
-145 139 -165 161 -185 206 -25 57 -34 145 -19 199 11 39 54 103 70 103 3 0
14 -21 23 -47z m3539 -14 c40 -21 67 -114 48 -168 -14 -39 -41 -51 -113 -51
-47 0 -54 3 -64 25 -25 54 -7 151 35 197 17 19 57 17 94 -3z m326 -91 c-2 -13
-4 -5 -4 17 -1 22 1 32 4 23 2 -10 2 -28 0 -40z m-7410 -14 c-3 -3 -12 -4 -19
-1 -8 3 -5 6 6 6 11 1 17 -2 13 -5z m8040 -70 c-3 -3 -12 -4 -19 -1 -8 3 -5 6
6 6 11 1 17 -2 13 -5z m-423 -32 c2 -4 -7 -9 -22 -10 -15 -2 -40 -5 -57 -7
-16 -2 -75 -7 -130 -9 l-100 -5 120 18 c137 21 182 24 189 13z m133 2 c-3 -3
-12 -4 -19 -1 -8 3 -5 6 6 6 11 1 17 -2 13 -5z m-2724 -21 c-7 -2 -21 -2 -30
0 -10 3 -4 5 12 5 17 0 24 -2 18 -5z m2197 -29 c-90 -13 -177 -18 -168 -8 7 6
155 21 213 21 23 0 4 -5 -45 -13z m-2662 -97 c139 -201 213 -440 191 -617 -28
-227 -159 -443 -348 -572 -166 -113 -317 -175 -656 -269 -367 -102 -599 -219
-765 -388 -131 -132 -200 -285 -185 -407 9 -75 59 -168 126 -238 l58 -59 70 6
70 6 7 -37 c3 -20 12 -64 19 -97 7 -33 13 -61 12 -61 -1 -1 -144 -7 -317 -13
-322 -11 -495 -26 -703 -62 -93 -15 -122 -17 -139 -8 -36 19 -50 38 -45 59 7
26 -6 25 -102 0 -100 -28 -175 -68 -179 -98 -3 -19 6 -27 60 -52 164 -76 488
-128 1058 -169 1249 -91 2389 -19 2638 166 42 31 40 47 -5 76 -65 41 -85 40
-60 -1 11 -17 1 -45 -22 -59 -16 -10 -28 -9 -65 7 -162 72 -663 132 -1306 155
-91 4 -173 9 -183 12 -14 4 -9 12 28 42 25 21 74 55 108 75 l62 38 190 -6
c185 -6 558 -35 720 -57 128 -17 477 -87 541 -109 80 -28 154 -78 169 -114 14
-33 12 -163 -5 -381 -5 -65 -7 -121 -5 -124 3 -2 58 12 123 33 165 52 242 66
363 66 224 0 401 -65 544 -202 167 -158 238 -321 238 -548 1 -126 -19 -212
-73 -322 -32 -64 -80 -148 -85 -148 -2 0 12 33 31 74 42 88 84 250 84 324 0
29 -7 84 -16 123 -52 230 -193 423 -380 520 -199 104 -411 106 -704 5 -55 -19
-108 -32 -118 -29 -13 3 -24 -7 -40 -35 -12 -22 -22 -47 -22 -56 0 -25 -15
-19 -29 11 -8 18 -12 92 -12 237 0 210 6 266 29 274 9 3 12 -21 12 -87 0 -103
14 -126 29 -49 11 60 23 178 17 178 -2 0 -28 -11 -59 -25 -31 -13 -95 -35
-143 -49 -48 -14 -89 -28 -92 -30 -2 -3 -10 -69 -18 -148 -15 -158 -32 -297
-45 -373 -30 -167 -32 -175 -47 -175 -10 0 -13 7 -9 22 4 12 1 28 -5 35 -8 10
-7 46 6 136 32 241 57 459 52 465 -3 3 -46 -1 -96 -7 -93 -13 -159 -29 -127
-30 26 -1 23 -68 -18 -399 -40 -327 -43 -341 -54 -323 -6 10 -10 10 -16 2 -4
-7 -2 -18 5 -26 8 -10 8 -15 -1 -21 -7 -4 -10 -3 -6 2 3 5 -1 18 -9 29 -9 12
-14 14 -14 5 0 -7 -3 -10 -7 -7 -3 4 -11 3 -17 -2 -7 -5 -37 5 -76 26 -36 18
-56 31 -44 28 13 -3 21 -1 21 8 0 9 -7 12 -19 9 -15 -4 -17 0 -13 24 33 196
81 611 72 620 -2 2 -107 -3 -233 -12 -309 -21 -1235 -30 -1494 -15 -235 14
-460 34 -675 62 -162 20 -231 34 -120 23 33 -3 152 -14 265 -24 113 -11 273
-27 355 -35 203 -21 526 -29 778 -20 114 4 207 9 205 11 -2 2 -178 8 -391 14
-562 15 -821 35 -1252 95 -363 52 -535 90 -682 152 l-63 26 0 42 c0 86 64 127
282 180 215 53 692 116 755 100 44 -11 15 12 -44 35 -136 54 -256 123 -318
184 -198 194 -171 438 75 687 191 193 376 279 850 394 470 115 612 160 802
255 303 151 488 352 584 637 21 62 28 103 31 198 5 115 0 155 -34 275 -6 22
-5 23 9 12 9 -7 38 -45 66 -85z m1636 23 c-30 -12 -175 -33 -182 -26 -3 3 -3
8 0 11 5 5 135 21 183 23 19 1 19 0 -1 -8z m271 -72 c3 -29 6 -171 8 -315 1
-145 5 -263 8 -263 3 0 9 69 13 153 9 183 22 337 24 284 2 -49 26 -45 29 4 4
82 17 170 24 175 5 3 19 -1 31 -7 13 -7 40 -12 61 -10 l37 2 0 -219 c0 -120 3
-253 6 -294 l7 -75 -43 -7 c-23 -4 -69 -20 -103 -37 -33 -16 -61 -28 -62 -27
-30 46 -49 68 -63 72 -16 5 -17 29 -14 298 1 161 4 299 7 306 10 28 24 9 30
-40z m-7450 -203 c61 -2 127 -7 148 -10 23 -3 36 -2 33 4 -4 5 7 6 26 1 29 -8
182 -20 443 -35 158 -9 362 -26 475 -40 63 -8 203 -19 310 -25 107 -7 206 -16
220 -21 14 -5 68 -11 120 -14 52 -3 122 -8 155 -11 33 -2 77 -4 98 -4 21 0 37
-4 37 -10 0 -6 4 -9 9 -5 5 3 13 0 17 -6 8 -14 -108 -9 -371 15 -148 14 -857
73 -1335 111 -113 9 -248 21 -300 26 -52 5 -134 12 -182 16 -49 3 -88 9 -88
13 0 3 17 5 38 3 20 -2 87 -5 147 -8z m4229 -59 c4 -36 1 -59 -13 -91 -22 -49
-58 -77 -147 -115 -35 -14 -73 -37 -85 -51 -29 -33 -53 -69 -48 -73 2 -2 82
-9 178 -15 95 -6 179 -14 185 -18 6 -4 22 -6 35 -4 13 1 28 -3 33 -11 7 -10
11 -10 15 0 6 16 122 16 226 0 l77 -12 -2 -195 -3 -195 -130 -42 c-103 -34
-570 -154 -596 -154 -7 0 -5 38 3 46 3 3 2 19 -2 35 -5 16 -6 29 -3 29 15 0
-21 29 -44 35 -43 10 -80 -11 -88 -52 -8 -44 12 -68 58 -68 24 0 32 -5 35 -20
3 -16 1 -18 -9 -7 -17 16 -29 15 -29 -1 0 -7 -21 -20 -47 -29 -27 -9 -69 -25
-94 -34 l-47 -18 -36 27 c-20 16 -36 25 -36 21 0 -3 -8 0 -17 7 -14 12 -16 12
-8 0 5 -10 4 -12 -3 -7 -19 12 -14 23 14 30 19 5 24 10 17 17 -8 8 -17 7 -31
0 -29 -16 -37 -14 -21 6 8 9 9 14 2 10 -6 -4 -18 0 -26 8 -9 8 -27 15 -41 15
-14 0 -27 4 -30 8 -7 12 -42 8 -60 -7 -14 -12 -23 -11 -59 4 -23 9 -52 21 -64
26 l-23 9 0 299 c0 165 4 302 8 305 5 3 96 -3 203 -14 107 -10 224 -21 260
-24 l66 -5 23 49 c30 65 50 81 140 114 204 75 204 75 215 146 4 25 12 56 17
70 12 32 23 14 32 -54z m1145 -108 c1 -70 -3 -137 -8 -150 -17 -44 -130 -185
-191 -238 l-60 -52 0 220 0 221 123 84 c144 99 135 105 136 -85z m-2344 92 c4
-21 2 -47 -3 -57 -12 -21 14 -73 36 -73 8 0 12 -6 8 -15 -3 -9 0 -15 9 -15 12
0 15 -15 15 -66 l0 -66 -27 8 c-16 5 -47 8 -70 8 l-43 0 0 91 c0 75 4 102 27
162 16 39 31 69 35 67 3 -2 9 -22 13 -44z m-717 -115 c17 0 32 -3 32 -7 0 -4
8 -9 18 -11 9 -2 6 -3 -8 -1 -14 1 -76 6 -138 10 -62 4 -112 10 -112 15 0 4
39 4 88 1 48 -3 102 -6 120 -7z m843 -161 l4 -129 -24 48 c-21 44 -23 58 -19
137 6 94 16 128 29 94 4 -11 8 -78 10 -150z m-1751 92 c437 -35 699 -54 945
-67 116 -6 211 -12 212 -13 1 -1 3 -34 4 -74 1 -53 6 -72 16 -72 7 0 13 5 13
10 0 10 41 31 49 24 8 -7 -41 -72 -59 -77 -18 -5 -20 -14 -20 -84 0 -44 3 -83
7 -86 3 -4 17 0 30 8 21 14 23 14 23 -3 0 -10 8 -26 19 -36 12 -11 20 -37 25
-78 3 -34 13 -88 22 -119 17 -60 30 -69 104 -69 20 0 29 -6 33 -22 7 -26 -8
-58 -28 -58 -7 0 -16 -3 -19 -8 -2 -4 13 -6 35 -4 65 7 44 -15 -33 -33 -124
-30 -182 -72 -228 -165 -35 -70 -58 -98 -96 -116 -25 -12 -51 -42 -92 -104
-109 -168 -120 -192 -122 -280 l-1 -55 -16 33 -17 32 -110 2 -111 2 113 3
c110 4 112 4 112 27 0 38 50 134 118 228 34 47 62 90 62 94 0 4 -8 16 -17 27
-18 19 -17 20 5 8 19 -10 28 -10 47 3 13 9 30 14 37 11 8 -3 31 24 61 74 68
114 93 141 164 173 52 23 63 32 63 53 0 13 -5 27 -11 31 -8 4 -9 -3 -4 -26 7
-31 6 -33 -19 -28 -15 3 -31 0 -37 -8 -6 -8 -17 -14 -23 -14 -16 0 -62 109
-58 138 2 13 -4 35 -13 48 -12 19 -24 24 -53 23 -67 -2 -102 -21 -145 -79 -18
-25 -18 -25 -2 5 9 17 26 38 37 48 29 24 18 30 -28 14 -38 -12 -39 -13 -37
-60 1 -27 8 -53 17 -63 19 -19 18 -16 21 -81 1 -29 10 -64 20 -79 14 -21 15
-31 6 -48 -13 -23 -82 -76 -100 -76 -14 0 -111 58 -138 82 -26 24 -22 66 10
110 18 25 19 32 8 81 -14 64 -82 172 -125 198 -17 10 -45 19 -62 19 -42 0
-106 -48 -138 -103 -32 -54 -45 -152 -25 -188 13 -24 15 -30 18 -49 0 -5 15
-22 31 -37 21 -18 28 -32 24 -45 -3 -10 0 -18 7 -18 19 0 -8 -26 -58 -55 -48
-29 -67 -27 -39 4 16 18 16 23 -10 97 -45 134 -60 155 -147 216 -18 12 -27 33
-36 78 -7 33 -16 58 -21 55 -5 -3 -12 0 -16 6 -4 8 -3 9 4 5 7 -4 12 -2 12 4
0 19 -57 70 -77 70 -14 -1 -11 -4 10 -16 35 -19 34 -24 -6 -22 -19 1 -38 -2
-44 -5 -13 -8 -13 24 0 41 6 8 6 12 -1 12 -66 0 -133 -132 -87 -170 20 -17 19
-37 -4 -49 -28 -15 -91 -108 -85 -124 5 -15 20 -22 154 -77 201 -81 258 -148
370 -431 22 -57 67 -160 100 -229 57 -122 84 -216 59 -208 -6 2 -35 58 -63
123 -53 121 -129 270 -240 470 l-61 110 -3 -59 c-2 -33 2 -111 9 -175 6 -64
13 -260 16 -436 4 -270 2 -326 -11 -360 l-15 -40 4 50 c11 127 14 473 6 597
-10 132 -41 338 -62 404 -12 38 -55 69 -164 121 -66 31 -94 38 -159 41 l-79 4
53 31 52 30 -34 33 c-34 35 -94 53 -182 55 l-41 1 50 14 c28 7 62 14 78 14 33
0 33 3 6 73 -20 52 -24 56 -72 71 -29 9 -70 20 -92 25 l-40 9 46 1 47 1 43 73
c82 138 106 208 89 266 -8 29 -7 32 12 29 16 -2 23 4 30 27 11 42 -7 88 -49
125 -35 31 -51 34 -95 15 -16 -6 -18 -1 -18 35 0 23 -5 50 -11 61 -9 17 -8 19
8 10 10 -6 160 -22 333 -35z m1287 -92 c-3 -3 -12 -4 -19 -1 -8 3 -5 6 6 6 11
1 17 -2 13 -5z m4783 -70 c0 -4 -15 -25 -33 -48 -19 -23 -39 -50 -45 -61 -10
-18 -11 -17 -12 10 0 34 51 105 76 105 8 0 14 -3 14 -6z m2095 -42 c-3 -3 -11
0 -18 7 -9 10 -8 11 6 5 10 -3 15 -9 12 -12z m-6400 -91 c-4 -25 -13 -101 -19
-168 l-12 -122 30 -28 c96 -88 118 -102 243 -148 140 -51 202 -87 203 -117 0
-3 -21 -14 -46 -24 l-46 -18 -32 36 c-38 43 -74 71 -61 48 4 -8 -3 -5 -17 8
-37 34 -121 62 -183 62 -60 0 -79 14 -41 31 l25 12 -29 30 c-17 17 -30 36 -30
43 0 7 -16 25 -35 40 -21 15 -32 31 -28 38 4 6 8 13 8 16 1 3 7 52 14 110 7
58 20 120 27 139 8 18 14 42 14 53 0 11 4 16 11 12 7 -4 8 -23 4 -53z m5545
-11 c8 -5 11 -10 5 -10 -5 0 -17 5 -25 10 -8 5 -10 10 -5 10 6 0 17 -5 25 -10z
m81 -27 c12 -16 12 -17 -1 -7 -8 6 -22 14 -30 17 -13 5 -12 6 1 6 9 1 23 -7
30 -16z m-403 -68 c-3 -25 -12 -52 -19 -61 -12 -15 -14 -14 -19 1 -6 16 27
105 38 105 3 0 2 -20 0 -45z m-2692 -182 c28 -98 5 -254 -51 -340 -43 -65 -49
48 -11 187 33 122 33 140 2 140 -14 0 -31 9 -39 20 -8 11 -17 17 -22 12 -16
-15 18 44 39 66 l21 23 22 -26 c13 -14 30 -51 39 -82z m61 35 c121 -186 195
-439 196 -673 0 -185 -42 -311 -137 -407 -62 -63 -106 -87 -277 -151 -188 -72
-482 -197 -583 -250 -156 -81 -302 -204 -372 -312 -27 -42 -57 -86 -66 -98
-17 -22 -17 -21 -12 18 8 57 60 192 95 247 39 60 175 190 264 252 39 27 86 61
105 76 19 15 58 39 85 55 66 36 92 55 78 55 -7 0 -14 -4 -18 -10 -3 -5 -12 -7
-19 -4 -7 3 -19 -2 -26 -11 -15 -18 -34 -20 -24 -2 5 8 3 8 -9 -2 -9 -7 -14
-17 -11 -22 3 -5 3 -9 0 -9 -2 0 -11 -3 -20 -6 -13 -5 -16 2 -16 44 l0 49 48
18 c26 10 52 22 57 28 7 7 4 7 -10 2 -11 -4 -83 -26 -160 -47 -219 -62 -289
-85 -360 -120 -89 -43 -192 -139 -236 -220 -32 -60 -34 -68 -34 -163 0 -87 3
-107 26 -156 14 -30 44 -72 65 -93 l39 -38 -145 5 c-125 4 -342 36 -358 52
-16 16 206 59 278 53 l47 -3 -33 71 c-77 169 -111 326 -95 431 22 144 108 263
266 368 158 105 246 138 556 214 353 87 520 156 635 264 117 109 164 214 164
365 -1 57 -7 105 -19 140 -10 28 -15 52 -12 52 4 0 25 -28 48 -62z m-502 -258
c-3 -5 -14 -10 -23 -10 -15 0 -15 2 -2 10 20 13 33 13 25 0z m38 -20 c-3 -11
0 -20 6 -20 7 0 5 -9 -5 -25 -9 -14 -21 -22 -27 -18 -5 3 -8 2 -4 -3 3 -5 -1
-17 -8 -27 -11 -16 -12 -15 -12 8 0 14 4 28 8 31 5 3 6 10 3 16 -5 7 0 9 14 6
25 -7 29 4 7 22 -8 7 -15 8 -15 3 0 -6 -15 -10 -32 -11 -32 0 -32 0 12 18 59
23 59 23 53 0z m-2863 -62 c0 -5 -4 -8 -10 -8 -5 0 -10 10 -10 23 0 18 2 19
10 7 5 -8 10 -18 10 -22z m2805 -57 c3 -5 2 -12 -3 -15 -5 -3 -9 1 -9 9 0 17
3 19 12 6z m-5345 -139 c-8 -14 -9 -14 -10 -2 0 13 -1 13 -10 0 -8 -13 -10
-12 -10 3 0 9 -6 17 -14 17 -9 0 -12 -8 -8 -25 3 -18 0 -25 -12 -25 -19 0 -20
-7 -1 -40 8 -14 14 -32 14 -40 0 -8 -13 13 -29 48 -16 34 -39 76 -51 93 -18
26 -19 33 -8 40 8 5 25 8 39 5 14 -2 41 -1 60 3 34 7 35 6 43 -27 4 -19 3 -41
-3 -50z m7921 -63 c-12 -79 -27 -175 -34 -214 l-13 -70 -77 -3 c-42 -2 -77 1
-77 5 0 5 10 9 23 9 84 1 127 5 127 14 0 6 -32 10 -76 10 -66 0 -75 2 -72 17
4 20 65 36 119 31 l36 -3 12 110 c12 113 39 250 47 242 3 -3 -4 -69 -15 -148z
m-3322 69 c19 -30 23 -197 6 -218 -16 -20 -65 -137 -59 -142 4 -5 -150 -118
-161 -118 -12 0 7 45 31 73 13 16 24 39 24 52 0 50 -63 75 -88 35 -23 -37 -35
-12 -28 59 5 55 2 74 -13 104 l-19 37 44 26 c42 25 233 114 244 114 3 0 12
-10 19 -22z m5426 -83 c-8 -22 -14 -32 -15 -23 0 17 21 70 26 65 2 -1 -3 -21
-11 -42z m-7299 28 c13 -5 2 -10 -36 -19 -99 -23 -142 -15 -67 13 37 13 78 16
103 6z m3504 -3 c0 -5 -5 -10 -11 -10 -5 0 -7 5 -4 10 3 6 8 10 11 10 2 0 4
-4 4 -10z m-1580 -70 c-18 -33 -25 -15 -9 22 9 23 15 28 17 16 2 -9 -2 -27 -8
-38z m1564 14 c9 -23 6 -186 -4 -209 -6 -15 -9 -6 -9 32 -1 50 -13 74 -26 53
-8 -12 17 -120 27 -120 5 0 8 -18 8 -41 0 -26 4 -38 11 -33 7 4 9 -2 7 -17 -1
-13 -10 -24 -18 -24 -8 0 -20 -6 -26 -14 -9 -11 -11 -3 -11 35 -1 54 -12 114
-22 114 -3 0 -6 -42 -6 -92 0 -113 -25 -184 -93 -268 -24 -30 -49 -65 -55 -78
-11 -24 -64 -52 -97 -52 -10 0 -32 -14 -49 -31 -27 -27 -31 -38 -31 -85 0 -54
0 -54 -27 -48 -43 10 -43 11 -43 77 0 99 27 141 125 199 94 55 176 125 212
179 23 35 25 44 19 106 -19 189 -19 183 1 184 10 0 13 3 6 6 -7 2 -13 22 -13
43 0 37 2 39 36 46 24 4 39 14 46 30 13 28 23 30 32 8z m-6216 -72 c15 15 15
10 1 -31 l-12 -33 -18 54 c-23 66 -23 72 -1 30 14 -25 20 -30 30 -20z m4178
-89 c10 -32 24 -68 32 -81 15 -23 15 -23 -19 -18 -61 11 -65 2 -45 -119 17
-101 16 -168 -3 -179 -4 -3 -14 27 -21 67 -6 40 -21 108 -31 152 -29 122 -26
152 18 197 20 21 40 38 44 38 4 0 15 -26 25 -57z m-126 -101 c0 -15 5 -43 11
-62 5 -19 21 -83 33 -142 l23 -106 -24 -5 c-30 -6 -36 6 -56 103 -26 126 -31
198 -17 225 16 30 30 23 30 -13z m6005 12 c8 -11 15 -22 15 -26 0 -5 -63 -8
-140 -8 -134 0 -140 1 -140 20 0 32 36 40 148 36 86 -3 106 -7 117 -22z
m-2195 -39 c0 -11 -11 -15 -39 -15 -25 0 -41 5 -45 15 -4 12 4 15 39 15 33 0
45 -4 45 -15z m2099 -15 l113 0 -6 -42 c-4 -24 -11 -104 -16 -178 -5 -74 -15
-169 -21 -211 l-11 -77 -51 -6 c-29 -4 -66 -9 -84 -12 -31 -6 -31 -6 -46 58
-8 34 -16 52 -16 38 0 -14 4 -43 9 -65 5 -22 7 -41 5 -43 -4 -5 -101 -29 -149
-37 l-40 -7 37 41 c36 40 58 98 72 189 5 33 12 43 31 48 28 7 28 7 14 177 -6
66 -7 123 -4 129 4 5 16 7 28 4 11 -3 72 -6 135 -6z m-10147 -12 c3 -7 32 -14
70 -16 77 -5 76 -2 16 -98 -81 -129 -103 -228 -75 -331 l14 -53 -28 0 c-15 0
-31 6 -36 12 -4 7 -8 122 -9 255 l-2 243 23 0 c13 0 25 -5 27 -12z m8007 4
l38 -2 -7 -47 c-4 -27 -11 -114 -15 -195 l-7 -146 -29 10 c-49 17 -71 84 -85
250 -9 114 -3 136 36 133 16 -1 47 -2 69 -3z m-8080 -53 c11 -32 16 -229 6
-229 -13 0 -55 57 -66 89 -9 26 -8 43 1 75 32 106 41 116 59 65z m7951 -24 c0
-23 -2 -24 -20 -13 -31 19 -33 38 -5 38 20 0 25 -5 25 -25z m1535 -205 c9 -17
13 -35 10 -39 -8 -15 15 -113 36 -149 10 -18 19 -35 19 -38 0 -6 -65 -5 -153
2 -54 5 -78 11 -82 22 -3 8 18 84 46 168 l52 153 28 -44 c16 -24 35 -58 44
-75z m-2475 49 c0 -28 -6 -47 -17 -56 -16 -12 -7 -13 72 -7 50 4 101 7 114 8
28 1 39 -19 17 -27 -30 -12 -350 -18 -381 -9 -27 9 -25 10 25 11 91 2 96 5 91
58 -4 50 6 63 52 63 25 0 27 -3 27 -41z m2658 -244 c34 -27 60 -50 59 -52 -2
-1 -29 4 -61 11 -59 14 -97 36 -62 36 16 0 15 4 -8 25 -14 13 -26 29 -26 35 0
6 -4 9 -9 6 -12 -8 -28 13 -36 49 -7 30 -7 29 37 -16 25 -25 73 -67 106 -94z
m-7133 105 c50 -6 187 -19 305 -30 246 -22 280 -28 280 -45 0 -10 -83 -14
-372 -18 -205 -3 -383 -8 -396 -12 l-22 -7 25 43 c14 24 25 54 25 67 0 20 4
22 33 17 17 -3 73 -10 122 -15z m5110 -61 c55 -6 140 -14 189 -19 62 -6 94
-14 105 -26 15 -15 11 -16 -64 -11 -44 3 -197 11 -340 17 -143 6 -307 14 -365
17 l-105 7 65 8 c217 28 295 29 515 7z m-6875 -55 c19 -49 16 -51 -87 -58 -54
-3 -136 -9 -183 -13 -79 -6 -84 -5 -71 11 38 45 70 57 193 70 68 8 126 14 131
15 4 0 12 -11 17 -25z m7305 -142 c-11 -101 -18 -64 -9 45 6 63 10 84 12 58 2
-22 1 -68 -3 -103z m-3054 52 c-29 -31 -62 -74 -74 -95 l-22 -39 -117 0 c-135
0 -129 -6 -103 95 25 96 23 95 208 95 l159 0 -51 -56z m4589 30 c24 -13 22
-13 -30 -14 -30 0 -100 3 -155 8 l-100 7 75 6 c128 9 185 7 210 -7z m-7325
-209 c22 -21 25 -32 25 -102 0 -100 -32 -295 -58 -353 -25 -55 -48 -87 -57
-78 -7 7 2 64 50 297 29 146 32 199 9 208 -9 3 -52 -2 -97 -11 -316 -64 -708
-72 -1092 -21 -60 8 -128 16 -150 19 -22 2 -2 2 45 0 47 -1 148 -8 225 -14
212 -18 607 -8 764 20 68 12 149 30 180 40 82 26 127 25 156 -5z m-75 -75 c11
-7 15 -27 13 -85 -2 -102 -51 -388 -68 -397 -8 -5 -16 -38 -20 -80 -7 -71 -35
-271 -55 -393 -5 -33 -10 -86 -10 -117 0 -46 -4 -59 -19 -68 -11 -5 -23 -10
-26 -10 -19 0 49 492 99 715 19 81 44 246 49 322 4 51 2 67 -14 87 -10 13 -19
27 -19 30 0 10 54 7 70 -4z m5515 -10 c-3 -5 -1 -10 4 -10 6 0 13 0 16 0 3 0
14 -9 24 -19 11 -11 37 -24 58 -29 21 -5 82 -19 136 -32 53 -12 97 -25 97 -27
0 -16 -231 31 -308 63 -60 26 -62 27 -46 45 18 20 29 25 19 9z m-2435 -36 c64
-16 140 -51 140 -65 0 -14 -39 -21 -185 -30 -133 -8 -345 -11 -415 -6 -33 3
-52 16 -80 55 -15 20 -20 36 -14 41 5 5 38 11 73 13 l63 3 -6 -42 c-9 -67 13
-72 57 -13 25 34 45 50 60 50 12 0 29 5 37 11 20 14 186 3 270 -17z m-2330
-108 c41 -20 82 -36 91 -36 13 0 17 -18 22 -117 16 -302 106 -780 208 -1101
53 -168 157 -420 259 -627 91 -187 363 -672 431 -772 l30 -44 -28 7 c-45 11
-77 24 -93 39 -14 13 -15 10 -12 -21 4 -33 3 -35 -14 -26 -29 16 -82 75 -198
222 -484 611 -761 1443 -811 2440 l-6 114 23 -21 c13 -12 57 -38 98 -57z m463
-103 c-7 -2 -19 -2 -25 0 -7 3 -2 5 12 5 14 0 19 -2 13 -5z m112 -13 l30 -8
-35 0 c-19 0 -48 4 -65 8 l-30 8 35 0 c19 0 49 -4 65 -8z m3228 -392 c54 -194
64 -385 28 -543 -69 -303 -142 -509 -282 -788 -96 -192 -128 -243 -60 -96 44
96 55 141 111 444 66 354 78 431 100 605 49 398 55 430 81 430 4 0 14 -24 22
-52z m-1609 -57 c11 -4 -48 -7 -131 -7 -83 1 -149 4 -147 7 6 10 255 10 278 0z
m-297 -7 c-3 -3 -12 -4 -19 -1 -8 3 -5 6 6 6 11 1 17 -2 13 -5z m353 -10 c0
-2 -7 -4 -15 -4 -8 0 -15 4 -15 10 0 5 7 7 15 4 8 -4 15 -8 15 -10z m2317 6
c255 -59 423 -344 357 -604 -35 -137 -159 -344 -279 -462 -252 -250 -584 -418
-961 -488 -71 -13 -154 -33 -184 -44 -49 -18 -57 -19 -72 -5 -15 13 -14 18 13
58 28 42 31 43 60 33 75 -26 257 16 528 123 281 111 607 361 750 575 27 40 64
110 82 156 32 79 33 89 34 213 0 164 -18 217 -105 306 -154 158 -434 184 -586
56 -17 -14 -65 -77 -107 -139 -79 -119 -136 -169 -187 -167 -23 1 -22 2 6 9
53 12 91 47 150 138 93 143 164 208 259 238 48 15 184 17 242 4z m-650 -32
c-3 -7 -5 -2 -5 12 0 14 2 19 5 13 2 -7 2 -19 0 -25z m-4967 -147 c0 -5 -3
-23 -6 -40 -6 -29 -9 -31 -50 -31 -32 0 -44 4 -44 14 0 14 36 32 53 28 5 -1 6
2 3 7 -4 5 -2 12 3 16 5 3 15 -3 21 -12 10 -16 11 -16 7 5 -3 12 -1 22 4 22 5
0 9 -4 9 -9z m3164 -34 c10 -7 35 -53 56 -101 36 -84 37 -87 44 -56 3 18 6 51
6 74 0 69 9 88 39 84 30 -3 29 11 10 -181 l-12 -128 -31 3 c-28 3 -34 10 -66
85 -19 46 -38 83 -42 83 -5 0 -8 -21 -8 -47 0 -27 -3 -65 -6 -85 -6 -32 -10
-38 -32 -38 l-25 0 6 152 c5 107 10 154 19 160 17 11 21 10 42 -5z m1447 -20
c0 -21 1 -21 10 -2 8 17 9 17 4 -5 -3 -14 -8 -38 -12 -55 -3 -16 -12 -33 -19
-38 -7 -4 -11 -14 -8 -22 9 -24 -5 -70 -17 -58 -8 8 -8 17 0 31 6 10 8 22 5
25 -9 8 19 156 28 151 4 -3 8 -15 9 -27z m-1602 -127 c28 -77 51 -145 51 -150
0 -18 -50 -10 -62 10 -9 14 -24 20 -51 20 -31 0 -41 -5 -55 -29 -18 -32 -62
-49 -62 -24 0 18 60 295 67 306 2 4 17 7 32 7 27 0 30 -5 80 -140z m449 131
c9 -5 12 -26 10 -67 l-3 -59 36 -3 c35 -3 38 -1 51 40 12 35 20 44 41 46 33 4
34 -8 7 -109 -11 -41 -25 -94 -31 -119 -12 -55 -24 -69 -49 -63 -23 6 -25 25
-9 90 13 51 5 63 -42 63 -24 0 -27 -5 -38 -61 -12 -60 -27 -78 -54 -62 -12 7
-10 28 9 140 31 182 34 189 72 164z m-686 -127 c15 -65 30 -136 33 -156 7 -37
6 -38 -23 -38 -29 0 -30 3 -47 73 -10 39 -21 76 -25 80 -4 5 -11 -13 -15 -40
-9 -63 -32 -116 -47 -111 -6 2 -28 34 -47 71 -20 37 -37 63 -39 58 -2 -7 17
-94 33 -148 6 -18 2 -23 -20 -29 -14 -4 -30 -3 -35 2 -9 9 -60 245 -60 276 0
21 33 40 55 32 17 -7 95 -116 95 -133 0 -6 4 -11 9 -11 5 0 15 26 21 58 26
128 35 146 75 138 5 -2 22 -56 37 -122z m1049 21 c59 -31 62 -115 8 -200 -32
-50 -28 -76 8 -57 30 17 47 43 87 135 30 68 43 87 59 87 17 0 19 -5 13 -31
-12 -60 -81 -202 -108 -222 -34 -25 -73 -25 -101 1 -14 12 -41 21 -76 24 -42
4 -58 11 -72 29 -37 48 -16 153 43 205 52 47 89 55 139 29z m394 -9 c16 -6 25
-15 20 -18 -6 -3 -26 2 -45 13 -39 20 -21 25 25 5z m116 -13 c13 -16 12 -17
-3 -4 -10 7 -18 15 -18 17 0 8 8 3 21 -13z m-1969 -38 c47 -56 148 -217 142
-226 -10 -16 -38 -9 -65 17 -25 24 -28 25 -62 10 -29 -12 -36 -20 -39 -48 -2
-25 -8 -34 -25 -36 -25 -4 -29 14 -39 188 -6 115 -6 116 17 127 28 13 38 8 71
-32z m1928 2 c13 -5 13 -6 0 -6 -18 -1 -40 18 -40 34 0 5 6 3 13 -6 7 -9 19
-18 27 -22z m330 -128 c-36 -143 -129 -465 -156 -541 -36 -101 -115 -268 -124
-263 -4 3 -7 -3 -6 -12 0 -10 -5 -18 -12 -18 -7 0 -17 -7 -22 -15 -8 -12 -10
-10 -10 8 0 12 7 25 15 28 8 4 13 10 10 14 -3 5 16 53 43 107 94 193 184 448
253 722 13 52 25 85 27 74 2 -11 -6 -58 -18 -104z m-474 75 c45 -31 63 -52 64
-76 0 -27 -57 -85 -96 -98 l-35 -12 3 -68 c3 -75 -4 -90 -30 -74 -13 8 -18 28
-20 78 -2 36 -6 66 -10 66 -4 0 -16 -16 -26 -35 -20 -37 -51 -54 -69 -36 -11
11 6 48 81 176 58 101 62 105 81 105 10 0 36 -12 57 -26z m194 -32 c0 -21 -11
-57 -24 -82 -23 -44 -115 -130 -139 -130 -7 0 2 10 18 22 60 44 93 88 115 153
12 35 18 70 14 76 -4 8 -3 9 4 5 7 -4 12 -24 12 -44z m-4213 16 c-3 -8 -6 -5
-6 6 -1 11 2 17 5 13 3 -3 4 -12 1 -19z m2025 -17 c48 -31 84 -89 95 -156 5
-33 2 -40 -46 -85 -73 -71 -86 -68 -146 33 -27 45 -59 95 -72 111 -36 43 -27
66 36 99 68 34 77 34 133 -2z m-315 -33 c-3 -8 -6 -5 -6 6 -1 11 2 17 5 13 3
-3 4 -12 1 -19z m1213 -73 c0 -9 -9 -15 -25 -15 -21 0 -25 -5 -25 -30 0 -25 4
-30 25 -30 31 0 33 -17 3 -22 -20 -3 -23 -9 -22 -50 0 -39 -3 -48 -17 -48 -25
0 -26 3 -33 107 l-7 92 38 4 c21 2 44 4 51 5 6 1 12 -5 12 -13z m165 -5 c0
-10 -12 -16 -32 -18 -25 -2 -33 -8 -33 -23 0 -12 7 -19 20 -19 28 0 25 -28 -2
-32 -19 -2 -24 -10 -26 -45 -3 -35 -7 -43 -23 -43 -18 0 -19 8 -19 100 l0 101
58 -3 c43 -2 57 -7 57 -18z m127 12 c23 -9 10 -29 -22 -33 -36 -6 -39 -37 -3
-41 36 -4 38 -32 2 -36 -20 -2 -28 -10 -33 -32 -3 -17 -3 -37 0 -45 5 -11 -1
-15 -21 -15 l-28 0 7 83 c11 122 13 127 50 126 17 0 39 -3 48 -7z m-4733 -42
c173 -27 369 -60 716 -120 61 -10 137 -21 170 -25 123 -13 556 -88 1485 -255
123 -22 227 -40 231 -40 4 0 12 -15 20 -32 7 -18 48 -107 91 -197 80 -168 83
-180 35 -181 -30 0 -255 -49 -377 -81 -346 -93 -540 -186 -639 -306 -33 -40
-61 -110 -61 -153 0 -15 -6 -27 -12 -27 -7 0 -85 -19 -173 -43 -274 -73 -364
-96 -555 -145 -102 -26 -282 -73 -400 -105 -231 -62 -616 -160 -630 -160 -5 0
-8 6 -5 12 2 7 6 45 9 83 3 39 10 86 16 106 12 41 66 104 74 86 2 -7 5 9 5 35
l1 46 88 20 c48 12 193 41 322 67 129 25 458 91 730 145 272 55 499 100 504
100 5 0 7 2 4 5 -3 3 -70 -6 -149 -20 -79 -14 -218 -39 -309 -55 -91 -16 -203
-36 -250 -44 -47 -8 -173 -31 -280 -50 -107 -19 -229 -42 -270 -50 -86 -17
-309 -56 -319 -55 -3 0 4 4 15 9 20 8 22 18 29 149 4 78 11 141 15 141 5 0
163 32 352 70 189 39 401 83 471 97 87 18 124 29 115 35 -9 7 -2 8 20 4 44 -8
140 13 121 26 -10 6 -1 8 26 7 22 -2 54 -1 70 0 l30 3 -25 9 c-19 7 -15 8 20
4 32 -3 39 -1 25 5 -19 8 -18 9 4 9 13 1 22 4 19 7 -4 3 -42 -1 -85 -10 -1075
-212 -1137 -224 -1197 -225 -21 0 -48 -3 -59 -7 -12 -4 -23 -1 -28 7 -10 16
-39 9 416 102 345 71 962 202 1112 237 82 19 91 23 78 37 -10 9 -25 12 -43 9
-15 -3 -34 -1 -42 5 -12 8 -11 9 6 4 28 -8 38 18 13 33 -20 13 -162 6 -154 -7
2 -4 -12 -5 -31 -3 -18 2 -116 -3 -216 -12 -101 -8 -268 -23 -373 -31 -244
-20 -481 -41 -720 -65 -180 -19 -191 -19 -203 -2 -7 9 -12 35 -10 56 4 49 2
49 243 77 180 21 278 36 240 37 -11 1 -121 -9 -245 -22 -124 -13 -228 -21
-232 -17 -3 3 -17 104 -30 225 l-24 218 20 8 c25 9 164 32 221 36 22 2 49 5
61 8 12 3 39 8 60 12 21 3 41 8 43 10 7 7 -52 4 -114 -5 -33 -5 -113 -12 -177
-16 l-118 -7 0 64 c0 54 9 138 14 138 1 0 89 -14 195 -30z m4889 -2 c3 -14 -4
-18 -31 -18 -42 0 -61 -28 -25 -38 l22 -5 -22 -8 c-28 -11 -28 -27 1 -31 30
-4 28 -22 -3 -27 -23 -3 -39 -16 -40 -32 0 -4 16 -10 35 -13 33 -7 53 -22 42
-33 -10 -9 -108 19 -113 32 -5 13 18 135 34 176 9 23 14 25 53 20 31 -4 45
-11 47 -23z m-633 8 c41 -17 55 -42 55 -96 0 -53 -34 -90 -84 -90 -96 0 -104
176 -8 199 1 1 18 -5 37 -13z m-157 -46 c2 -11 -5 -16 -25 -15 -26 0 -28 -3
-31 -42 -4 -54 25 -87 69 -81 17 3 34 -1 41 -9 13 -16 10 -20 -17 -23 -48 -5
-75 2 -104 26 -50 42 -51 113 -2 151 21 17 65 12 69 -7z m917 10 c39 -15 30
-46 -11 -42 -26 3 -32 -1 -38 -20 -10 -38 -7 -48 14 -48 38 0 22 -29 -17 -32
-77 -6 -36 -55 72 -84 75 -21 406 -19 446 2 42 21 62 73 54 138 -5 47 -5 50
10 32 20 -26 19 -93 -3 -136 -30 -60 -51 -65 -292 -65 l-215 0 -74 30 c-68 28
-103 55 -69 55 9 0 14 12 14 33 0 17 8 58 18 90 18 62 32 69 91 47z m-1684
-55 c7 -22 14 -49 15 -60 1 -11 4 -29 8 -40 3 -11 -3 -1 -14 22 -21 43 -44
142 -30 126 4 -4 14 -26 21 -48z m2279 -105 l-11 -25 6 25 c2 14 6 41 7 60 l1
35 4 -35 c2 -20 -1 -47 -7 -60z m-1815 -90 c28 -6 -9 -8 -122 -8 -90 0 -163 5
-163 9 0 11 232 11 285 -1z m3705 -54 c-16 -25 -35 -48 -41 -52 -6 -3 6 17 26
45 45 63 58 68 15 7z m-3045 27 c-22 -3 -47 -11 -56 -19 -18 -16 -30 -9 -22
12 4 10 21 14 62 12 47 -1 49 -2 16 -5z m-587 -113 c16 -52 33 -104 37 -115 6
-14 5 -17 -3 -10 -14 13 -59 148 -66 200 -8 52 -2 40 32 -75z m695 93 c-7 -2
-19 -2 -25 0 -7 3 -2 5 12 5 14 0 19 -2 13 -5z m122 -54 c51 -14 65 -26 65
-55 0 -20 3 -22 23 -15 54 20 95 -35 63 -84 -22 -34 -60 -57 -104 -64 -31 -5
-43 -16 -78 -66 -23 -33 -40 -63 -38 -66 2 -4 -6 -15 -18 -25 -12 -11 -18 -13
-14 -6 10 17 -5 15 -37 -7 -20 -13 -25 -20 -15 -23 17 -7 -58 -28 -99 -28 -33
0 -58 20 -26 20 10 1 -9 15 -42 32 -33 16 -68 37 -78 46 -38 34 -107 160 -123
225 -19 75 -14 110 17 123 28 13 453 7 504 -7z m1305 -55 c-50 -180 -177 -488
-209 -508 -21 -13 -11 20 33 110 63 126 82 172 132 319 56 165 54 159 59 153
3 -2 -4 -36 -15 -74z m1450 22 c0 -2 -8 -10 -17 -17 -16 -13 -17 -12 -4 4 13
16 21 21 21 13z m-3516 -162 c3 -8 2 -12 -4 -9 -6 3 -10 10 -10 16 0 14 7 11
14 -7z m1010 -20 c9 -8 16 -22 16 -29 0 -15 -27 -45 -40 -45 -15 0 -40 31 -40
49 0 37 37 52 64 25z m-815 -8 c25 -30 -31 -80 -58 -53 -12 12 -15 50 -4 60
11 12 50 7 62 -7z m1382 -49 c-10 -9 -11 -8 -5 6 3 10 9 15 12 12 3 -3 0 -11
-7 -18z m-26 -45 c-17 -15 -18 -15 -6 0 7 9 9 23 5 30 -6 10 -4 11 7 0 11 -10
10 -15 -6 -30z m-3942 21 c-7 -2 -21 -2 -30 0 -10 3 -4 5 12 5 17 0 24 -2 18
-5z m4665 -53 c80 -17 147 -32 149 -34 7 -6 -203 -76 -257 -86 -30 -5 -77 -6
-103 -2 l-48 7 38 73 c27 50 43 72 57 72 10 0 84 -14 164 -30z m-1418 -19 c0
-6 -4 -13 -10 -16 -19 -11 -10 -35 13 -36 21 0 21 -1 -3 -11 l-25 -11 29 -6
30 -6 -29 -13 c-29 -13 -43 -6 -46 23 0 6 -2 21 -5 34 -3 15 2 29 13 37 21 16
33 18 33 5z m-4277 -18 c-7 -2 -19 -2 -25 0 -7 3 -2 5 12 5 14 0 19 -2 13 -5z
m3741 1 c25 -9 19 -21 -13 -27 -21 -4 -31 -13 -33 -29 -4 -23 -4 -23 -17 4 -8
15 -11 34 -8 42 6 16 42 21 71 10z m716 -23 c-30 -43 -112 -111 -133 -111 -11
0 -31 -8 -45 -18 -28 -19 -62 -34 -62 -28 0 3 29 21 65 40 35 20 93 61 127 91
35 30 64 55 66 55 2 0 -6 -13 -18 -29z m-4540 9 c-25 -5 -117 -18 -205 -29
-88 -12 -187 -26 -221 -31 -33 -6 -81 -10 -105 -9 -42 1 -43 1 -14 10 17 5
129 20 250 34 121 14 225 28 230 30 6 2 33 3 60 3 l50 0 -45 -8z m3769 -130
c24 -19 39 -36 32 -38 -16 -5 -108 65 -135 104 -12 19 -26 31 -31 26 -5 -4 -5
-1 0 6 5 11 18 4 49 -25 22 -22 61 -55 85 -73z m179 69 c4 -10 -1 -9 -15 4
-25 22 -40 22 -53 -2 -22 -43 15 -70 63 -46 40 20 44 19 22 -5 -34 -38 -115
-16 -115 31 0 10 12 27 27 38 23 19 29 20 47 8 11 -8 22 -20 24 -28z m305 31
c-32 -13 -30 -34 3 -26 17 5 23 3 19 -4 -3 -5 -13 -10 -21 -10 -21 0 -17 -31
6 -37 25 -7 26 -23 1 -23 -23 0 -37 16 -46 53 -10 39 0 57 32 56 27 0 27 -1 6
-9z m714 -22 c-3 -7 -5 -2 -5 12 0 14 2 19 5 13 2 -7 2 -19 0 -25z m-797 -16
c0 -11 -11 -24 -25 -30 -21 -10 -27 -9 -32 5 -4 10 1 21 12 29 26 19 45 17 45
-4z m-110 -2 c13 -9 12 -13 -6 -28 -12 -9 -25 -27 -29 -39 -3 -13 -10 -23 -15
-23 -8 0 -20 80 -13 93 6 10 45 8 63 -3z m1183 -5 c-3 -9 -8 -14 -10 -11 -3 3
-2 9 2 15 9 16 15 13 8 -4z m3720 -10 l47 -6 0 -125 c0 -68 -3 -124 -7 -124
-5 0 -43 7 -86 15 -43 8 -80 15 -82 15 -6 0 -17 228 -11 238 3 6 22 6 48 1 24
-4 64 -11 91 -14z m-3523 -46 c-11 -24 -17 -33 -14 -19 11 42 24 73 29 68 3
-3 -4 -25 -15 -49z m-3044 22 c-3 -4 -34 -14 -68 -20 -95 -19 -323 -87 -450
-135 -82 -30 -207 -92 -231 -113 -16 -16 -16 -17 0 -36 73 -82 302 -151 573
-172 76 -6 357 7 435 21 17 2 -4 -6 -45 -19 -117 -36 -176 -72 -201 -124 -15
-32 -20 -56 -16 -84 3 -23 1 -39 -5 -39 -5 0 -62 -9 -126 -20 -65 -11 -175
-26 -245 -34 -120 -13 -133 -13 -195 4 -140 39 -303 122 -368 187 -20 20 -47
59 -60 87 -13 28 -24 46 -24 39 0 -6 -10 -13 -22 -15 -43 -6 -35 -52 28 -159
24 -41 181 -152 374 -266 119 -71 178 -99 315 -154 66 -27 114 -48 107 -49
-36 -1 -273 87 -387 144 -293 146 -490 333 -488 467 1 61 20 95 95 164 74 69
181 122 366 184 252 84 658 174 638 142z m-1539 -7 c-3 -3 -12 -4 -19 -1 -8 3
-5 6 6 6 11 1 17 -2 13 -5z m3291 -26 c-6 -18 -28 -21 -28 -4 0 9 7 16 16 16
9 0 14 -5 12 -12z m-3441 -4 c-3 -3 -12 -4 -19 -1 -8 3 -5 6 6 6 11 1 17 -2
13 -5z m5758 -205 c132 -64 205 -120 235 -180 25 -48 25 -60 -1 -106 -28 -52
-53 -77 -129 -135 -107 -82 -205 -121 -449 -183 -106 -27 -288 -66 -300 -64
-9 1 159 59 199 68 51 12 274 97 355 136 83 39 156 100 179 149 65 137 -53
266 -337 371 -57 22 -66 32 -35 44 30 11 125 -22 283 -100z m-1251 -102 c-72
-110 -281 -369 -239 -297 34 59 196 292 224 323 43 48 53 31 15 -26z m79 -161
c187 -54 449 -89 672 -90 186 -1 215 4 427 71 65 20 121 34 124 30 11 -11 -44
-94 -88 -131 -83 -71 -289 -159 -494 -211 -94 -24 -101 -24 -412 -19 -174 4
-330 9 -347 13 l-30 8 49 30 c27 17 62 50 77 73 47 70 37 120 -40 195 -66 63
-60 66 62 31z m-96 -38 c13 -12 23 -27 23 -33 0 -18 -83 -91 -88 -77 -2 7 -15
9 -33 5 -16 -3 -29 -2 -29 3 0 13 39 75 63 102 26 27 35 28 64 0z m-2398 -40
c13 -21 13 -22 -2 -10 -34 29 -34 -33 1 -73 9 -12 35 -33 57 -48 54 -37 30
-34 -28 3 -26 17 -52 30 -57 30 -9 0 -50 48 -50 60 0 13 41 60 53 60 7 0 18
-10 26 -22z m-1482 -93 c25 -32 29 -44 21 -59 -9 -15 -7 -17 10 -12 15 5 30
-2 53 -22 l32 -28 -61 -22 c-90 -33 -148 -78 -220 -167 -115 -144 -202 -235
-224 -235 -27 0 -298 -52 -473 -92 -77 -17 -160 -35 -184 -39 -41 -8 -63 -2
-343 104 l-300 112 53 7 c30 4 110 20 179 36 447 106 615 145 765 176 298 63
675 157 690 173 22 21 18 34 -7 28 -13 -2 -63 -14 -113 -25 -150 -34 -166 -38
-275 -60 -93 -19 -225 -50 -685 -161 -210 -51 -589 -137 -630 -144 -32 -5 -61
1 -130 26 l-89 33 54 11 c30 7 132 30 225 53 159 38 359 79 570 117 370 66
1026 217 1034 237 4 11 4 10 48 -47z m5074 -129 c-36 -43 -307 -132 -596 -195
-188 -41 -517 -95 -537 -89 -6 2 44 12 111 22 67 10 120 20 118 22 -3 3 -67
-4 -143 -15 -431 -62 -852 -87 -1274 -77 -353 9 -429 23 -130 25 849 5 1682
96 2214 241 81 23 168 49 194 60 58 23 57 23 43 6z m59 -51 c-7 -9 -33 -28
-57 -41 -52 -31 -204 -96 -210 -90 -2 2 46 28 106 57 74 35 106 56 98 62 -8 5
-4 6 9 3 13 -4 28 1 40 13 22 22 33 19 14 -4z m-7505 -13 c-3 -3 -11 0 -18 7
-9 10 -8 11 6 5 10 -3 15 -9 12 -12z m8475 -222 c0 -5 -2 -10 -4 -10 -3 0 -8
5 -11 10 -3 6 -1 10 4 10 6 0 11 -4 11 -10z m-2197 -7 c-7 -2 -21 -2 -30 0
-10 3 -4 5 12 5 17 0 24 -2 18 -5z m-3006 -9 c-3 -3 -12 -4 -19 -1 -8 3 -5 6
6 6 11 1 17 -2 13 -5z m1481 -1 c-10 -2 -28 -2 -40 0 -13 2 -5 4 17 4 22 1 32
-1 23 -4z m1440 0 c-10 -2 -26 -2 -35 0 -10 3 -2 5 17 5 19 0 27 -2 18 -5z
m-65 -10 c-7 -2 -21 -2 -30 0 -10 3 -4 5 12 5 17 0 24 -2 18 -5z m-220 -20
c-7 -2 -19 -2 -25 0 -7 3 -2 5 12 5 14 0 19 -2 13 -5z m-3976 -280 c-3 -10 -5
-2 -5 17 0 19 2 27 5 18 2 -10 2 -26 0 -35z m6439 -63 c0 -21 -5 -29 -14 -25
-8 3 -16 5 -18 5 -2 0 -4 4 -4 10 0 5 7 7 15 3 9 -3 15 -2 14 3 -2 14 1 34 5
34 2 0 3 -14 2 -30z m48 1 c4 -5 -3 -7 -14 -4 -23 6 -26 13 -6 13 8 0 17 -4
20 -9z m-119 -35 c12 -12 12 -15 -1 -20 -24 -9 -41 -6 -19 4 18 8 18 9 2 9
-10 1 -15 6 -12 11 8 13 14 13 30 -4z m-60 -22 c14 -6 10 -10 -15 -21 -18 -7
-35 -11 -38 -8 -3 3 0 5 6 5 7 0 12 7 12 15 0 16 9 19 35 9z m-497 -98 c-13
-20 -26 -36 -30 -36 -4 0 5 18 20 39 34 48 42 46 10 -3z m307 34 c3 -6 -1 -7
-9 -4 -18 7 -21 14 -7 14 6 0 13 -4 16 -10z m-196 -91 c-22 -13 -31 -11 -17 5
7 8 17 12 22 9 4 -3 2 -9 -5 -14z m-149 4 c-8 -3 -22 -11 -30 -17 -13 -10 -13
-9 -1 7 7 9 21 17 30 16 13 0 14 -1 1 -6z m110 3 c0 -9 -32 -36 -42 -36 -6 0
-1 9 12 20 23 20 30 24 30 16z"/>
<path d="M7011 10000 c-18 -53 22 -110 76 -110 20 0 23 4 17 28 -24 103 -71
144 -93 82z"/>
<path d="M6906 9849 c-40 -96 -43 -246 -5 -307 38 -63 107 -46 152 37 26 47
61 196 51 212 -3 5 -18 9 -34 9 -41 0 -72 14 -114 50 l-36 32 -14 -33z"/>
<path d="M2921 9791 c-12 -8 -11 -20 7 -83 12 -40 38 -140 57 -223 40 -164
128 -522 145 -585 13 -47 30 -51 91 -19 202 103 257 405 124 686 -69 147 -179
224 -328 230 -45 2 -88 0 -96 -6z"/>
<path d="M5475 9514 c-64 -33 -114 -105 -115 -165 0 -32 35 -79 58 -79 31 0
83 40 98 75 18 44 19 185 2 185 -7 0 -26 -7 -43 -16z"/>
<path d="M3959 9251 c-76 -48 -114 -161 -73 -219 19 -27 49 -28 91 -2 50 30
64 68 61 163 -4 97 -11 102 -79 58z"/>
<path d="M751 9289 c-13 -10 -19 -19 -15 -19 13 1 48 29 43 34 -2 2 -15 -4
-28 -15z"/>
<path d="M699 9253 c-13 -16 -12 -17 4 -4 16 13 21 21 13 21 -2 0 -10 -8 -17
-17z"/>
<path d="M5995 8098 c-10 -140 -1 -507 14 -545 24 -61 69 -51 98 24 25 67 23
227 -6 348 -22 93 -78 252 -92 260 -4 3 -10 -37 -14 -87z"/>
<path d="M5057 8284 c-4 -4 -7 -26 -7 -50 0 -52 38 -104 77 -104 24 0 25 2 18
38 -13 73 -64 140 -88 116z"/>
<path d="M4935 8163 c-16 -44 -35 -160 -35 -222 0 -119 46 -221 99 -221 55 0
110 96 133 232 12 75 7 88 -37 88 -32 0 -94 48 -125 96 -23 36 -29 41 -35 27z"/>
<path d="M5505 7979 c-4 -58 -5 -197 -3 -310 4 -168 7 -212 22 -247 24 -56 52
-54 81 3 17 34 20 59 19 175 -1 155 -32 318 -82 424 l-29 61 -8 -106z"/>
<path d="M7174 8710 c-56 -22 -130 -148 -141 -239 -6 -57 -1 -61 48 -35 74 38
154 134 170 203 15 67 -16 96 -77 71z"/>
<path d="M6544 8538 c-63 -58 -114 -165 -114 -240 0 -26 1 -27 33 -16 17 6 62
41 98 77 50 50 70 79 84 120 34 104 -18 135 -101 59z"/>
<path d="M7270 6869 c-41 -5 -82 -11 -90 -13 -22 -7 147 5 200 14 l45 8 -40 0
c-22 -1 -74 -4 -115 -9z"/>
<path d="M7128 6843 c7 -3 16 -2 19 1 4 3 -2 6 -13 5 -11 0 -14 -3 -6 -6z"/>
<path d="M7048 6833 c7 -3 16 -2 19 1 4 3 -2 6 -13 5 -11 0 -14 -3 -6 -6z"/>
<path d="M4382 5254 c-237 -162 -349 -410 -282 -625 21 -70 62 -135 138 -219
l50 -55 171 0 c94 0 171 1 171 1 0 1 -31 24 -68 52 -105 78 -231 216 -272 298
-34 66 -35 73 -35 179 0 104 2 114 33 178 22 45 61 96 119 157 47 50 79 90 71
90 -8 0 -51 -25 -96 -56z"/>
<path d="M6880 3215 c0 -8 4 -15 10 -15 5 0 7 7 4 15 -4 8 -8 15 -10 15 -2 0
-4 -7 -4 -15z"/>
<path d="M6450 3125 c0 -8 4 -15 10 -15 5 0 7 7 4 15 -4 8 -8 15 -10 15 -2 0
-4 -7 -4 -15z"/>
<path d="M5025 6220 c3 -5 10 -10 16 -10 5 0 9 5 9 10 0 6 -7 10 -16 10 -8 0
-12 -4 -9 -10z"/>
<path d="M1833 6393 c15 -2 37 -2 50 0 12 2 0 4 -28 4 -27 0 -38 -2 -22 -4z"/>
<path d="M1938 6383 c17 -2 47 -2 65 0 17 2 3 4 -33 4 -36 0 -50 -2 -32 -4z"/>
<path d="M2768 5853 c6 -2 18 -2 25 0 6 3 1 5 -13 5 -14 0 -19 -2 -12 -5z"/>
<path d="M2879 5770 c9 -27 20 -50 24 -50 9 0 3 25 -15 73 -18 47 -25 29 -9
-23z"/>
<path d="M5949 4743 c-13 -17 -13 -17 6 -3 11 8 22 16 24 17 2 2 0 3 -6 3 -6
0 -17 -8 -24 -17z"/>
<path d="M558 5363 c7 -3 16 -2 19 1 4 3 -2 6 -13 5 -11 0 -14 -3 -6 -6z"/>
<path d="M10422 4550 c0 -14 2 -19 5 -12 2 6 2 18 0 25 -3 6 -5 1 -5 -13z"/>
<path d="M5181 2976 c-14 -59 -15 -56 19 -56 28 0 30 2 24 28 -9 37 -23 72
-28 72 -2 0 -9 -20 -15 -44z"/>
<path d="M5992 2965 c-52 -37 -72 -143 -31 -165 44 -24 105 63 97 141 -4 40
-29 49 -66 24z"/>
<path d="M4590 2861 c0 -16 3 -36 6 -45 6 -17 39 -22 48 -8 5 8 -40 82 -49 82
-3 0 -5 -13 -5 -29z"/>
<path d="M6340 2838 c-11 -18 -20 -39 -20 -45 0 -21 55 -15 75 7 15 17 16 24
7 45 -16 34 -38 31 -62 -7z"/>
<path d="M4309 2824 c-11 -14 -8 -26 25 -88 55 -101 55 -101 83 -75 36 35 26
104 -25 162 -19 21 -65 22 -83 1z"/>
<path d="M1408 2133 c12 -2 32 -2 45 0 12 2 2 4 -23 4 -25 0 -35 -2 -22 -4z"/>
<path d="M1280 2120 l-45 -7 42 -1 c23 -1 45 3 48 8 3 6 5 9 3 8 -2 0 -23 -4
-48 -8z"/>
<path d="M2502 2014 c10 -10 20 -15 24 -12 3 4 -5 12 -18 18 -22 12 -22 12 -6
-6z"/>
<path d="M2368 1893 c6 -2 18 -2 25 0 6 3 1 5 -13 5 -14 0 -19 -2 -12 -5z"/>
<path d="M2328 1883 c7 -3 16 -2 19 1 4 3 -2 6 -13 5 -11 0 -14 -3 -6 -6z"/>
<path d="M2278 1873 c7 -3 16 -2 19 1 4 3 -2 6 -13 5 -11 0 -14 -3 -6 -6z"/>
<path d="M2318 1863 c6 -2 18 -2 25 0 6 3 1 5 -13 5 -14 0 -19 -2 -12 -5z"/>
<path d="M2278 1853 c7 -3 16 -2 19 1 4 3 -2 6 -13 5 -11 0 -14 -3 -6 -6z"/>
<path d="M2658 1593 c6 -2 18 -2 25 0 6 3 1 5 -13 5 -14 0 -19 -2 -12 -5z"/>
<path d="M2598 1583 c6 -2 18 -2 25 0 6 3 1 5 -13 5 -14 0 -19 -2 -12 -5z"/>
<path d="M2548 1573 c6 -2 18 -2 25 0 6 3 1 5 -13 5 -14 0 -19 -2 -12 -5z"/>
<path d="M5067 2693 c-11 -10 -8 -62 3 -84 14 -25 46 -24 60 1 17 32 -5 90
-34 90 -13 0 -26 -3 -29 -7z"/>
<path d="M5068 2339 c-46 -27 2 -106 78 -129 21 -7 87 -15 146 -17 178 -8 308
32 308 96 0 41 -39 48 -325 56 -123 3 -196 1 -207 -6z"/>
<path d="M5607 2203 c-14 -32 -24 -59 -23 -61 8 -8 55 23 66 43 13 24 7 75 -9
75 -4 0 -20 -26 -34 -57z"/>
<path d="M5315 1870 c-3 -5 -2 -10 4 -10 5 0 13 5 16 10 3 6 2 10 -4 10 -5 0
-13 -4 -16 -10z"/>
<path d="M6918 823 c7 -3 16 -2 19 1 4 3 -2 6 -13 5 -11 0 -14 -3 -6 -6z"/>
<path d="M6808 803 c7 -3 16 -2 19 1 4 3 -2 6 -13 5 -11 0 -14 -3 -6 -6z"/>
<path d="M9811 10744 c-66 -72 -130 -156 -165 -217 -29 -50 -166 -324 -166
-332 0 -2 27 14 61 36 76 51 134 77 274 122 265 86 535 138 808 158 l177 13 0
138 0 138 -469 0 -469 0 -51 -56z"/>
<path d="M9415 10079 c-4 -6 -5 -13 -2 -16 7 -7 27 6 27 18 0 12 -17 12 -25
-2z"/>
<path d="M10000 6773 c0 -5 7 -17 15 -27 25 -32 17 -41 -10 -12 l-25 27 6
-103 c7 -111 14 -142 14 -63 l0 48 22 -19 c12 -10 18 -13 14 -6 -4 6 -3 12 2
12 6 0 7 14 2 37 -5 20 -6 41 -3 46 6 11 -17 67 -28 67 -5 0 -9 -3 -9 -7z"/>
<path d="M9930 6389 c0 -5 5 -7 10 -4 6 3 10 8 10 11 0 2 -4 4 -10 4 -5 0 -10
-5 -10 -11z"/>
<path d="M10142 5598 c-7 -7 -12 -20 -12 -30 0 -9 -6 -21 -13 -25 -45 -29 -71
-120 -57 -205 13 -82 38 -168 50 -168 5 0 27 55 49 123 22 67 44 136 50 152 5
17 16 54 25 84 l15 53 -24 -5 c-14 -2 -22 0 -19 4 3 5 -9 9 -26 9 -18 0 -29 4
-25 10 8 14 2 13 -13 -2z"/>
<path d="M10508 2893 c7 -3 16 -2 19 1 4 3 -2 6 -13 5 -11 0 -14 -3 -6 -6z"/>
<path d="M10535 975 c-143 -51 -361 -132 -485 -180 -236 -92 -774 -298 -1020
-390 -80 -30 -228 -83 -330 -119 -102 -35 -291 -103 -420 -152 -129 -48 -264
-97 -300 -110 l-65 -23 1443 0 1442 -1 0 535 c0 294 -1 535 -2 534 -2 0 -120
-42 -263 -94z"/>
<path d="M9478 973 c7 -3 16 -2 19 1 4 3 -2 6 -13 5 -11 0 -14 -3 -6 -6z"/>
<path d="M10058 943 c6 -2 18 -2 25 0 6 3 1 5 -13 5 -14 0 -19 -2 -12 -5z"/>
<path d="M10123 933 c9 -2 25 -2 35 0 9 3 1 5 -18 5 -19 0 -27 -2 -17 -5z"/>
<path d="M8820 810 c-8 -5 -10 -10 -5 -10 6 0 17 5 25 10 8 5 11 10 5 10 -5 0
-17 -5 -25 -10z"/>
<path d="M8060 750 c-21 -7 -21 -8 -5 -9 11 0 27 4 35 9 18 11 5 11 -30 0z"/>
<path d="M8195 710 c-13 -6 -15 -9 -5 -9 8 0 22 4 30 9 18 12 2 12 -25 0z"/>
<path d="M9110 710 c-12 -8 -11 -10 8 -10 12 0 22 5 22 10 0 13 -11 13 -30 0z"/>
<path d="M8690 401 c0 -5 7 -12 16 -15 14 -5 15 -4 4 9 -14 17 -20 19 -20 6z"/>
</g>
</svg>
